<svg xmlns="http://www.w3.org/2000/svg" xmlns:xlink="http://www.w3.org/1999/xlink" width="1080" zoomAndPan="magnify" viewBox="0 0 810 809.999993" height="1080" preserveAspectRatio="xMidYMid meet" version="1.0"><rect x="-81" width="972" fill="#ffffff" y="-80.999999" height="971.999992" fill-opacity="1"/><rect x="-81" width="972" fill="#ffffff" y="-80.999999" height="971.999992" fill-opacity="1"/><path fill="#e4e8f4" d="M 808.539062 618.523438 L 808.367188 680.921875 C 808.367188 682.46875 808.023438 684.019531 807.507812 685.050781 C 806.992188 686.253906 806.304688 687.109375 805.269531 687.628906 L 769.328125 708.597656 C 769.328125 708.429688 769.5 708.253906 769.5 708.253906 C 767.609375 709.628906 764.855469 709.460938 761.933594 707.742188 L 628.652344 630.894531 L 628.480469 644.652344 C 628.480469 647.917969 626.246094 651.359375 621.773438 654.105469 L 566.570312 686.078125 C 557.457031 691.238281 542.839844 691.238281 533.894531 686.078125 L 474.21875 651.695312 L 362.09375 716.847656 L 302.246094 802.632812 L 239.992188 787.84375 L 207.832031 806.585938 L 130.445312 761.890625 L 30.011719 738.167969 L 47.035156 713.757812 L -0.429688 686.421875 L 112.042969 620.921875 L 172.234375 535.144531 L 234.488281 549.761719 L 266.648438 531.191406 L 343.519531 575.546875 L 377.398438 583.621094 L 377.398438 575.027344 C 377.398438 571.59375 379.632812 568.152344 384.105469 565.574219 L 430.710938 538.578125 L 430.710938 516.578125 L 381.355469 488.214844 C 375.335938 501.453125 366.5625 511.59375 355.558594 517.957031 L 337.671875 528.273438 C 338.53125 527.582031 339.5625 526.726562 340.421875 526.039062 C 318.238281 542.878906 285.390625 542.710938 248.761719 521.566406 C 217.117188 503.34375 188.570312 472.746094 167.074219 437.5 L 81.257812 487.007812 L 65.78125 519.332031 L 4.558594 554.746094 L 24.164062 513.65625 L 4.386719 495.601562 L 65.609375 460.199219 L 81.257812 474.289062 L 161.570312 428.050781 C 140.933594 391.257812 128.207031 350.171875 128.378906 313.042969 C 128.550781 274.535156 142.308594 247.546875 164.496094 235.167969 L 184.441406 223.480469 C 206.285156 210.757812 236.722656 212.476562 270.429688 231.902344 C 272.492188 233.109375 274.558594 234.65625 276.792969 235.855469 L 277.308594 38.683594 C 277.308594 32.320312 279.375 27.847656 282.8125 25.269531 L 283.15625 24.925781 C 283.671875 24.582031 284.1875 24.414062 284.703125 24.070312 L 319.445312 3.4375 C 323.398438 1.035156 329.074219 1.371094 335.265625 4.988281 L 786.699219 265.59375 C 798.910156 272.644531 808.710938 289.835938 808.710938 304.105469 L 808.023438 618.523438 Z M 808.539062 618.523438 " fill-opacity="1" fill-rule="nonzero"/><path fill="#e4e8f4" d="M 613.355469 827.066406 L 718.261719 766.128906 L 718.28125 758.238281 L 718.261719 758.222656 L 718.28125 750.40625 L 718.261719 750.390625 L 718.28125 742.574219 L 718.261719 742.566406 L 718.28125 734.742188 L 612.691406 673.804688 L 507.789062 734.742188 L 507.765625 742.632812 L 507.789062 742.652344 L 507.765625 750.464844 L 507.789062 750.484375 L 507.765625 758.296875 L 507.789062 758.3125 L 507.765625 766.128906 Z M 613.355469 827.066406 " fill-opacity="1" fill-rule="nonzero"/><path fill="#474b59" d="M 628.601562 629.453125 L 628.511719 644.59375 C 628.511719 647.933594 626.28125 651.375 621.726562 654.066406 L 566.621094 686.113281 C 557.511719 691.320312 542.832031 691.320312 533.816406 686.113281 L 384.203125 599.820312 C 379.652344 597.125 377.328125 593.6875 377.328125 590.160156 L 377.421875 575.015625 C 377.421875 578.546875 379.652344 581.980469 384.203125 584.675781 L 533.816406 670.972656 C 542.925781 676.175781 557.605469 676.175781 566.621094 670.972656 L 621.820312 638.925781 C 626.371094 636.234375 628.601562 632.796875 628.601562 629.453125 Z M 628.601562 629.453125 " fill-opacity="1" fill-rule="nonzero"/><path fill="#5b5e71" d="M 621.765625 619.875 C 630.84375 625.117188 630.890625 633.609375 621.816406 638.878906 L 566.640625 670.929688 C 557.566406 676.203125 542.898438 676.203125 533.820312 670.964844 L 384.246094 584.644531 C 375.167969 579.40625 375.0625 570.878906 384.140625 565.605469 L 439.3125 533.554688 C 448.390625 528.28125 463.117188 528.316406 472.195312 533.554688 Z M 621.765625 619.875 " fill-opacity="1" fill-rule="nonzero"/><path fill="#bac1ce" d="M 578.71875 537.269531 L 578.6875 632.175781 L 558.148438 644.109375 L 558.179688 549.199219 Z M 578.71875 537.269531 " fill-opacity="1" fill-rule="nonzero"/><path fill="#d4dae8" d="M 558.179688 549.199219 L 558.148438 644.109375 L 430.695312 570.554688 L 430.726562 475.644531 Z M 558.179688 549.199219 " fill-opacity="1" fill-rule="nonzero"/><path fill="#e4e8f4" d="M 578.71875 537.269531 L 558.179688 549.199219 L 430.726562 475.644531 L 451.265625 463.710938 Z M 578.71875 537.269531 " fill-opacity="1" fill-rule="nonzero"/><path fill="#e4e8f4" d="M 772.402344 639.480469 L 772.226562 701.859375 C 772.222656 703.484375 772 704.988281 771.453125 706.042969 C 769.914062 709.417969 766.207031 710.277344 761.851562 707.765625 L 286.558594 433.464844 C 282.316406 431.015625 278.621094 425.882812 277.109375 420.75 C 276.570312 419.066406 276.25 417.25 276.253906 415.621094 L 276.429688 353.242188 Z M 772.402344 639.480469 " fill-opacity="1" fill-rule="nonzero"/><path fill="#bac1ce" d="M 808.480469 618.578125 L 808.3125 680.949219 C 808.3125 682.480469 807.96875 684.019531 807.457031 685.042969 C 806.945312 686.230469 806.265625 687.082031 805.242188 687.597656 L 769.273438 708.554688 C 770.125 708.039062 770.976562 707.191406 771.488281 706 C 772 704.976562 772.171875 703.445312 772.171875 701.90625 L 772.339844 639.546875 Z M 808.480469 618.578125 " fill-opacity="1" fill-rule="nonzero"/><path fill="#e4e8f4" d="M 755.242188 309.773438 L 754.394531 608.175781 L 294.664062 342.855469 L 295.511719 44.453125 Z M 755.242188 309.773438 " fill-opacity="1" fill-rule="nonzero"/><path fill="#3f434f" d="M 808.792969 304.023438 L 807.9375 618.578125 L 771.800781 639.546875 L 772.824219 324.980469 C 772.824219 310.84375 762.9375 293.628906 750.660156 286.476562 L 299.09375 25.933594 C 292.957031 22.355469 286.386719 23.121094 282.296875 25.507812 L 319.378906 3.441406 C 323.472656 1.054688 329.097656 1.394531 335.234375 4.972656 L 786.628906 265.515625 C 798.90625 272.671875 808.792969 289.878906 808.792969 304.023438 Z M 808.792969 304.023438 " fill-opacity="1" fill-rule="nonzero"/><path fill="#525566" d="M 751.164062 286.5 C 763.464844 293.597656 773.335938 310.820312 773.292969 324.945312 L 772.402344 639.480469 L 276.429688 353.242188 L 277.320312 38.710938 C 277.363281 24.582031 287.40625 18.859375 299.707031 25.957031 Z M 754.394531 608.175781 L 755.242188 309.773438 L 295.511719 44.453125 L 294.664062 342.855469 L 754.394531 608.175781 " fill-opacity="1" fill-rule="nonzero"/><path fill="#bac1ce" d="M 494.492188 496.347656 C 504.074219 501.875 511.625 515.113281 511.59375 525.957031 C 511.5625 536.957031 503.960938 541.289062 494.382812 535.761719 C 484.945312 530.316406 477.25 517.15625 477.28125 506.152344 C 477.3125 495.308594 485.058594 490.902344 494.492188 496.347656 Z M 494.492188 496.347656 " fill-opacity="1" fill-rule="nonzero"/><path fill="#cad0dd" d="M 444.386719 599.464844 L 302.175781 802.554688 L 29.980469 738.207031 L 172.195312 535.117188 Z M 444.386719 599.464844 " fill-opacity="1" fill-rule="nonzero"/><path fill="#e4e8f4" d="M 474.878906 651.425781 L 207.796875 806.574219 L -0.511719 686.355469 L 266.570312 531.207031 Z M 474.878906 651.425781 " fill-opacity="1" fill-rule="nonzero"/><path fill="#ed435c" d="M 120.757812 693.011719 L 120.761719 695.296875 L 120.765625 698.605469 L 119.144531 698.613281 L 119.113281 695.253906 L 119.101562 693.972656 L 118.492188 693.988281 L 103.566406 694.328125 L 100.972656 694.386719 L 100.960938 694.117188 L 100.90625 692.792969 L 100.574219 685.332031 L 100.519531 684.074219 L 100.496094 683.601562 L 100.433594 682.199219 L 100.125 675.199219 L 100.066406 673.945312 L 65.554688 673.945312 L 65.546875 672.386719 L 65.5 664.230469 L 65.496094 663.769531 L 67.003906 663.816406 L 67.007812 664.277344 L 67.125 672.390625 L 67.132812 673.027344 L 101.644531 673.027344 L 101.699219 674.285156 L 102.09375 683.15625 L 102.160156 684.5625 L 102.542969 693.199219 L 102.554688 693.46875 L 104.375 693.425781 L 116.964844 693.105469 L 119.238281 693.050781 Z M 120.757812 693.011719 " fill-opacity="1" fill-rule="nonzero"/><path fill="#cad0dd" d="M 95.234375 698.734375 L 93.796875 698.742188 L 93.800781 698.277344 L 100.960938 694.117188 L 100.972656 694.386719 L 103.566406 694.328125 L 111.054688 698.648438 L 118.785156 694.15625 L 118.492188 693.988281 L 119.101562 693.972656 L 119.113281 695.253906 L 113.277344 698.644531 L 108.867188 698.664062 L 102.085938 694.753906 Z M 95.234375 698.734375 " fill-opacity="1" fill-rule="nonzero"/><path fill="#cad0dd" d="M 187.4375 697.867188 L 184.519531 699.566406 L 93.347656 646.949219 L 96.265625 645.253906 Z M 187.4375 697.867188 " fill-opacity="1" fill-rule="nonzero"/><path fill="#cad0dd" d="M 155.332031 705.222656 L 152.46875 705.601562 L 146.746094 708.957031 L 143.515625 707.09375 L 141.648438 707.34375 L 145.628906 709.703125 L 142.394531 711.566406 L 145.007812 711.320312 L 146.746094 710.324219 L 147.992188 711.070312 L 149.980469 710.820312 L 147.867188 709.578125 Z M 155.332031 705.222656 L 152.46875 705.601562 L 146.746094 708.957031 L 143.515625 707.09375 L 141.648438 707.34375 L 145.628906 709.703125 L 142.394531 711.566406 L 145.007812 711.320312 L 146.746094 710.324219 L 147.992188 711.070312 L 149.980469 710.820312 L 147.867188 709.578125 Z M 155.332031 705.222656 L 152.46875 705.601562 L 146.746094 708.957031 L 143.515625 707.09375 L 141.648438 707.34375 L 145.628906 709.703125 L 142.394531 711.566406 L 145.007812 711.320312 L 146.746094 710.324219 L 147.992188 711.070312 L 149.980469 710.820312 L 147.867188 709.578125 Z M 155.332031 705.222656 L 152.46875 705.601562 L 146.746094 708.957031 L 143.515625 707.09375 L 141.648438 707.34375 L 145.628906 709.703125 L 142.394531 711.566406 L 145.007812 711.320312 L 146.746094 710.324219 L 147.992188 711.070312 L 149.980469 710.820312 L 147.867188 709.578125 Z M 155.332031 705.222656 L 152.46875 705.601562 L 146.746094 708.957031 L 143.515625 707.09375 L 141.648438 707.34375 L 145.628906 709.703125 L 142.394531 711.566406 L 145.007812 711.320312 L 146.746094 710.324219 L 147.992188 711.070312 L 149.980469 710.820312 L 147.867188 709.578125 Z M 174.609375 704.484375 L 173.492188 703.734375 L 165.65625 699.261719 L 164.535156 698.636719 L 156.699219 694.160156 L 155.578125 693.414062 L 147.742188 688.941406 L 146.625 688.316406 L 138.785156 683.839844 L 137.667969 683.09375 L 129.832031 678.621094 L 128.710938 677.996094 L 121 673.519531 L 119.878906 672.902344 L 112.042969 668.300781 L 110.925781 667.679688 L 102.964844 663.078125 L 101.84375 662.453125 L 94.132812 657.976562 L 93.011719 657.359375 L 84.058594 652.136719 L 75.101562 657.359375 L 73.980469 657.976562 L 66.269531 662.453125 L 65.152344 663.199219 L 57.3125 667.679688 L 56.320312 668.300781 L 48.480469 672.902344 L 47.363281 673.519531 L 39.402344 678.121094 L 41.640625 678.121094 L 48.480469 674.140625 L 55.449219 678.121094 L 58.183594 678.121094 L 58.058594 679.738281 L 65.273438 683.839844 L 58.058594 688.066406 L 57.8125 688.195312 L 59.800781 688.195312 L 66.269531 684.460938 L 72.988281 688.316406 L 75.226562 688.316406 L 67.390625 683.839844 L 75.226562 679.238281 L 83.0625 683.839844 L 75.351562 688.316406 L 77.464844 688.316406 L 84.183594 684.460938 L 91.148438 688.441406 L 93.882812 688.441406 L 93.882812 690.058594 L 100.972656 694.160156 L 100.847656 692.789062 L 94.257812 688.941406 L 100.601562 685.335938 L 100.476562 684.089844 L 93.136719 688.316406 L 85.300781 683.839844 L 93.011719 679.367188 L 100.476562 683.59375 L 100.476562 682.226562 L 94.257812 678.621094 L 100.101562 675.261719 L 100.101562 673.894531 L 93.136719 677.996094 L 86.171875 673.894531 L 82.191406 673.894531 L 75.226562 677.996094 L 68.261719 673.894531 L 65.523438 673.894531 L 65.523438 672.402344 L 58.433594 668.300781 L 65.523438 664.195312 L 65.523438 663.824219 L 67.015625 663.824219 L 67.015625 664.316406 L 74.105469 668.300781 L 67.140625 672.402344 L 67.140625 673.023438 L 68.261719 673.023438 L 75.226562 669.046875 L 82.191406 673.023438 L 85.921875 673.023438 L 93.011719 668.917969 L 100.101562 673.023438 L 101.59375 673.023438 L 101.71875 674.265625 L 101.96875 674.140625 L 109.804688 678.621094 L 102.09375 683.09375 L 102.21875 684.585938 L 109.804688 688.941406 L 102.589844 693.167969 L 102.589844 693.414062 L 104.332031 693.414062 L 110.925781 689.558594 L 117.019531 693.167969 L 119.257812 693.042969 L 112.042969 688.941406 L 119.878906 684.460938 L 127.71875 688.941406 L 120.75 693.042969 L 120.75 695.277344 L 126.472656 698.636719 L 128.835938 698.507812 L 121.125 694.160156 L 128.835938 689.558594 L 136.546875 694.160156 L 128.960938 698.507812 L 130.328125 698.507812 L 130.328125 699.007812 L 137.667969 694.78125 L 145.628906 699.261719 L 137.792969 703.734375 L 130.328125 699.382812 L 130.203125 700.75 L 136.671875 704.484375 L 129.957031 708.332031 L 133.066406 707.835938 L 137.792969 705.101562 L 140.402344 706.71875 L 142.269531 706.347656 L 138.910156 704.484375 L 146.625 699.882812 L 154.460938 704.355469 L 154.957031 704.355469 L 155.332031 705.222656 L 155.703125 705.101562 L 163.417969 709.578125 L 163.914062 709.457031 L 164.164062 710.324219 L 164.535156 710.203125 L 172.371094 714.804688 L 164.660156 719.277344 L 156.824219 714.675781 L 164.164062 710.324219 L 161.675781 710.570312 L 155.703125 714.050781 L 151.351562 711.566406 L 149.359375 711.816406 L 154.585938 714.804688 L 146.746094 719.277344 L 139.035156 714.804688 L 143.140625 712.4375 L 140.527344 712.683594 L 137.917969 714.179688 L 136.050781 713.0625 L 134.058594 713.183594 L 136.796875 714.804688 L 128.960938 719.277344 L 121.125 714.804688 L 121.746094 714.425781 L 119.257812 714.675781 L 119.257812 713.679688 L 112.167969 709.578125 L 119.257812 705.480469 L 119.132812 703.359375 L 112.667969 699.632812 L 109.433594 699.632812 L 102.09375 703.859375 L 94.878906 699.632812 L 92.265625 699.632812 L 92.265625 698.136719 L 85.425781 694.160156 L 92.265625 690.179688 L 92.265625 689.4375 L 91.394531 689.4375 L 84.304688 693.535156 L 76.96875 689.3125 L 73.734375 689.183594 L 66.394531 693.414062 L 58.929688 689.183594 L 56.070312 689.0625 L 48.605469 693.414062 L 40.769531 688.941406 L 48.605469 684.460938 L 56.070312 688.8125 L 56.195312 687.570312 L 49.726562 683.839844 L 56.566406 679.859375 L 56.566406 679.117188 L 55.574219 679.117188 L 48.605469 683.222656 L 41.394531 678.988281 L 39.402344 678.988281 L 39.402344 678.121094 L 38.53125 678.621094 L 29.574219 683.839844 L 38.53125 688.941406 L 39.652344 689.558594 L 47.488281 694.160156 L 48.605469 694.78125 L 56.441406 699.261719 L 57.5625 699.882812 L 65.398438 704.484375 L 66.519531 705.101562 L 74.355469 709.578125 L 75.476562 710.203125 L 83.3125 714.804688 L 84.429688 715.421875 L 92.140625 719.898438 L 93.261719 720.523438 L 101.097656 725.117188 L 102.21875 725.742188 L 110.179688 730.21875 L 111.171875 730.964844 L 119.011719 735.441406 L 120.128906 736.066406 L 129.085938 741.285156 L 138.039062 736.066406 L 139.160156 735.441406 L 146.871094 730.964844 L 147.992188 730.21875 L 155.828125 725.742188 L 156.824219 725.117188 L 164.660156 720.644531 L 165.78125 719.898438 L 173.492188 715.421875 L 174.609375 714.804688 L 183.566406 709.578125 Z M 84.058594 674.140625 L 91.894531 678.621094 L 84.183594 683.09375 L 76.34375 678.621094 Z M 66.394531 674.140625 L 74.105469 678.621094 L 66.269531 683.222656 L 58.558594 678.621094 Z M 65.273438 673.519531 L 57.4375 677.996094 L 49.601562 673.519531 L 57.3125 668.917969 Z M 31.816406 683.839844 L 39.652344 679.238281 L 47.488281 683.839844 L 39.652344 688.316406 Z M 137.917969 715.421875 L 145.628906 719.898438 L 137.917969 724.5 L 130.082031 720.023438 Z M 136.796875 725.117188 L 129.085938 729.59375 L 121.25 725.117188 L 128.960938 720.644531 Z M 120.003906 715.421875 L 127.839844 720.023438 L 120.128906 724.5 L 112.292969 719.898438 Z M 118.886719 714.804688 L 111.171875 719.277344 L 103.335938 714.675781 L 111.050781 710.203125 Z M 111.050781 699.882812 L 118.886719 704.484375 L 111.050781 708.957031 L 103.210938 704.484375 Z M 109.929688 709.578125 L 102.21875 714.050781 L 94.382812 709.578125 L 102.09375 705.101562 Z M 93.136719 699.882812 L 100.972656 704.484375 L 93.261719 708.957031 L 85.425781 704.484375 Z M 92.019531 699.261719 L 84.304688 703.734375 L 76.59375 699.261719 L 84.304688 694.78125 Z M 75.351562 689.558594 L 83.1875 694.160156 L 75.476562 698.636719 L 67.515625 694.160156 Z M 49.726562 694.160156 L 57.4375 689.558594 L 65.398438 694.160156 L 57.5625 698.636719 Z M 58.683594 699.261719 L 66.519531 694.78125 L 74.355469 699.261719 L 66.519531 703.859375 Z M 75.351562 708.957031 L 67.636719 704.484375 L 75.476562 699.882812 L 83.1875 704.484375 Z M 76.46875 709.578125 L 84.304688 705.101562 L 92.140625 709.578125 L 84.429688 714.179688 Z M 85.550781 714.804688 L 93.261719 710.203125 L 101.097656 714.675781 L 93.261719 719.277344 Z M 94.382812 719.898438 L 102.21875 715.421875 L 110.054688 719.898438 L 102.21875 724.5 Z M 103.335938 725.117188 L 111.171875 720.523438 L 119.011719 725.117188 L 111.171875 729.59375 Z M 112.292969 730.21875 L 120.128906 725.742188 L 127.964844 730.21875 L 120.128906 734.820312 Z M 129.085938 739.914062 L 121.25 735.441406 L 129.085938 730.835938 L 136.921875 735.441406 Z M 138.039062 734.820312 L 130.203125 730.21875 L 137.917969 725.742188 L 145.753906 730.21875 Z M 146.871094 729.59375 L 139.035156 725.117188 L 146.746094 720.523438 L 154.707031 725.117188 Z M 155.703125 724.5 L 147.867188 719.898438 L 155.578125 715.421875 L 163.539062 720.023438 Z M 84.058594 653.503906 L 91.894531 657.976562 L 84.058594 662.578125 L 76.222656 657.976562 Z M 67.390625 663.078125 L 75.101562 658.597656 L 82.9375 663.199219 L 75.226562 667.679688 Z M 84.183594 672.773438 L 76.34375 668.300781 L 84.058594 663.824219 L 91.894531 668.300781 Z M 85.175781 663.199219 L 93.011719 658.597656 L 100.847656 663.078125 L 93.011719 667.679688 Z M 94.132812 668.300781 L 101.96875 663.824219 L 109.804688 668.300781 L 101.96875 672.902344 Z M 103.089844 673.519531 L 110.925781 668.917969 L 118.761719 673.519531 L 110.925781 677.996094 Z M 111.050781 688.316406 L 103.210938 683.839844 L 110.925781 679.367188 L 118.761719 683.839844 Z M 112.042969 678.621094 L 119.878906 674.140625 L 127.59375 678.621094 L 119.878906 683.222656 Z M 121 683.839844 L 128.710938 679.238281 L 136.671875 683.839844 L 128.835938 688.316406 Z M 129.957031 688.941406 L 137.667969 684.460938 L 145.503906 688.941406 L 137.667969 693.414062 Z M 138.785156 694.160156 L 146.625 689.558594 L 154.460938 694.160156 L 146.625 698.636719 Z M 147.742188 699.261719 L 155.578125 694.78125 L 163.417969 699.261719 L 155.703125 703.859375 Z M 156.699219 704.484375 L 164.535156 699.882812 L 172.371094 704.484375 L 164.535156 708.957031 Z M 173.492188 714.179688 L 165.65625 709.578125 L 173.492188 705.101562 L 181.328125 709.578125 Z M 146.746094 708.957031 L 143.515625 707.09375 L 141.648438 707.34375 L 145.628906 709.703125 L 142.394531 711.566406 L 145.007812 711.320312 L 146.746094 710.324219 L 147.992188 711.070312 L 149.980469 710.820312 L 147.867188 709.578125 L 155.332031 705.222656 L 152.46875 705.601562 Z M 155.332031 705.222656 L 152.46875 705.601562 L 146.746094 708.957031 L 143.515625 707.09375 L 141.648438 707.34375 L 145.628906 709.703125 L 142.394531 711.566406 L 145.007812 711.320312 L 146.746094 710.324219 L 147.992188 711.070312 L 149.980469 710.820312 L 147.867188 709.578125 Z M 155.332031 705.222656 L 152.46875 705.601562 L 146.746094 708.957031 L 143.515625 707.09375 L 141.648438 707.34375 L 145.628906 709.703125 L 142.394531 711.566406 L 145.007812 711.320312 L 146.746094 710.324219 L 147.992188 711.070312 L 149.980469 710.820312 L 147.867188 709.578125 Z M 155.332031 705.222656 L 152.46875 705.601562 L 146.746094 708.957031 L 143.515625 707.09375 L 141.648438 707.34375 L 145.628906 709.703125 L 142.394531 711.566406 L 145.007812 711.320312 L 146.746094 710.324219 L 147.992188 711.070312 L 149.980469 710.820312 L 147.867188 709.578125 Z M 155.332031 705.222656 L 152.46875 705.601562 L 146.746094 708.957031 L 143.515625 707.09375 L 141.648438 707.34375 L 145.628906 709.703125 L 142.394531 711.566406 L 145.007812 711.320312 L 146.746094 710.324219 L 147.992188 711.070312 L 149.980469 710.820312 L 147.867188 709.578125 Z M 155.332031 705.222656 " fill-opacity="1" fill-rule="nonzero"/><path fill="#6eba6e" d="M 154.9375 704.332031 L 155.335938 705.203125 L 152.503906 705.65625 L 143.554688 707.085938 L 141.695312 707.378906 L 130.890625 709.105469 L 128.050781 709.558594 L 128.125 708.5 L 128.679688 699.996094 L 128.710938 699.519531 L 127.277344 699.523438 L 120.769531 699.550781 L 119.152344 699.554688 L 112.667969 699.578125 L 109.425781 699.59375 L 94.894531 699.648438 L 92.214844 699.660156 L 92.234375 698.113281 L 92.3125 690.132812 L 92.316406 689.390625 L 91.378906 689.386719 L 76.917969 689.273438 L 73.722656 689.25 L 58.949219 689.140625 L 56.066406 689.113281 L 56.078125 688.761719 L 56.140625 687.519531 L 56.523438 679.835938 L 56.558594 679.078125 L 55.621094 679.074219 L 41.378906 679 L 39.460938 678.988281 L 39.378906 678.117188 L 41.585938 678.121094 L 55.4375 678.15625 L 58.136719 678.160156 L 58.089844 679.683594 L 57.800781 688.105469 L 59.832031 688.214844 L 73.042969 688.316406 L 75.289062 688.332031 L 77.488281 688.347656 L 91.171875 688.453125 L 93.898438 688.472656 L 93.882812 690.015625 L 93.800781 698.277344 L 93.796875 698.742188 L 95.234375 698.734375 L 108.867188 698.664062 L 113.277344 698.644531 L 119.144531 698.613281 L 120.765625 698.605469 L 126.441406 698.578125 L 128.796875 698.566406 L 130.367188 698.554688 L 130.335938 699.035156 L 130.3125 699.441406 L 130.238281 700.765625 L 129.789062 708.363281 L 133.070312 707.839844 L 140.445312 706.65625 L 142.300781 706.359375 L 154.445312 704.410156 Z M 154.9375 704.332031 " fill-opacity="1" fill-rule="nonzero"/><path fill="#cad0dd" d="M 127.820312 709.601562 L 120.78125 705.539062 L 120.773438 703.300781 L 127.277344 699.523438 L 128.710938 699.519531 L 128.679688 699.996094 L 121.0625 704.421875 L 128.125 708.5 L 128.050781 709.558594 L 130.890625 709.105469 L 130.035156 709.601562 L 134.667969 712.277344 L 132.765625 712.457031 L 128.929688 710.242188 L 123.628906 713.320312 L 120.980469 713.574219 Z M 127.820312 709.601562 " fill-opacity="1" fill-rule="nonzero"/><path fill="#ed435c" d="M 163.910156 709.511719 L 164.15625 710.382812 L 161.691406 710.617188 L 151.375 711.597656 L 149.339844 711.789062 L 143.144531 712.378906 L 140.496094 712.628906 L 136.015625 713.054688 L 134.113281 713.234375 L 121.753906 714.410156 L 119.292969 714.644531 L 119.289062 713.726562 L 119.207031 705.5 L 119.191406 703.34375 L 119.152344 699.554688 L 120.769531 699.550781 L 120.773438 703.300781 L 120.78125 705.539062 L 120.792969 713.59375 L 120.980469 713.574219 L 123.628906 713.320312 L 132.765625 712.457031 L 134.667969 712.277344 L 142.351562 711.550781 L 145 711.300781 L 148 711.015625 L 150.035156 710.824219 L 163.371094 709.5625 Z M 163.910156 709.511719 " fill-opacity="1" fill-rule="nonzero"/><path fill="#cad0dd" d="M 294.457031 740.265625 L 291.539062 741.960938 L 110.070312 637.234375 L 112.992188 635.539062 Z M 294.457031 740.265625 " fill-opacity="1" fill-rule="nonzero"/><path fill="#cad0dd" d="M 286.09375 745.125 L 283.175781 746.820312 L 101.707031 642.09375 L 104.628906 640.394531 Z M 286.09375 745.125 " fill-opacity="1" fill-rule="nonzero"/><path fill="#f9bb4a" d="M 163.777344 742.421875 L 151.945312 749.292969 L 150.519531 748.46875 L 162.347656 741.597656 Z M 163.777344 742.421875 " fill-opacity="1" fill-rule="nonzero"/><path fill="#f9bb4a" d="M 180.066406 738.386719 L 156.632812 752 L 155.203125 751.171875 L 178.636719 737.5625 Z M 180.066406 738.386719 " fill-opacity="1" fill-rule="nonzero"/><path fill="#f9bb4a" d="M 211.683594 730.960938 L 166.082031 757.453125 L 164.574219 756.582031 L 210.175781 730.089844 Z M 211.683594 730.960938 " fill-opacity="1" fill-rule="nonzero"/><path fill="#8facfc" d="M 197.054688 761.625 L 185.222656 768.496094 L 183.714844 767.628906 L 195.546875 760.753906 Z M 197.054688 761.625 " fill-opacity="1" fill-rule="nonzero"/><path fill="#8facfc" d="M 213.339844 757.589844 L 189.910156 771.203125 L 188.398438 770.332031 L 211.832031 756.71875 Z M 213.339844 757.589844 " fill-opacity="1" fill-rule="nonzero"/><path fill="#cad0dd" d="M 193.144531 714.804688 L 138.039062 746.757812 L 211.679688 789.277344 L 266.78125 757.324219 Z M 211.554688 786.667969 L 142.644531 746.878906 L 193.269531 717.414062 L 262.300781 757.199219 Z M 211.554688 786.667969 " fill-opacity="1" fill-rule="nonzero"/><path fill="#f9bb4a" d="M 200.453125 732.058594 L 161.398438 754.75 L 159.890625 753.878906 L 198.945312 731.1875 Z M 200.453125 732.058594 " fill-opacity="1" fill-rule="nonzero"/><path fill="#f9bb4a" d="M 203.351562 741.226562 L 170.769531 760.15625 L 169.339844 759.332031 L 201.921875 740.402344 Z M 203.351562 741.226562 " fill-opacity="1" fill-rule="nonzero"/><path fill="#f9bb4a" d="M 197.546875 750.027344 L 175.453125 762.859375 L 174.023438 762.035156 L 196.117188 749.203125 Z M 197.546875 750.027344 " fill-opacity="1" fill-rule="nonzero"/><path fill="#8facfc" d="M 233.648438 751.21875 L 194.59375 773.90625 L 193.164062 773.082031 L 232.21875 750.394531 Z M 233.648438 751.21875 " fill-opacity="1" fill-rule="nonzero"/><path fill="#8facfc" d="M 244.878906 750.121094 L 199.28125 776.609375 L 197.851562 775.785156 L 243.453125 749.296875 Z M 244.878906 750.121094 " fill-opacity="1" fill-rule="nonzero"/><path fill="#8facfc" d="M 236.628906 760.433594 L 204.042969 779.359375 L 202.535156 778.488281 L 235.121094 759.5625 Z M 236.628906 760.433594 " fill-opacity="1" fill-rule="nonzero"/><path fill="#8facfc" d="M 230.820312 769.230469 L 208.730469 782.066406 L 207.222656 781.195312 L 229.3125 768.359375 Z M 230.820312 769.230469 " fill-opacity="1" fill-rule="nonzero"/><path fill="#ddaf9b" d="M 324.246094 677.445312 C 312.746094 682.882812 298.632812 686.195312 283.882812 686.972656 L 283.765625 665.949219 C 288.945312 665.433594 293.949219 664.292969 298.5 662.585938 Z M 324.246094 677.445312 " fill-opacity="1" fill-rule="nonzero"/><path fill="#ed435c" d="M 352.15625 646.792969 C 350.867188 656.371094 344.214844 665.433594 333.164062 672.578125 L 307.59375 657.820312 C 311.957031 654.664062 314.890625 650.882812 315.9375 646.84375 Z M 352.15625 646.792969 " fill-opacity="1" fill-rule="nonzero"/><path fill="#576cfb" d="M 271.765625 599.46875 L 271.882812 620.386719 C 251.859375 621.628906 236.53125 631.363281 236.601562 643.269531 C 236.722656 649.433594 240.871094 655.234375 248.40625 659.582031 C 254.867188 663.308594 263.195312 665.640625 272.140625 666.15625 L 272.257812 687.078125 C 253.652344 686.453125 236.367188 681.949219 223.089844 674.289062 C 208.738281 666.003906 200.714844 654.972656 200.652344 643.273438 C 200.523438 620.074219 232.066406 600.816406 271.765625 599.46875 Z M 271.765625 599.46875 " fill-opacity="1" fill-rule="nonzero"/><path fill="#75ca75" d="M 338.851562 618.367188 C 346.488281 624.734375 351 631.984375 352.113281 639.753906 L 315.988281 639.75 C 315.351562 637.523438 314.265625 635.453125 312.734375 633.539062 Z M 338.851562 618.367188 " fill-opacity="1" fill-rule="nonzero"/><path fill="#f9bb4a" d="M 331.039062 612.828125 L 305.636719 627.582031 L 304.734375 626.964844 C 298.90625 623.597656 291.472656 621.371094 283.507812 620.59375 L 283.394531 599.570312 C 301.011719 600.554688 317.492188 605.007812 330.050781 612.257812 Z M 331.039062 612.828125 " fill-opacity="1" fill-rule="nonzero"/><path fill="#ed435c" d="M 249.449219 291.976562 C 293.042969 317.136719 328.445312 378.324219 328.304688 428.507812 C 328.160156 478.585938 292.527344 498.882812 248.933594 473.722656 C 205.335938 448.5625 169.933594 387.269531 170.078125 337.191406 C 170.21875 287.007812 205.851562 266.816406 249.449219 291.976562 Z M 249 449.65625 C 281.039062 468.148438 307.246094 453.214844 307.351562 416.414062 C 307.453125 379.503906 281.417969 334.425781 249.378906 315.9375 C 217.246094 297.390625 191.039062 312.316406 190.933594 349.230469 C 190.832031 386.027344 216.867188 431.113281 249 449.65625 " fill-opacity="1" fill-rule="nonzero"/><path fill="#e8f1fa" d="M 249.515625 268.023438 C 304.667969 299.851562 349.339844 377.199219 349.160156 440.546875 C 348.984375 503.789062 304.019531 529.511719 248.863281 497.683594 C 193.710938 465.851562 149.039062 388.394531 149.21875 325.152344 C 149.398438 261.804688 194.363281 236.191406 249.515625 268.023438 Z M 248.933594 473.722656 C 292.527344 498.882812 328.160156 478.585938 328.304688 428.507812 C 328.445312 378.324219 293.042969 317.136719 249.449219 291.976562 C 205.851562 266.816406 170.21875 287.007812 170.078125 337.191406 C 169.933594 387.269531 205.335938 448.5625 248.933594 473.722656 " fill-opacity="1" fill-rule="nonzero"/><path fill="#f76d8e" d="M 390.746094 440.605469 C 390.597656 478.558594 377.203125 505.332031 355.570312 517.980469 L 334.820312 530.046875 C 356.453125 517.398438 369.847656 490.621094 369.992188 452.523438 C 370.289062 375.878906 316.28125 282.46875 249.613281 243.925781 C 216.0625 224.507812 185.597656 222.742188 163.671875 235.542969 L 184.421875 223.476562 C 206.347656 210.683594 236.664062 212.441406 270.363281 231.863281 C 337.03125 270.40625 391.039062 363.8125 390.746094 440.605469 Z M 390.746094 440.605469 " fill-opacity="1" fill-rule="nonzero"/><path fill="#ed435c" d="M 249.585938 243.953125 C 316.292969 282.453125 370.238281 375.851562 370.019531 452.582031 C 369.804688 529.210938 315.507812 560.140625 248.796875 521.640625 C 181.992188 483.085938 128.140625 389.742188 128.359375 313.113281 C 128.578125 236.382812 182.777344 205.398438 249.585938 243.953125 Z M 248.863281 497.683594 C 304.019531 529.511719 348.984375 503.789062 349.160156 440.546875 C 349.339844 377.199219 304.667969 299.851562 249.515625 268.023438 C 194.363281 236.191406 149.398438 261.804688 149.21875 325.152344 C 149.039062 388.394531 193.710938 465.851562 248.863281 497.683594 " fill-opacity="1" fill-rule="nonzero"/><path fill="#ed435c" d="M 249.3125 339.894531 C 228.734375 328.019531 211.863281 337.636719 211.792969 361.269531 C 211.726562 384.90625 228.492188 413.824219 249.070312 425.699219 C 269.644531 437.574219 286.425781 428.015625 286.492188 404.378906 C 286.558594 380.746094 269.890625 351.769531 249.3125 339.894531 Z M 249.3125 339.894531 " fill-opacity="1" fill-rule="nonzero"/><path fill="#e8f1fa" d="M 249.378906 315.9375 C 281.417969 334.425781 307.453125 379.503906 307.351562 416.414062 C 307.246094 453.214844 281.039062 468.148438 249 449.65625 C 216.867188 431.113281 190.832031 386.027344 190.933594 349.230469 C 191.039062 312.316406 217.246094 297.390625 249.378906 315.9375 Z M 249.070312 425.699219 C 269.644531 437.574219 286.425781 428.015625 286.492188 404.378906 C 286.558594 380.746094 269.890625 351.769531 249.3125 339.894531 C 228.734375 328.019531 211.863281 337.636719 211.792969 361.269531 C 211.726562 384.90625 228.492188 413.824219 249.070312 425.699219 " fill-opacity="1" fill-rule="nonzero"/><path fill="#363a44" d="M 65.609375 460.183594 L 81.289062 474.332031 L 243.589844 380.664062 C 246.65625 378.898438 249.132812 380.421875 249.144531 383.828125 C 249.152344 387.34375 246.691406 391.496094 243.628906 393.265625 L 81.324219 486.933594 L 65.777344 519.324219 L 4.515625 554.679688 L 24.195312 513.648438 L 4.347656 495.542969 Z M 65.609375 460.183594 " fill-opacity="1" fill-rule="nonzero"/><path fill="#37617b" d="M 445.007812 229.660156 L 444.496094 409.367188 L 414.296875 391.925781 L 414.804688 212.21875 Z M 445.007812 229.660156 " fill-opacity="1" fill-rule="nonzero"/><path fill="#5b5e71" d="M 504.535156 302.910156 L 504.136719 443.804688 L 473.871094 426.328125 L 474.269531 285.433594 Z M 504.535156 302.910156 " fill-opacity="1" fill-rule="nonzero"/><path fill="#6eba6e" d="M 563.964844 388.355469 L 563.710938 478.210938 L 533.507812 460.769531 L 533.765625 370.914062 Z M 563.964844 388.355469 " fill-opacity="1" fill-rule="nonzero"/><path fill="#4562ef" d="M 623.699219 367.613281 L 623.285156 512.613281 L 593.085938 495.171875 L 593.496094 350.171875 Z M 623.699219 367.613281 " fill-opacity="1" fill-rule="nonzero"/><path fill="#efac41" d="M 683.429688 346.214844 L 682.863281 547.015625 L 652.660156 529.574219 L 653.230469 328.773438 Z M 683.429688 346.214844 " fill-opacity="1" fill-rule="nonzero"/><path fill="#ed435c" d="M 743.144531 331.554688 L 742.4375 581.417969 L 712.234375 563.976562 L 712.941406 314.113281 Z M 743.144531 331.554688 " fill-opacity="1" fill-rule="nonzero"/><path fill="#e5a03c" d="M 718.28125 758.238281 L 718.261719 766.125 L 613.355469 827.066406 L 613.378906 819.175781 Z M 718.28125 758.238281 " fill-opacity="1" fill-rule="nonzero"/><path fill="#efac41" d="M 613.378906 819.175781 L 613.355469 827.066406 L 507.765625 766.128906 L 507.789062 758.238281 Z M 613.378906 819.175781 " fill-opacity="1" fill-rule="nonzero"/><path fill="#f9bb4a" d="M 718.28125 758.238281 L 613.378906 819.175781 L 507.789062 758.238281 L 612.691406 697.300781 Z M 718.28125 758.238281 " fill-opacity="1" fill-rule="nonzero"/><path fill="#e63044" d="M 718.28125 750.40625 L 718.261719 758.296875 L 613.355469 819.234375 L 613.378906 811.34375 Z M 718.28125 750.40625 " fill-opacity="1" fill-rule="nonzero"/><path fill="#ed435c" d="M 613.378906 811.34375 L 613.355469 819.234375 L 507.765625 758.296875 L 507.789062 750.40625 Z M 613.378906 811.34375 " fill-opacity="1" fill-rule="nonzero"/><path fill="#f25574" d="M 718.28125 750.40625 L 613.378906 811.34375 L 507.789062 750.40625 L 612.691406 689.46875 Z M 718.28125 750.40625 " fill-opacity="1" fill-rule="nonzero"/><path fill="#65aa65" d="M 718.28125 742.574219 L 718.261719 750.464844 L 613.355469 811.40625 L 613.378906 803.515625 Z M 718.28125 742.574219 " fill-opacity="1" fill-rule="nonzero"/><path fill="#6eba6e" d="M 613.378906 803.515625 L 613.355469 811.40625 L 507.765625 750.464844 L 507.789062 742.578125 Z M 613.378906 803.515625 " fill-opacity="1" fill-rule="nonzero"/><path fill="#75ca75" d="M 718.28125 742.574219 L 613.378906 803.515625 L 507.789062 742.578125 L 612.691406 681.636719 Z M 718.28125 742.574219 " fill-opacity="1" fill-rule="nonzero"/><path fill="#3c5dd6" d="M 718.28125 734.746094 L 718.261719 742.632812 L 613.355469 803.574219 L 613.378906 795.683594 Z M 718.28125 734.746094 " fill-opacity="1" fill-rule="nonzero"/><path fill="#4562ef" d="M 613.378906 795.683594 L 613.355469 803.574219 L 507.765625 742.636719 L 507.789062 734.746094 Z M 613.378906 795.683594 " fill-opacity="1" fill-rule="nonzero"/><path fill="#576cfb" d="M 718.28125 734.746094 L 613.378906 795.683594 L 507.789062 734.746094 L 612.691406 673.804688 Z M 718.28125 734.746094 " fill-opacity="1" fill-rule="nonzero"/><path fill="#3c5dd6" d="M 635.699219 701.113281 L 629.320312 704.816406 L 604.878906 690.710938 L 611.257812 687.003906 Z M 635.699219 701.113281 " fill-opacity="1" fill-rule="nonzero"/><path fill="#3c5dd6" d="M 681.015625 745.847656 L 674.566406 749.59375 L 650.050781 735.445312 L 656.5 731.699219 Z M 681.015625 745.847656 " fill-opacity="1" fill-rule="nonzero"/><path fill="#3c5dd6" d="M 619.652344 710.433594 L 613.203125 714.179688 L 588.761719 700.074219 L 595.207031 696.328125 Z M 619.652344 710.433594 " fill-opacity="1" fill-rule="nonzero"/><path fill="#3c5dd6" d="M 603.535156 719.796875 L 597.15625 723.503906 L 572.710938 709.394531 L 579.089844 705.691406 Z M 603.535156 719.796875 " fill-opacity="1" fill-rule="nonzero"/><path fill="#3c5dd6" d="M 650.371094 728.164062 L 643.921875 731.90625 L 619.40625 717.757812 L 625.851562 714.011719 Z M 650.371094 728.164062 " fill-opacity="1" fill-rule="nonzero"/><path fill="#3c5dd6" d="M 587.488281 729.121094 L 581.039062 732.867188 L 556.59375 718.757812 L 563.042969 715.011719 Z M 587.488281 729.121094 " fill-opacity="1" fill-rule="nonzero"/><path fill="#3c5dd6" d="M 634.25 737.523438 L 627.875 741.230469 L 603.359375 727.082031 L 609.734375 723.375 Z M 634.25 737.523438 " fill-opacity="1" fill-rule="nonzero"/><path fill="#3c5dd6" d="M 618.203125 746.847656 L 611.757812 750.59375 L 587.242188 736.445312 L 593.6875 732.699219 Z M 618.203125 746.847656 " fill-opacity="1" fill-rule="nonzero"/><path fill="#3c5dd6" d="M 659.132812 714.636719 L 652.757812 718.34375 L 635.523438 708.394531 L 641.902344 704.691406 Z M 659.132812 714.636719 " fill-opacity="1" fill-rule="nonzero"/><path fill="#3c5dd6" d="M 688.914062 731.824219 L 682.535156 735.527344 L 666.167969 726.082031 L 672.546875 722.378906 Z M 688.914062 731.824219 " fill-opacity="1" fill-rule="nonzero"/><path fill="#3c5dd6" d="M 648.847656 764.535156 L 642.402344 768.277344 L 617.886719 754.128906 L 624.332031 750.382812 Z M 648.847656 764.535156 " fill-opacity="1" fill-rule="nonzero"/><path fill="#3c5dd6" d="M 664.898438 755.210938 L 658.519531 758.917969 L 634.003906 744.765625 L 640.378906 741.0625 Z M 664.898438 755.210938 " fill-opacity="1" fill-rule="nonzero"/></svg>