<svg xmlns="http://www.w3.org/2000/svg" xmlns:xlink="http://www.w3.org/1999/xlink" width="1080" zoomAndPan="magnify" viewBox="0 0 810 809.999993" height="1080" preserveAspectRatio="xMidYMid meet" version="1.0"><rect x="-81" width="972" fill="#ffffff" y="-80.999999" height="971.999992" fill-opacity="1"/><rect x="-81" width="972" fill="#ffffff" y="-80.999999" height="971.999992" fill-opacity="1"/><path fill="#d7d4fc" d="M 199.824219 135.617188 L 203.179688 135.617188 L 203.179688 586.214844 L 199.824219 586.214844 Z M 199.824219 135.617188 " fill-opacity="1" fill-rule="nonzero"/><path fill="#d7d4fc" d="M 274.222656 135.617188 L 277.578125 135.617188 L 277.578125 586.214844 L 274.222656 586.214844 Z M 274.222656 135.617188 " fill-opacity="1" fill-rule="nonzero"/><path fill="#d7d4fc" d="M 348.65625 135.617188 L 352.011719 135.617188 L 352.011719 586.214844 L 348.65625 586.214844 Z M 348.65625 135.617188 " fill-opacity="1" fill-rule="nonzero"/><path fill="#d7d4fc" d="M 423.089844 135.617188 L 426.445312 135.617188 L 426.445312 586.214844 L 423.089844 586.214844 Z M 423.089844 135.617188 " fill-opacity="1" fill-rule="nonzero"/><path fill="#d7d4fc" d="M 497.519531 135.617188 L 500.875 135.617188 L 500.875 586.214844 L 497.519531 586.214844 Z M 497.519531 135.617188 " fill-opacity="1" fill-rule="nonzero"/><path fill="#d7d4fc" d="M 571.953125 135.617188 L 575.308594 135.617188 L 575.308594 586.214844 L 571.953125 586.214844 Z M 571.953125 135.617188 " fill-opacity="1" fill-rule="nonzero"/><path fill="#d7d4fc" d="M 646.351562 135.617188 L 649.710938 135.617188 L 649.710938 586.214844 L 646.351562 586.214844 Z M 646.351562 135.617188 " fill-opacity="1" fill-rule="nonzero"/><path fill="#d7d4fc" d="M 720.785156 135.617188 L 724.140625 135.617188 L 724.140625 586.214844 L 720.785156 586.214844 Z M 720.785156 135.617188 " fill-opacity="1" fill-rule="nonzero"/><path fill="#d7d4fc" d="M 795.21875 135.617188 L 798.574219 135.617188 L 798.574219 586.214844 L 795.21875 586.214844 Z M 795.21875 135.617188 " fill-opacity="1" fill-rule="nonzero"/><path fill="#d7d4fc" d="M 202.644531 172.792969 L 870.152344 172.792969 L 870.152344 176.871094 L 202.644531 176.871094 Z M 202.644531 172.792969 " fill-opacity="1" fill-rule="nonzero"/><path fill="#d7d4fc" d="M 202.644531 247.238281 L 870.152344 247.238281 L 870.152344 251.316406 L 202.644531 251.316406 Z M 202.644531 247.238281 " fill-opacity="1" fill-rule="nonzero"/><path fill="#d7d4fc" d="M 202.644531 321.683594 L 870.152344 321.683594 L 870.152344 325.761719 L 202.644531 325.761719 Z M 202.644531 321.683594 " fill-opacity="1" fill-rule="nonzero"/><path fill="#d7d4fc" d="M 202.644531 396.097656 L 870.152344 396.097656 L 870.152344 400.175781 L 202.644531 400.175781 Z M 202.644531 396.097656 " fill-opacity="1" fill-rule="nonzero"/><path fill="#d7d4fc" d="M 202.644531 470.542969 L 870.152344 470.542969 L 870.152344 474.625 L 202.644531 474.625 Z M 202.644531 470.542969 " fill-opacity="1" fill-rule="nonzero"/><path fill="#d7d4fc" d="M 202.644531 544.992188 L 870.152344 544.992188 L 870.152344 549.070312 L 202.644531 549.070312 Z M 202.644531 544.992188 " fill-opacity="1" fill-rule="nonzero"/><path fill="#1a2b47" d="M 202.238281 475.972656 L 196.46875 470.199219 L 350.191406 316.476562 L 424.9375 391.238281 L 573.113281 243.003906 L 647.890625 317.796875 L 793.835938 171.789062 L 799.609375 177.5625 L 647.890625 329.308594 L 573.113281 254.550781 L 424.9375 402.75 L 350.191406 327.992188 Z M 202.238281 475.972656 " fill-opacity="1" fill-rule="nonzero"/><path fill="#6969e2" d="M 810.648438 172.007812 C 810.648438 172.792969 810.574219 173.566406 810.421875 174.335938 C 810.269531 175.101562 810.042969 175.847656 809.742188 176.570312 C 809.441406 177.292969 809.074219 177.980469 808.640625 178.632812 C 808.207031 179.285156 807.710938 179.886719 807.160156 180.4375 C 806.605469 180.992188 806.003906 181.488281 805.351562 181.921875 C 804.703125 182.355469 804.015625 182.722656 803.292969 183.023438 C 802.570312 183.324219 801.824219 183.550781 801.054688 183.703125 C 800.289062 183.855469 799.511719 183.929688 798.730469 183.929688 C 797.949219 183.929688 797.171875 183.855469 796.40625 183.703125 C 795.636719 183.550781 794.890625 183.324219 794.167969 183.023438 C 793.445312 182.722656 792.757812 182.355469 792.109375 181.921875 C 791.457031 181.488281 790.855469 180.992188 790.304688 180.4375 C 789.75 179.886719 789.253906 179.285156 788.820312 178.632812 C 788.386719 177.980469 788.019531 177.292969 787.71875 176.570312 C 787.417969 175.847656 787.191406 175.101562 787.039062 174.335938 C 786.886719 173.566406 786.8125 172.792969 786.8125 172.007812 C 786.8125 171.226562 786.886719 170.453125 787.039062 169.683594 C 787.191406 168.917969 787.417969 168.171875 787.71875 167.449219 C 788.019531 166.722656 788.386719 166.039062 788.820312 165.386719 C 789.253906 164.734375 789.75 164.132812 790.304688 163.578125 C 790.855469 163.027344 791.457031 162.53125 792.109375 162.097656 C 792.757812 161.664062 793.445312 161.296875 794.167969 160.996094 C 794.890625 160.695312 795.636719 160.46875 796.40625 160.316406 C 797.171875 160.164062 797.949219 160.089844 798.730469 160.089844 C 799.511719 160.089844 800.289062 160.164062 801.054688 160.316406 C 801.824219 160.46875 802.570312 160.695312 803.292969 160.996094 C 804.015625 161.296875 804.703125 161.664062 805.351562 162.097656 C 806.003906 162.53125 806.605469 163.027344 807.160156 163.578125 C 807.710938 164.132812 808.207031 164.734375 808.640625 165.386719 C 809.074219 166.039062 809.441406 166.722656 809.742188 167.449219 C 810.042969 168.171875 810.269531 168.917969 810.421875 169.683594 C 810.574219 170.453125 810.648438 171.226562 810.648438 172.007812 Z M 810.648438 172.007812 " fill-opacity="1" fill-rule="nonzero"/><path fill="#6969e2" d="M 661.785156 320.902344 C 661.785156 321.683594 661.710938 322.457031 661.554688 323.226562 C 661.402344 323.996094 661.179688 324.738281 660.878906 325.460938 C 660.578125 326.1875 660.210938 326.871094 659.777344 327.523438 C 659.34375 328.175781 658.847656 328.777344 658.292969 329.332031 C 657.742188 329.882812 657.140625 330.378906 656.488281 330.8125 C 655.835938 331.246094 655.152344 331.613281 654.425781 331.914062 C 653.703125 332.214844 652.960938 332.441406 652.191406 332.59375 C 651.425781 332.746094 650.648438 332.820312 649.867188 332.820312 C 649.082031 332.820312 648.308594 332.746094 647.542969 332.59375 C 646.773438 332.441406 646.027344 332.214844 645.304688 331.914062 C 644.582031 331.613281 643.894531 331.246094 643.246094 330.8125 C 642.59375 330.378906 641.992188 329.882812 641.4375 329.332031 C 640.886719 328.777344 640.390625 328.175781 639.957031 327.523438 C 639.519531 326.871094 639.152344 326.1875 638.855469 325.460938 C 638.554688 324.738281 638.328125 323.996094 638.175781 323.226562 C 638.023438 322.457031 637.945312 321.683594 637.949219 320.902344 C 637.945312 320.117188 638.023438 319.34375 638.175781 318.574219 C 638.328125 317.808594 638.554688 317.0625 638.855469 316.339844 C 639.152344 315.617188 639.519531 314.929688 639.957031 314.277344 C 640.390625 313.625 640.886719 313.023438 641.4375 312.472656 C 641.992188 311.917969 642.59375 311.421875 643.246094 310.988281 C 643.894531 310.554688 644.582031 310.1875 645.304688 309.886719 C 646.027344 309.585938 646.773438 309.359375 647.542969 309.207031 C 648.308594 309.054688 649.082031 308.980469 649.867188 308.980469 C 650.648438 308.980469 651.425781 309.054688 652.191406 309.207031 C 652.960938 309.359375 653.703125 309.585938 654.425781 309.886719 C 655.152344 310.1875 655.835938 310.554688 656.488281 310.988281 C 657.140625 311.421875 657.742188 311.917969 658.292969 312.472656 C 658.847656 313.023438 659.34375 313.625 659.777344 314.277344 C 660.210938 314.929688 660.578125 315.617188 660.878906 316.339844 C 661.179688 317.0625 661.402344 317.808594 661.554688 318.574219 C 661.710938 319.34375 661.785156 320.117188 661.785156 320.902344 Z M 661.785156 320.902344 " fill-opacity="1" fill-rule="nonzero"/><path fill="#6969e2" d="M 583.714844 249.4375 C 583.714844 250.21875 583.636719 250.992188 583.484375 251.761719 C 583.332031 252.527344 583.105469 253.273438 582.808594 253.996094 C 582.507812 254.722656 582.140625 255.40625 581.707031 256.058594 C 581.269531 256.710938 580.777344 257.3125 580.222656 257.867188 C 579.671875 258.417969 579.070312 258.914062 578.417969 259.347656 C 577.765625 259.78125 577.078125 260.148438 576.355469 260.449219 C 575.632812 260.75 574.886719 260.976562 574.121094 261.128906 C 573.351562 261.28125 572.578125 261.355469 571.796875 261.355469 C 571.011719 261.355469 570.238281 261.28125 569.46875 261.128906 C 568.703125 260.976562 567.957031 260.75 567.234375 260.449219 C 566.511719 260.148438 565.824219 259.78125 565.175781 259.347656 C 564.523438 258.914062 563.921875 258.417969 563.367188 257.863281 C 562.8125 257.3125 562.320312 256.710938 561.886719 256.058594 C 561.449219 255.40625 561.082031 254.722656 560.785156 253.996094 C 560.484375 253.273438 560.257812 252.527344 560.105469 251.761719 C 559.953125 250.992188 559.875 250.21875 559.875 249.4375 C 559.875 248.652344 559.953125 247.878906 560.105469 247.109375 C 560.257812 246.34375 560.484375 245.597656 560.785156 244.875 C 561.082031 244.148438 561.449219 243.464844 561.886719 242.8125 C 562.320312 242.160156 562.8125 241.558594 563.367188 241.003906 C 563.921875 240.453125 564.523438 239.957031 565.171875 239.523438 C 565.824219 239.089844 566.511719 238.722656 567.234375 238.421875 C 567.957031 238.121094 568.703125 237.894531 569.46875 237.742188 C 570.238281 237.589844 571.011719 237.515625 571.796875 237.515625 C 572.578125 237.515625 573.351562 237.589844 574.121094 237.742188 C 574.886719 237.894531 575.632812 238.121094 576.355469 238.421875 C 577.078125 238.722656 577.765625 239.089844 578.417969 239.523438 C 579.070312 239.957031 579.671875 240.453125 580.222656 241.007812 C 580.777344 241.558594 581.269531 242.160156 581.707031 242.8125 C 582.140625 243.464844 582.507812 244.148438 582.808594 244.875 C 583.105469 245.597656 583.332031 246.34375 583.484375 247.109375 C 583.636719 247.878906 583.714844 248.652344 583.714844 249.4375 Z M 583.714844 249.4375 " fill-opacity="1" fill-rule="nonzero"/><path fill="#1a2b47" d="M 362.113281 322.21875 C 362.113281 323 362.035156 323.777344 361.882812 324.542969 C 361.730469 325.3125 361.503906 326.058594 361.203125 326.78125 C 360.90625 327.503906 360.539062 328.191406 360.101562 328.839844 C 359.667969 329.492188 359.175781 330.09375 358.621094 330.648438 C 358.066406 331.203125 357.464844 331.695312 356.816406 332.128906 C 356.164062 332.566406 355.476562 332.933594 354.753906 333.230469 C 354.03125 333.53125 353.285156 333.757812 352.519531 333.910156 C 351.75 334.0625 350.976562 334.140625 350.191406 334.140625 C 349.410156 334.140625 348.636719 334.0625 347.867188 333.910156 C 347.101562 333.757812 346.355469 333.53125 345.632812 333.230469 C 344.910156 332.933594 344.222656 332.566406 343.570312 332.128906 C 342.921875 331.695312 342.316406 331.203125 341.765625 330.648438 C 341.210938 330.09375 340.71875 329.492188 340.28125 328.839844 C 339.847656 328.191406 339.480469 327.503906 339.179688 326.78125 C 338.882812 326.058594 338.65625 325.3125 338.503906 324.542969 C 338.351562 323.777344 338.273438 323 338.273438 322.21875 C 338.273438 321.4375 338.351562 320.660156 338.503906 319.894531 C 338.65625 319.125 338.882812 318.378906 339.179688 317.65625 C 339.480469 316.933594 339.847656 316.246094 340.28125 315.59375 C 340.71875 314.945312 341.210938 314.34375 341.765625 313.789062 C 342.316406 313.234375 342.921875 312.742188 343.570312 312.304688 C 344.222656 311.871094 344.910156 311.503906 345.632812 311.203125 C 346.355469 310.90625 347.101562 310.679688 347.867188 310.527344 C 348.636719 310.375 349.410156 310.296875 350.191406 310.296875 C 350.976562 310.296875 351.75 310.375 352.519531 310.527344 C 353.285156 310.679688 354.03125 310.90625 354.753906 311.203125 C 355.476562 311.503906 356.164062 311.871094 356.816406 312.304688 C 357.464844 312.742188 358.066406 313.234375 358.621094 313.789062 C 359.175781 314.34375 359.667969 314.945312 360.101562 315.59375 C 360.539062 316.246094 360.90625 316.933594 361.203125 317.65625 C 361.503906 318.378906 361.730469 319.125 361.882812 319.894531 C 362.035156 320.660156 362.113281 321.4375 362.113281 322.21875 Z M 362.113281 322.21875 " fill-opacity="1" fill-rule="nonzero"/><path fill="#1a2b47" d="M 436.859375 397.007812 C 436.859375 397.792969 436.78125 398.566406 436.628906 399.335938 C 436.476562 400.101562 436.25 400.847656 435.949219 401.570312 C 435.652344 402.292969 435.285156 402.980469 434.847656 403.632812 C 434.414062 404.28125 433.921875 404.886719 433.367188 405.4375 C 432.8125 405.992188 432.210938 406.488281 431.5625 406.921875 C 430.910156 407.355469 430.222656 407.722656 429.5 408.023438 C 428.777344 408.324219 428.03125 408.546875 427.265625 408.703125 C 426.496094 408.855469 425.722656 408.929688 424.9375 408.929688 C 424.15625 408.929688 423.382812 408.855469 422.613281 408.703125 C 421.847656 408.546875 421.101562 408.324219 420.378906 408.023438 C 419.65625 407.722656 418.96875 407.355469 418.316406 406.921875 C 417.667969 406.488281 417.0625 405.992188 416.511719 405.4375 C 415.957031 404.886719 415.464844 404.28125 415.027344 403.632812 C 414.59375 402.980469 414.226562 402.292969 413.925781 401.570312 C 413.628906 400.847656 413.402344 400.101562 413.25 399.335938 C 413.097656 398.566406 413.019531 397.792969 413.019531 397.007812 C 413.019531 396.226562 413.097656 395.449219 413.25 394.683594 C 413.402344 393.914062 413.628906 393.171875 413.925781 392.445312 C 414.226562 391.722656 414.59375 391.035156 415.027344 390.386719 C 415.464844 389.734375 415.957031 389.132812 416.511719 388.578125 C 417.0625 388.027344 417.667969 387.53125 418.316406 387.097656 C 418.96875 386.660156 419.65625 386.292969 420.378906 385.996094 C 421.101562 385.695312 421.847656 385.46875 422.613281 385.316406 C 423.382812 385.164062 424.15625 385.085938 424.9375 385.085938 C 425.722656 385.085938 426.496094 385.164062 427.265625 385.316406 C 428.03125 385.46875 428.777344 385.695312 429.5 385.996094 C 430.222656 386.292969 430.910156 386.660156 431.5625 387.097656 C 432.210938 387.53125 432.8125 388.027344 433.367188 388.578125 C 433.921875 389.132812 434.414062 389.734375 434.847656 390.386719 C 435.285156 391.035156 435.652344 391.722656 435.949219 392.445312 C 436.25 393.171875 436.476562 393.914062 436.628906 394.683594 C 436.78125 395.449219 436.859375 396.226562 436.859375 397.007812 Z M 436.859375 397.007812 " fill-opacity="1" fill-rule="nonzero"/><path fill="#e9a082" d="M 148.070312 418.75 C 148.070312 418.75 149.761719 425.433594 152.113281 436.097656 L 267.824219 366.921875 L 265.285156 404.191406 C 265.285156 404.191406 149.917969 508.535156 125.988281 501.445312 C 102.054688 494.386719 56.636719 399.175781 56.636719 399.175781 L 84.363281 361.683594 L 86.464844 335.707031 Z M 148.070312 418.75 " fill-opacity="1" fill-rule="nonzero"/><path fill="#e9a082" d="M 257.882812 373.199219 C 257.882812 373.199219 269.550781 363.753906 274.285156 363.160156 C 279.023438 362.5625 285.140625 362.375 290.316406 362.0625 C 295.523438 361.746094 299.628906 359.457031 299.789062 364.101562 C 299.914062 368.710938 286.800781 371.722656 286.800781 371.722656 C 286.800781 371.722656 294.234375 373.949219 304.117188 372.914062 C 313.996094 371.847656 325.476562 369.652344 325.726562 373.039062 C 325.945312 376.429688 325.226562 377.683594 325.226562 377.683594 C 325.226562 377.683594 329.554688 378.46875 329.773438 381.101562 C 329.992188 383.707031 325.976562 385.683594 325.976562 385.683594 C 325.976562 385.683594 327.203125 389.730469 325.976562 391.300781 C 324.753906 392.867188 310.390625 399.550781 299.378906 400.804688 C 299.378906 400.804688 318.921875 400.050781 318.828125 401.308594 C 318.734375 402.53125 314.9375 406.828125 300.195312 407.425781 C 285.484375 408.019531 262.460938 403.15625 262.460938 403.15625 Z M 257.882812 373.199219 " fill-opacity="1" fill-rule="nonzero"/><path fill="#1a2b47" d="M 290.847656 393.433594 C 290.535156 393.433594 290.285156 393.214844 290.253906 392.898438 C 290.21875 392.554688 290.441406 392.273438 290.785156 392.210938 C 290.878906 392.210938 301.890625 390.703125 309.855469 389.292969 C 317.792969 387.878906 325.695312 385.085938 325.789062 385.085938 C 326.105469 384.960938 326.449219 385.152344 326.574219 385.464844 C 326.699219 385.777344 326.511719 386.125 326.199219 386.25 C 326.105469 386.28125 318.105469 389.101562 310.074219 390.515625 C 302.078125 391.925781 291.066406 393.433594 290.941406 393.433594 C 290.910156 393.433594 290.878906 393.433594 290.847656 393.433594 Z M 290.847656 393.433594 " fill-opacity="1" fill-rule="nonzero"/><path fill="#1a2b47" d="M 290.660156 383.675781 C 290.347656 383.675781 290.09375 383.457031 290.0625 383.144531 C 290.03125 382.796875 290.253906 382.515625 290.597656 382.453125 C 305.839844 380.445312 324.941406 377.089844 325.132812 377.054688 C 325.476562 376.992188 325.789062 377.214844 325.851562 377.558594 C 325.914062 377.902344 325.695312 378.21875 325.351562 378.28125 C 325.164062 378.3125 306.0625 381.667969 290.785156 383.675781 C 290.722656 383.675781 290.691406 383.675781 290.660156 383.675781 Z M 290.660156 383.675781 " fill-opacity="1" fill-rule="nonzero"/><path fill="#6969e2" d="M 150.140625 417.746094 C 150.140625 417.746094 126.550781 431.863281 83.453125 449.589844 L 60.304688 417.933594 L 109.394531 314.40625 C 133.328125 347.285156 150.140625 417.746094 150.140625 417.746094 Z M 150.140625 417.746094 " fill-opacity="1" fill-rule="nonzero"/><path fill="#6969e2" d="M 150.140625 417.746094 L 153.496094 430.703125 L 220.367188 393.527344 C 220.367188 393.527344 243.046875 416.113281 242.792969 423.894531 C 242.542969 431.675781 150.890625 509.164062 130.128906 504.238281 C 109.363281 499.3125 112.34375 417.746094 112.34375 417.746094 Z M 150.140625 417.746094 " fill-opacity="1" fill-rule="nonzero"/><path fill="#1a2b47" d="M 516.371094 235.347656 C 473.652344 187.726562 400.472656 183.742188 352.859375 226.410156 C 307.972656 266.691406 301.824219 334.046875 337.050781 381.511719 C 339.183594 384.398438 341.503906 387.222656 343.917969 389.949219 C 348.46875 394.96875 353.296875 399.550781 358.441406 403.566406 C 401.789062 437.917969 464.835938 437.101562 507.433594 398.890625 C 555.046875 356.226562 559.0625 282.972656 516.371094 235.347656 Z M 499.652344 390.234375 C 461.761719 424.207031 405.835938 425.304688 366.847656 395.410156 C 361.765625 391.550781 357 387.125 352.578125 382.203125 C 350.222656 379.597656 348.027344 376.867188 345.957031 374.078125 C 314.71875 331.378906 320.363281 271.144531 360.574219 235.097656 C 403.453125 196.667969 469.289062 200.277344 507.683594 243.128906 C 546.105469 285.953125 542.5 351.832031 499.652344 390.234375 Z M 499.652344 390.234375 " fill-opacity="1" fill-rule="nonzero"/><path fill="#d7d4fc" d="M 499.652344 390.234375 C 456.808594 428.632812 390.96875 425.054688 352.578125 382.203125 C 314.152344 339.347656 317.761719 273.464844 360.605469 235.097656 C 403.453125 196.667969 469.320312 200.277344 507.714844 243.128906 C 546.105469 285.953125 542.5 351.800781 499.652344 390.234375 Z M 499.652344 390.234375 " fill-opacity="1" fill-rule="nonzero"/><path fill="#ef5e7a" d="M 492.628906 382.390625 C 454.140625 416.929688 394.921875 413.667969 360.417969 375.175781 C 325.882812 336.648438 329.113281 277.449219 367.632812 242.941406 C 406.152344 208.402344 465.339844 211.632812 499.839844 250.15625 C 534.375 288.652344 531.144531 347.847656 492.628906 382.390625 Z M 492.628906 382.390625 " fill-opacity="1" fill-rule="nonzero"/><path fill="#1a2b47" d="M 366.847656 395.410156 L 358.410156 403.566406 L 198.441406 577.835938 C 189.691406 586.023438 175.953125 585.460938 167.953125 576.519531 C 159.957031 567.609375 160.867188 553.867188 169.960938 546.089844 L 337.050781 381.511719 L 345.957031 374.078125 C 348.027344 376.867188 350.222656 379.597656 352.578125 382.203125 C 357 387.128906 361.796875 391.550781 366.847656 395.410156 Z M 366.847656 395.410156 " fill-opacity="1" fill-rule="nonzero"/><path fill="#e9a082" d="M 96.660156 333.542969 C 96.503906 333.167969 61.496094 371.347656 38.191406 364.101562 C 12.128906 355.941406 -2.488281 299.160156 -2.488281 299.160156 L 3.09375 250.125 L 3.125 249.246094 L 3.15625 246.078125 L 8.300781 247.867188 L 28.75 254.988281 L 36.96875 257.875 L 57.953125 265.183594 C 57.953125 265.183594 57.578125 283.378906 60.304688 294.484375 C 60.621094 295.644531 63.222656 312.085938 63.222656 312.085938 C 68.617188 323.003906 96.472656 333.542969 96.660156 333.542969 Z M 96.660156 333.542969 " fill-opacity="1" fill-rule="nonzero"/><path fill="#e9a082" d="M -0.136719 298 L -14 301.480469 L -14.410156 340.726562 L 22.007812 373.699219 L 51.648438 372.601562 L 62.0625 338.40625 C 62.0625 338.40625 51.367188 321.246094 48.386719 319.519531 C 45.34375 317.828125 -0.136719 298 -0.136719 298 Z M -0.136719 298 " fill-opacity="1" fill-rule="nonzero"/><path fill="#e9a082" d="M 82.828125 232.871094 C 80.410156 259.945312 73.417969 287.742188 47.414062 287.269531 C 29.253906 286.957031 8.738281 264.558594 1.839844 242.441406 C -1.707031 231.019531 -4.96875 221.074219 -5.941406 213.390625 C -6.722656 207.304688 -6.945312 203.476562 -6.945312 203.476562 L -4.339844 189.671875 L -2.804688 181.578125 C -2.804688 181.578125 2.308594 176.152344 7.988281 170.097656 C 15.074219 162.472656 28.625 170.285156 28.8125 169.78125 C 29.035156 169.0625 64.132812 159.210938 77.335938 172.007812 C 77.402344 172.042969 77.402344 172.074219 77.402344 172.105469 C 78.59375 173.265625 79.566406 174.488281 80.253906 175.773438 C 80.820312 176.839844 81.195312 177.9375 81.351562 179.101562 C 81.636719 181.296875 82.011719 184.621094 82.417969 188.824219 C 82.542969 190.582031 82.765625 192.496094 82.890625 194.535156 C 83.140625 197.984375 83.359375 201.75 83.515625 205.734375 C 83.738281 214.109375 83.671875 223.492188 82.828125 232.871094 Z M 82.828125 232.871094 " fill-opacity="1" fill-rule="nonzero"/><path fill="#1a2b47" d="M 81.382812 245.355469 C 79.15625 270.109375 70.96875 286.453125 47.164062 287.300781 C 24.390625 288.148438 9.304688 265.75 3 245.515625 C 4.222656 240.367188 4.566406 227.976562 4.566406 227.976562 C 4.566406 227.976562 9.117188 218.25 9.085938 218.597656 C 8.832031 222.425781 12.535156 247.710938 23.890625 249.4375 C 36.214844 251.285156 40.859375 253.765625 45.375 253.042969 C 49.890625 252.351562 51.019531 250.597656 55.128906 251.066406 C 59.269531 251.507812 62.28125 253.230469 67.550781 251.601562 C 72.476562 250.0625 78.5625 252.886719 81.382812 245.355469 Z M 81.382812 245.355469 " fill-opacity="1" fill-rule="nonzero"/><path fill="#1a2b47" d="M -7.195312 213.265625 C -7.195312 213.265625 -19.269531 156.261719 14.261719 151.710938 C 14.261719 151.710938 38.695312 135.964844 69.871094 148.699219 C 90.355469 157.078125 86.589844 180.980469 85.773438 189.171875 C 85.242188 194.316406 83.800781 198.738281 83.109375 198.550781 C 81.164062 198.046875 80.285156 193.089844 73.792969 195.539062 C 47.351562 205.484375 27.433594 187.351562 20.40625 192.839844 C 13.382812 198.332031 3 245.515625 3 245.515625 C 3 245.515625 -1.296875 224.464844 -7.195312 213.265625 Z M -7.195312 213.265625 " fill-opacity="1" fill-rule="nonzero"/><path fill="#e9a082" d="M 0.113281 217.375 C 0.113281 217.375 -16.480469 208.558594 -14.535156 224.308594 C -12.589844 240.054688 3 245.546875 3 245.546875 Z M 0.113281 217.375 " fill-opacity="1" fill-rule="nonzero"/><path fill="#1a2b47" d="M 68.527344 223.453125 C 68.855469 223.5 69.15625 223.652344 69.429688 223.914062 C 69.703125 224.171875 69.925781 224.519531 70.101562 224.953125 C 70.277344 225.386719 70.390625 225.871094 70.441406 226.410156 C 70.488281 226.949219 70.472656 227.5 70.390625 228.066406 C 70.308594 228.628906 70.167969 229.164062 69.964844 229.664062 C 69.765625 230.167969 69.519531 230.601562 69.226562 230.96875 C 68.9375 231.332031 68.625 231.601562 68.289062 231.773438 C 67.953125 231.945312 67.621094 232.003906 67.289062 231.957031 C 66.960938 231.910156 66.660156 231.753906 66.386719 231.496094 C 66.113281 231.234375 65.890625 230.890625 65.714844 230.457031 C 65.539062 230.023438 65.429688 229.539062 65.378906 229 C 65.328125 228.457031 65.34375 227.90625 65.425781 227.34375 C 65.507812 226.777344 65.648438 226.246094 65.851562 225.742188 C 66.054688 225.242188 66.300781 224.804688 66.589844 224.441406 C 66.882812 224.078125 67.195312 223.808594 67.53125 223.636719 C 67.867188 223.464844 68.199219 223.402344 68.527344 223.453125 Z M 68.527344 223.453125 " fill-opacity="1" fill-rule="nonzero"/><path fill="#1a2b47" d="M 38.902344 222.628906 C 39.230469 222.675781 39.53125 222.828125 39.804688 223.089844 C 40.078125 223.351562 40.300781 223.695312 40.476562 224.128906 C 40.652344 224.5625 40.761719 225.046875 40.8125 225.585938 C 40.863281 226.125 40.847656 226.679688 40.765625 227.242188 C 40.683594 227.804688 40.542969 228.339844 40.339844 228.84375 C 40.136719 229.34375 39.890625 229.777344 39.601562 230.144531 C 39.308594 230.507812 38.996094 230.777344 38.660156 230.949219 C 38.324219 231.121094 37.992188 231.183594 37.664062 231.132812 C 37.335938 231.085938 37.035156 230.933594 36.761719 230.671875 C 36.488281 230.414062 36.265625 230.066406 36.089844 229.632812 C 35.914062 229.199219 35.800781 228.714844 35.753906 228.175781 C 35.703125 227.636719 35.71875 227.082031 35.800781 226.519531 C 35.882812 225.957031 36.023438 225.421875 36.226562 224.917969 C 36.425781 224.417969 36.671875 223.984375 36.964844 223.617188 C 37.253906 223.253906 37.570312 222.984375 37.902344 222.8125 C 38.238281 222.640625 38.574219 222.578125 38.902344 222.628906 Z M 38.902344 222.628906 " fill-opacity="1" fill-rule="nonzero"/><path fill="#1a2b47" d="M 63.222656 220.039062 C 63.222656 220.039062 70.09375 214.140625 76.523438 216.964844 Z M 63.222656 220.039062 " fill-opacity="1" fill-rule="nonzero"/><path fill="#1a2b47" d="M 27.433594 216.308594 C 28 216.179688 37.15625 213.921875 43.117188 219.507812 Z M 27.433594 216.308594 " fill-opacity="1" fill-rule="nonzero"/><path fill="#1a2b47" d="M 54.878906 248.023438 C 54.0625 248.023438 53.058594 247.898438 51.898438 247.648438 C 51.335938 247.523438 50.988281 246.957031 51.117188 246.390625 C 51.242188 245.828125 51.804688 245.484375 52.371094 245.640625 C 55.066406 246.265625 56.855469 246.015625 57.261719 244.917969 C 57.734375 243.695312 56.699219 241.5625 55.253906 240.714844 C 51.523438 238.613281 52.621094 231.554688 52.746094 230.738281 C 52.839844 230.171875 53.40625 229.796875 53.9375 229.890625 C 54.503906 229.984375 54.878906 230.519531 54.785156 231.082031 C 54.503906 232.746094 54.15625 237.734375 56.257812 238.894531 C 58.390625 240.117188 60.117188 243.253906 59.175781 245.640625 C 58.800781 246.644531 57.734375 248.023438 54.878906 248.023438 Z M 54.878906 248.023438 " fill-opacity="1" fill-rule="nonzero"/><path fill="#d7d4fc" d="M 62.46875 263.679688 C 62.46875 263.679688 62.15625 264.367188 61.433594 265.277344 C 60.148438 266.941406 57.484375 269.324219 52.996094 269.386719 C 48.574219 269.449219 45.46875 267.003906 43.777344 265.246094 C 42.835938 264.242188 42.363281 263.488281 42.363281 263.488281 " fill-opacity="1" fill-rule="nonzero"/><path fill="#ef5e7a" d="M -47.25 832.292969 C -46.308594 829.535156 -46.839844 767.855469 -49.445312 730.335938 C -53.710938 668.660156 -37.746094 585.554688 -37.746094 585.554688 L 18.242188 581.882812 L 133.953125 577.492188 C 138.03125 632.015625 191.574219 746.933594 195.808594 822.253906 C 196.78125 839.511719 180 1067.554688 180 1067.554688 C 180 1067.554688 117.988281 1078.46875 101.898438 1064.886719 C 101.898438 1064.886719 97.539062 849.078125 96.472656 834.554688 C 95.40625 820.027344 63.472656 727.074219 63.472656 727.074219 C 63.472656 727.074219 54.878906 859.683594 36.40625 890.425781 C 18.117188 920.828125 -138.210938 914.867188 -138.210938 914.867188 C -147.527344 874.929688 -137.175781 844.121094 -137.175781 844.121094 C -137.175781 844.121094 -48.191406 835.054688 -47.25 832.292969 Z M -47.25 832.292969 " fill-opacity="1" fill-rule="nonzero"/><path fill="#1a2b47" d="M 62.816406 727.984375 C 62.816406 727.984375 62.785156 727.984375 62.816406 727.984375 C 62.5625 727.953125 62.375 727.761719 62.375 727.511719 L 66.703125 663.546875 C 66.734375 663.292969 66.925781 663.136719 67.175781 663.136719 C 67.425781 663.136719 67.582031 663.355469 67.582031 663.609375 L 63.253906 727.574219 C 63.222656 727.792969 63.035156 727.984375 62.816406 727.984375 Z M 62.816406 727.984375 " fill-opacity="1" fill-rule="nonzero"/><path fill="#1a2b47" d="M 66.296875 682.367188 C 66.203125 682.367188 66.078125 682.335938 66.015625 682.242188 C 65.828125 682.085938 65.828125 681.804688 65.984375 681.648438 C 66.109375 681.519531 77.527344 669.128906 83.078125 664.550781 C 83.265625 664.390625 83.515625 664.421875 83.671875 664.613281 C 83.832031 664.800781 83.800781 665.050781 83.609375 665.207031 C 78.089844 669.757812 66.703125 682.117188 66.578125 682.242188 C 66.515625 682.304688 66.390625 682.367188 66.296875 682.367188 Z M 66.296875 682.367188 " fill-opacity="1" fill-rule="nonzero"/><path fill="#6969e2" d="M -45.710938 495.640625 C -37.527344 539.40625 -38.90625 589.539062 -38.90625 589.539062 C -38.90625 589.539062 89.476562 601.585938 133.984375 577.492188 C 133.984375 577.492188 124.984375 478.042969 124.449219 376.742188 C 124.230469 334.140625 112.71875 316.164062 107.917969 313.121094 C 97.066406 305.152344 73.636719 298.59375 62.0625 299.660156 C 62.0625 299.660156 58.675781 318.832031 48.605469 316.726562 C 37.472656 314.40625 -2.992188 295.394531 -2.992188 295.394531 C -83.980469 318.832031 -53.898438 424.867188 -45.710938 495.640625 Z M -45.710938 495.640625 " fill-opacity="1" fill-rule="nonzero"/><path fill="#1a2b47" d="M 130 503.265625 C 129.625 503.265625 129.3125 502.984375 129.3125 502.605469 C 125.703125 453.382812 123.917969 413.417969 123.726562 376.773438 C 123.726562 374.203125 123.664062 371.660156 123.570312 369.183594 C 123.570312 368.804688 123.855469 368.460938 124.261719 368.460938 C 124.261719 368.460938 124.292969 368.460938 124.292969 368.460938 C 124.667969 368.460938 124.984375 368.773438 125.015625 369.152344 C 125.109375 371.628906 125.171875 374.203125 125.171875 376.804688 C 125.359375 413.417969 127.148438 453.382812 130.753906 502.542969 C 130.785156 502.921875 130.503906 503.265625 130.097656 503.296875 C 130.0625 503.265625 130.03125 503.265625 130 503.265625 Z M 130 503.265625 " fill-opacity="1" fill-rule="nonzero"/><path fill="#d7d4fc" d="M 66.390625 322.0625 L 66.390625 327.425781 C 66.390625 327.425781 85.085938 359.457031 92.425781 395.03125 C 99.734375 430.609375 109.175781 543.609375 110.742188 571.0625 L 98.980469 585.710938 L 85.648438 564.785156 C 85.648438 564.785156 80.410156 412.035156 75.457031 389.292969 C 70.5 366.546875 55.191406 331.628906 55.191406 331.628906 L 51.019531 327.050781 L 56.636719 305.339844 L 62.53125 310.578125 Z M 66.390625 322.0625 " fill-opacity="1" fill-rule="nonzero"/><path fill="#e9a082" d="M 12.660156 379.03125 C 12.660156 379.03125 27.371094 511.734375 29.910156 514.277344 C 32.453125 516.820312 99.765625 524.914062 166.792969 513.210938 L 167.078125 551.234375 C 167.078125 551.234375 28.972656 588.410156 -2.710938 562.902344 C -34.421875 537.398438 -46.464844 459.628906 -49.820312 421.792969 C -53.175781 383.957031 -38.71875 398.296875 -22.59375 387.785156 C -6.472656 377.277344 12.660156 379.03125 12.660156 379.03125 Z M 12.660156 379.03125 " fill-opacity="1" fill-rule="nonzero"/><path fill="#e9a082" d="M 166.792969 513.210938 C 166.792969 513.210938 175.105469 509.539062 183.324219 504.300781 C 191.542969 499.0625 216.699219 498.246094 226.234375 491.53125 C 226.234375 491.53125 226.515625 502.511719 218.988281 507.5 C 211.460938 512.488281 206.910156 514.308594 213.59375 517.757812 C 220.273438 521.210938 226.421875 525.289062 233.542969 531.8125 C 240.660156 538.339844 250.886719 543.015625 255.371094 541.917969 C 255.371094 541.917969 263.9375 542.386719 264.1875 544.269531 C 264.4375 546.152344 254.433594 552.925781 247.875 551.734375 C 241.320312 550.542969 237.148438 548.566406 237.148438 548.566406 C 237.148438 548.566406 234.546875 554.621094 226.140625 551.734375 C 226.140625 551.734375 223.976562 558.136719 216.414062 554.714844 C 216.414062 554.714844 215.507812 561.304688 207.289062 559.109375 C 199.070312 556.910156 193.425781 553.554688 186.304688 554.464844 C 179.183594 555.375 167.046875 551.734375 167.046875 551.734375 C 164.785156 549.789062 166.792969 513.210938 166.792969 513.210938 Z M 166.792969 513.210938 " fill-opacity="1" fill-rule="nonzero"/><path fill="#1a2b47" d="M 237.148438 549.539062 C 237.054688 549.539062 236.960938 549.539062 236.898438 549.507812 C 236.523438 549.414062 227.457031 546.933594 222.34375 543.078125 C 221.90625 542.730469 221.8125 542.105469 222.15625 541.664062 C 222.5 541.226562 223.128906 541.132812 223.566406 541.476562 C 228.335938 545.117188 237.335938 547.5625 237.398438 547.5625 C 237.933594 547.71875 238.246094 548.253906 238.121094 548.785156 C 237.996094 549.257812 237.589844 549.539062 237.148438 549.539062 Z M 237.148438 549.539062 " fill-opacity="1" fill-rule="nonzero"/><path fill="#1a2b47" d="M 226.140625 552.707031 C 226.046875 552.707031 225.984375 552.707031 225.886719 552.675781 C 225.636719 552.613281 219.550781 551.046875 216.667969 548.347656 C 216.257812 547.972656 216.226562 547.34375 216.605469 546.9375 C 216.980469 546.527344 217.609375 546.496094 218.015625 546.871094 C 220.523438 549.226562 226.296875 550.730469 226.359375 550.730469 C 226.890625 550.855469 227.207031 551.421875 227.082031 551.953125 C 227.019531 552.425781 226.609375 552.707031 226.140625 552.707031 Z M 226.140625 552.707031 " fill-opacity="1" fill-rule="nonzero"/><path fill="#1a2b47" d="M 216.445312 555.6875 C 216.382812 555.6875 216.351562 555.6875 216.289062 555.6875 C 216.070312 555.65625 210.613281 554.808594 205.15625 551.390625 C 204.683594 551.109375 204.558594 550.480469 204.839844 550.011719 C 205.125 549.539062 205.75 549.414062 206.222656 549.695312 C 211.304688 552.863281 216.511719 553.679688 216.574219 553.710938 C 217.105469 553.804688 217.480469 554.308594 217.417969 554.839844 C 217.355469 555.34375 216.917969 555.6875 216.445312 555.6875 Z M 216.445312 555.6875 " fill-opacity="1" fill-rule="nonzero"/><path fill="#6969e2" d="M 22.605469 442.46875 C 22.605469 442.46875 30.507812 509.539062 31.261719 510.796875 C 32.011719 512.050781 98.351562 519.515625 137.277344 516.035156 C 137.277344 516.035156 147.660156 534.386719 142.265625 559.515625 C 142.265625 559.515625 33.488281 587.875 -6.914062 563.9375 C -47.3125 540.003906 -52.800781 382.011719 -52.800781 382.011719 L 13.570312 377.558594 Z M 22.605469 442.46875 " fill-opacity="1" fill-rule="nonzero"/><path fill="#1a2b47" d="M 42.394531 574.167969 C 22.886719 574.167969 4.757812 571.65625 -7.257812 564.535156 C -22.25 555.65625 -34.167969 527.925781 -42.667969 482.089844 C -42.730469 481.714844 -42.480469 481.335938 -42.105469 481.273438 C -41.730469 481.210938 -41.351562 481.460938 -41.289062 481.839844 C -32.851562 527.234375 -21.152344 554.652344 -6.535156 563.3125 C 33.175781 586.839844 141.011719 559.109375 142.109375 558.824219 C 142.484375 558.730469 142.863281 558.949219 142.957031 559.328125 C 143.050781 559.703125 142.832031 560.082031 142.453125 560.175781 C 141.703125 560.394531 88.191406 574.167969 42.394531 574.167969 Z M 42.394531 574.167969 " fill-opacity="1" fill-rule="nonzero"/><path fill="#1a2b47" d="M 113.816406 517.601562 C 77.433594 517.601562 31.761719 512.960938 30.664062 511.140625 C 29.910156 509.855469 23.765625 458.308594 21.914062 442.53125 C 21.882812 442.152344 22.132812 441.777344 22.539062 441.746094 C 22.917969 441.714844 23.292969 441.964844 23.324219 442.371094 C 26.367188 468.128906 31.074219 506.714844 31.886719 510.292969 C 36.53125 511.800781 99.480469 518.699219 137.246094 515.3125 C 137.65625 515.28125 137.96875 515.5625 138 515.941406 C 138.03125 516.316406 137.75 516.660156 137.371094 516.691406 C 130.503906 517.351562 122.410156 517.601562 113.816406 517.601562 Z M 113.816406 517.601562 " fill-opacity="1" fill-rule="nonzero"/><path fill="#6969e2" d="M 53.84375 303.488281 C 53.84375 303.488281 42.488281 296.683594 32.671875 291.851562 C 22.855469 287.019531 -1.140625 280.492188 -1.140625 280.492188 L -13.089844 299.003906 C -13.089844 299.003906 24.578125 309.449219 35.964844 317.417969 C 47.351562 325.386719 52.558594 331.597656 52.558594 331.597656 L 56.605469 305.308594 Z M 53.84375 303.488281 " fill-opacity="1" fill-rule="nonzero"/><path fill="#1a2b47" d="M 52.527344 332.320312 C 52.308594 332.320312 52.121094 332.226562 51.992188 332.070312 C 51.929688 332.007812 46.691406 325.828125 35.527344 318.015625 C 24.390625 310.203125 -12.933594 299.789062 -13.3125 299.695312 C -13.6875 299.597656 -13.90625 299.191406 -13.8125 298.816406 C -13.71875 298.4375 -13.34375 298.21875 -12.933594 298.3125 C -11.398438 298.753906 24.988281 308.886719 36.34375 316.824219 C 44.96875 322.878906 50.050781 327.867188 52.054688 330 L 55.882812 305.183594 C 55.945312 304.808594 56.324219 304.523438 56.699219 304.585938 C 57.074219 304.648438 57.355469 304.996094 57.292969 305.402344 L 53.25 331.691406 C 53.21875 331.976562 52.996094 332.195312 52.746094 332.257812 C 52.652344 332.289062 52.589844 332.320312 52.527344 332.320312 Z M 52.527344 332.320312 " fill-opacity="1" fill-rule="nonzero"/><path fill="#6969e2" d="M 56.574219 305.308594 C 56.574219 305.308594 59.960938 294.546875 59.300781 289.214844 L 68.085938 299.726562 L 66.359375 322.0625 Z M 56.574219 305.308594 " fill-opacity="1" fill-rule="nonzero"/><path fill="#1a2b47" d="M 66.390625 322.75 C 66.140625 322.75 65.921875 322.625 65.792969 322.40625 L 55.976562 305.652344 C 55.789062 305.308594 55.882812 304.871094 56.226562 304.679688 C 56.574219 304.492188 57.011719 304.585938 57.199219 304.933594 L 65.859375 319.707031 L 67.394531 299.628906 C 67.425781 299.253906 67.769531 298.941406 68.148438 298.972656 C 68.523438 299.003906 68.835938 299.347656 68.804688 299.726562 L 67.082031 322.0625 C 67.050781 322.375 66.828125 322.625 66.546875 322.6875 C 66.484375 322.75 66.453125 322.75 66.390625 322.75 Z M 66.390625 322.75 " fill-opacity="1" fill-rule="nonzero"/><path fill="#1a2b47" d="M 11.0625 520.738281 C 10.871094 520.738281 10.683594 520.644531 10.527344 520.488281 C 10.277344 520.207031 10.308594 519.734375 10.589844 519.484375 C 17.144531 513.710938 30.539062 510.230469 31.105469 510.105469 C 31.480469 510.011719 31.855469 510.230469 31.949219 510.605469 C 32.042969 510.984375 31.824219 511.359375 31.449219 511.453125 C 31.324219 511.484375 17.804688 514.96875 11.53125 520.519531 C 11.40625 520.675781 11.25 520.738281 11.0625 520.738281 Z M 11.0625 520.738281 " fill-opacity="1" fill-rule="nonzero"/><path fill="#d7d4fc" d="M 388.710938 322.53125 L 381.371094 322.53125 L 381.371094 339.976562 L 369.546875 339.976562 L 369.546875 291.410156 L 388.710938 291.410156 C 400.597656 291.410156 406.558594 298.125 406.558594 307.035156 C 406.558594 315.066406 401.101562 322.53125 388.710938 322.53125 Z M 387.800781 313.121094 C 392.507812 313.121094 394.511719 310.769531 394.511719 307.035156 C 394.511719 303.300781 392.507812 300.949219 387.800781 300.949219 L 381.371094 300.949219 L 381.371094 313.121094 Z M 387.800781 313.121094 " fill-opacity="1" fill-rule="nonzero"/><path fill="#d7d4fc" d="M 431.871094 322.53125 L 424.53125 322.53125 L 424.53125 339.976562 L 412.707031 339.976562 L 412.707031 291.410156 L 431.871094 291.410156 C 443.757812 291.410156 449.71875 298.125 449.71875 307.035156 C 449.71875 315.066406 444.261719 322.53125 431.871094 322.53125 Z M 430.960938 313.121094 C 435.667969 313.121094 437.671875 310.769531 437.671875 307.035156 C 437.671875 303.300781 435.667969 300.949219 430.960938 300.949219 L 424.53125 300.949219 L 424.53125 313.121094 Z M 430.960938 313.121094 " fill-opacity="1" fill-rule="nonzero"/><path fill="#d7d4fc" d="M 478.292969 290.847656 C 489.835938 290.847656 498.554688 297.339844 501.316406 307.851562 L 488.296875 307.851562 C 486.292969 303.707031 482.621094 301.636719 478.136719 301.636719 C 470.859375 301.636719 465.902344 307.035156 465.902344 315.597656 C 465.902344 324.164062 470.890625 329.558594 478.136719 329.558594 C 482.621094 329.558594 486.292969 327.488281 488.296875 323.347656 L 501.316406 323.347656 C 498.554688 333.859375 489.835938 340.289062 478.292969 340.289062 C 463.988281 340.289062 453.890625 330.125 453.890625 315.597656 C 453.859375 301.074219 463.957031 290.847656 478.292969 290.847656 Z M 478.292969 290.847656 " fill-opacity="1" fill-rule="nonzero"/><path fill="#ef5e7a" d="M 774.515625 450.308594 L 654.664062 450.308594 C 636.847656 450.308594 622.421875 435.878906 622.421875 418.058594 C 622.421875 400.242188 636.847656 385.808594 654.664062 385.808594 L 774.515625 385.808594 C 792.332031 385.808594 806.761719 400.242188 806.761719 418.058594 C 806.761719 435.878906 792.332031 450.308594 774.515625 450.308594 Z M 774.515625 450.308594 " fill-opacity="1" fill-rule="nonzero"/><path fill="#1a2b47" d="M 661.691406 426.058594 L 650.273438 426.058594 L 648.328125 431.644531 L 643.65625 431.644531 L 653.410156 404.351562 L 658.585938 404.351562 L 668.339844 431.644531 L 663.636719 431.644531 Z M 656.015625 409.714844 L 651.527344 422.390625 L 660.4375 422.390625 Z M 656.015625 409.714844 " fill-opacity="1" fill-rule="nonzero"/><path fill="#1a2b47" d="M 695.976562 418.089844 C 695.976562 426.5 690.234375 431.613281 681.515625 431.613281 L 672.605469 431.613281 L 672.605469 404.351562 L 681.515625 404.351562 C 690.265625 404.351562 695.976562 409.652344 695.976562 418.089844 Z M 681.515625 427.972656 C 687.945312 427.972656 691.394531 424.269531 691.394531 418.089844 C 691.394531 411.847656 687.945312 408.019531 681.515625 408.019531 L 677.09375 408.019531 L 677.09375 427.972656 Z M 681.515625 427.972656 " fill-opacity="1" fill-rule="nonzero"/><path fill="#1a2b47" d="M 709.398438 431.894531 C 703.941406 431.894531 699.738281 428.914062 699.738281 424.082031 L 704.539062 424.082031 C 704.726562 426.308594 706.292969 428.128906 709.398438 428.128906 C 712.535156 428.128906 714.292969 426.4375 714.292969 424.113281 C 714.292969 417.527344 699.832031 421.792969 699.832031 411.753906 C 699.832031 406.953125 703.628906 403.972656 709.210938 403.972656 C 714.417969 403.972656 718.121094 406.734375 718.496094 411.378906 L 713.539062 411.378906 C 713.382812 409.527344 711.785156 407.832031 708.960938 407.769531 C 706.355469 407.707031 704.382812 408.960938 704.382812 411.566406 C 704.382812 417.714844 718.808594 413.886719 718.808594 423.832031 C 718.808594 427.972656 715.453125 431.894531 709.398438 431.894531 Z M 709.398438 431.894531 " fill-opacity="1" fill-rule="nonzero"/><path fill="#d7d4fc" d="M 795.9375 458.058594 L 766.832031 423.550781 L 737.722656 458.058594 L 749.453125 458.058594 L 749.453125 488.269531 L 784.207031 488.269531 L 784.207031 458.058594 Z M 795.9375 458.058594 " fill-opacity="1" fill-rule="nonzero"/><path fill="#1a2b47" d="M 786.246094 490.308594 L 747.445312 490.308594 L 747.445312 460.097656 L 733.363281 460.097656 L 766.832031 420.382812 L 800.300781 460.097656 L 786.246094 460.097656 Z M 751.492188 486.230469 L 782.136719 486.230469 L 782.136719 456.019531 L 791.515625 456.019531 L 766.800781 426.6875 L 742.082031 456.019531 L 751.460938 456.019531 L 751.460938 486.230469 Z M 751.492188 486.230469 " fill-opacity="1" fill-rule="nonzero"/><path fill="#d7d4fc" d="M 736.46875 423.199219 L 736.984375 419.660156 L 754.363281 422.191406 L 753.851562 425.730469 Z M 736.46875 423.199219 " fill-opacity="1" fill-rule="nonzero"/><path fill="#d7d4fc" d="M 750.332031 403.042969 L 753.414062 401.226562 L 761.136719 414.335938 L 758.054688 416.152344 Z M 750.332031 403.042969 " fill-opacity="1" fill-rule="nonzero"/><path fill="#d7d4fc" d="M 772.582031 414.558594 L 779.609375 400.117188 L 782.828125 401.683594 L 775.796875 416.125 Z M 772.582031 414.558594 " fill-opacity="1" fill-rule="nonzero"/><path fill="#d7d4fc" d="M 778.085938 422.285156 L 794.199219 419.761719 L 794.75 423.292969 L 778.636719 425.816406 Z M 778.085938 422.285156 " fill-opacity="1" fill-rule="nonzero"/><path fill="#6969e2" d="M 336.078125 196.039062 L 173.507812 196.039062 C 165.320312 196.039062 158.703125 189.421875 158.703125 181.234375 L 158.703125 18.632812 C 158.703125 10.445312 165.320312 3.824219 173.507812 3.824219 L 336.078125 3.824219 C 344.265625 3.824219 350.882812 10.445312 350.882812 18.632812 L 350.882812 181.234375 C 350.882812 189.390625 344.265625 196.039062 336.078125 196.039062 Z M 336.078125 196.039062 " fill-opacity="1" fill-rule="nonzero"/><path fill="#d7d4fc" d="M 304.554688 103.714844 C 304.554688 133.328125 280.558594 157.328125 250.949219 157.328125 C 221.371094 157.328125 197.375 133.328125 197.375 103.714844 C 197.375 74.128906 221.371094 50.128906 250.949219 50.128906 L 250.949219 103.714844 Z M 304.554688 103.714844 " fill-opacity="1" fill-rule="nonzero"/><path fill="#1a2b47" d="M 312.175781 96.089844 L 258.570312 96.089844 L 258.570312 42.507812 C 288.214844 42.507812 312.175781 66.503906 312.175781 96.089844 Z M 312.175781 96.089844 " fill-opacity="1" fill-rule="nonzero"/><path fill="#ef5e7a" d="M 773.355469 671.734375 C 773.355469 673.136719 773.285156 674.535156 773.148438 675.933594 C 773.011719 677.332031 772.804688 678.71875 772.53125 680.09375 C 772.257812 681.46875 771.917969 682.828125 771.511719 684.171875 C 771.101562 685.515625 770.632812 686.835938 770.09375 688.132812 C 769.558594 689.429688 768.957031 690.695312 768.296875 691.933594 C 767.632812 693.171875 766.914062 694.375 766.132812 695.542969 C 765.355469 696.707031 764.519531 697.835938 763.628906 698.917969 C 762.738281 700.003906 761.796875 701.042969 760.804688 702.035156 C 759.8125 703.027344 758.777344 703.96875 757.691406 704.859375 C 756.605469 705.75 755.480469 706.585938 754.3125 707.363281 C 753.148438 708.144531 751.945312 708.867188 750.707031 709.527344 C 749.46875 710.1875 748.203125 710.789062 746.90625 711.324219 C 745.609375 711.863281 744.289062 712.335938 742.945312 712.742188 C 741.605469 713.148438 740.246094 713.488281 738.867188 713.761719 C 737.492188 714.039062 736.105469 714.242188 734.707031 714.378906 C 733.3125 714.519531 731.914062 714.585938 730.507812 714.585938 C 729.105469 714.585938 727.707031 714.519531 726.308594 714.378906 C 724.914062 714.242188 723.527344 714.039062 722.148438 713.761719 C 720.773438 713.488281 719.414062 713.148438 718.070312 712.742188 C 716.730469 712.335938 715.410156 711.863281 714.113281 711.324219 C 712.816406 710.789062 711.550781 710.1875 710.3125 709.527344 C 709.074219 708.867188 707.871094 708.144531 706.703125 707.363281 C 705.539062 706.585938 704.414062 705.75 703.328125 704.859375 C 702.242188 703.96875 701.203125 703.027344 700.210938 702.035156 C 699.21875 701.042969 698.277344 700.003906 697.386719 698.917969 C 696.5 697.835938 695.664062 696.707031 694.882812 695.542969 C 694.105469 694.375 693.382812 693.171875 692.722656 691.933594 C 692.0625 690.695312 691.460938 689.429688 690.925781 688.132812 C 690.386719 686.835938 689.914062 685.515625 689.507812 684.171875 C 689.101562 682.828125 688.761719 681.46875 688.484375 680.09375 C 688.210938 678.71875 688.007812 677.332031 687.871094 675.933594 C 687.730469 674.535156 687.664062 673.136719 687.664062 671.734375 C 687.664062 670.328125 687.730469 668.929688 687.871094 667.53125 C 688.007812 666.136719 688.210938 664.75 688.484375 663.371094 C 688.761719 661.996094 689.101562 660.636719 689.507812 659.292969 C 689.914062 657.949219 690.386719 656.628906 690.925781 655.332031 C 691.460938 654.035156 692.0625 652.769531 692.722656 651.53125 C 693.382812 650.292969 694.105469 649.089844 694.882812 647.925781 C 695.664062 646.757812 696.5 645.632812 697.386719 644.546875 C 698.277344 643.460938 699.21875 642.421875 700.210938 641.429688 C 701.203125 640.4375 702.242188 639.496094 703.328125 638.605469 C 704.414062 637.714844 705.539062 636.882812 706.703125 636.101562 C 707.871094 635.320312 709.074219 634.601562 710.3125 633.9375 C 711.550781 633.277344 712.816406 632.679688 714.113281 632.140625 C 715.410156 631.605469 716.730469 631.132812 718.070312 630.722656 C 719.414062 630.316406 720.773438 629.976562 722.148438 629.703125 C 723.527344 629.429688 724.914062 629.222656 726.308594 629.085938 C 727.707031 628.949219 729.105469 628.878906 730.507812 628.878906 C 731.914062 628.878906 733.3125 628.949219 734.707031 629.085938 C 736.105469 629.222656 737.492188 629.429688 738.867188 629.703125 C 740.246094 629.976562 741.605469 630.316406 742.945312 630.722656 C 744.289062 631.132812 745.609375 631.605469 746.90625 632.140625 C 748.203125 632.679688 749.46875 633.277344 750.707031 633.9375 C 751.945312 634.601562 753.148438 635.320312 754.3125 636.101562 C 755.480469 636.882812 756.605469 637.714844 757.691406 638.605469 C 758.777344 639.496094 759.8125 640.4375 760.804688 641.429688 C 761.796875 642.421875 762.738281 643.460938 763.628906 644.546875 C 764.519531 645.632812 765.355469 646.757812 766.132812 647.925781 C 766.914062 649.089844 767.632812 650.292969 768.296875 651.53125 C 768.957031 652.769531 769.558594 654.035156 770.09375 655.332031 C 770.632812 656.628906 771.101562 657.949219 771.511719 659.292969 C 771.917969 660.636719 772.257812 661.996094 772.53125 663.371094 C 772.804688 664.75 773.011719 666.136719 773.148438 667.53125 C 773.285156 668.929688 773.355469 670.328125 773.355469 671.734375 Z M 773.355469 671.734375 " fill-opacity="1" fill-rule="nonzero"/><path fill="#d7d4fc" d="M 729.316406 682.871094 C 730.007812 682.871094 730.667969 682.808594 731.324219 682.652344 C 731.953125 682.492188 732.515625 682.273438 732.988281 681.992188 C 733.457031 681.710938 733.835938 681.332031 734.117188 680.863281 C 734.398438 680.421875 734.523438 679.859375 734.523438 679.261719 C 734.523438 678.507812 734.335938 677.851562 733.929688 677.285156 C 733.519531 676.722656 732.988281 676.25 732.328125 675.8125 C 731.667969 675.371094 730.917969 674.996094 730.070312 674.652344 C 729.222656 674.304688 728.34375 673.929688 727.464844 673.519531 C 726.589844 673.144531 725.710938 672.707031 724.863281 672.234375 C 724.015625 671.765625 723.261719 671.199219 722.605469 670.542969 C 721.945312 669.882812 721.414062 669.128906 721.003906 668.25 C 720.597656 667.371094 720.410156 666.335938 720.410156 665.113281 C 720.410156 663.921875 720.597656 662.855469 720.972656 661.851562 C 721.351562 660.847656 721.914062 660 722.605469 659.214844 C 723.328125 658.460938 724.171875 657.804688 725.175781 657.300781 C 726.179688 656.769531 727.308594 656.390625 728.566406 656.140625 L 728.566406 648.265625 L 733.582031 648.265625 L 733.582031 655.828125 C 734.023438 655.828125 734.523438 655.859375 735.058594 655.921875 C 735.621094 655.984375 736.1875 656.046875 736.8125 656.171875 C 737.441406 656.265625 738.070312 656.390625 738.695312 656.519531 C 739.324219 656.644531 739.949219 656.800781 740.546875 656.988281 L 739.417969 662.070312 L 739.039062 662.257812 C 738.351562 661.945312 737.691406 661.695312 737.003906 661.472656 C 736.3125 661.253906 735.683594 661.097656 735.058594 660.941406 C 734.429688 660.816406 733.835938 660.722656 733.300781 660.660156 C 732.769531 660.597656 732.296875 660.566406 731.921875 660.566406 C 731.292969 660.566406 730.699219 660.628906 730.164062 660.785156 C 729.632812 660.941406 729.160156 661.128906 728.753906 661.410156 C 728.375 661.695312 728.0625 662.039062 727.84375 662.414062 C 727.625 662.824219 727.5 663.292969 727.5 663.796875 C 727.5 664.550781 727.6875 665.207031 728.09375 665.742188 C 728.5 666.273438 729.035156 666.777344 729.695312 667.183594 C 730.351562 667.625 731.136719 668 731.984375 668.34375 C 732.832031 668.691406 733.707031 669.066406 734.585938 669.472656 C 735.464844 669.851562 736.34375 670.289062 737.191406 670.761719 C 738.035156 671.230469 738.789062 671.796875 739.480469 672.453125 C 740.140625 673.113281 740.703125 673.867188 741.078125 674.746094 C 741.488281 675.625 741.675781 676.660156 741.675781 677.851562 C 741.675781 678.980469 741.488281 680.046875 741.109375 681.050781 C 740.734375 682.054688 740.203125 682.933594 739.511719 683.71875 C 738.789062 684.5 737.941406 685.191406 736.9375 685.757812 C 735.9375 686.320312 734.773438 686.761719 733.519531 687.074219 L 733.519531 695.105469 L 728.5 695.105469 L 728.5 687.511719 C 727.875 687.511719 727.183594 687.480469 726.398438 687.355469 C 725.648438 687.261719 724.863281 687.136719 724.046875 686.949219 C 723.230469 686.761719 722.417969 686.570312 721.601562 686.320312 C 720.785156 686.070312 719.96875 685.789062 719.21875 685.441406 L 720.316406 680.328125 L 720.753906 680.109375 C 722.386719 680.894531 723.859375 681.519531 725.238281 682.023438 C 726.683594 682.617188 728 682.871094 729.316406 682.871094 Z M 729.316406 682.871094 " fill-opacity="1" fill-rule="nonzero"/><path fill="#ef5e7a" d="M 691.710938 645.851562 L 689.449219 644.535156 C 689.609375 644.25 706.324219 616.550781 737.066406 622.886719 L 736.53125 625.460938 C 707.675781 619.46875 691.867188 645.570312 691.710938 645.851562 Z M 691.710938 645.851562 " fill-opacity="1" fill-rule="nonzero"/><path fill="#ef5e7a" d="M 575.089844 55.335938 C 575.089844 56.742188 575.019531 58.140625 574.882812 59.539062 C 574.746094 60.933594 574.539062 62.320312 574.265625 63.699219 C 573.992188 65.074219 573.652344 66.433594 573.246094 67.777344 C 572.835938 69.121094 572.363281 70.441406 571.828125 71.738281 C 571.289062 73.035156 570.691406 74.300781 570.03125 75.539062 C 569.367188 76.777344 568.648438 77.980469 567.867188 79.144531 C 567.089844 80.3125 566.253906 81.4375 565.363281 82.523438 C 564.472656 83.609375 563.53125 84.648438 562.539062 85.640625 C 561.546875 86.632812 560.507812 87.574219 559.425781 88.464844 C 558.339844 89.355469 557.214844 90.191406 556.046875 90.96875 C 554.878906 91.75 553.679688 92.46875 552.441406 93.132812 C 551.203125 93.792969 549.9375 94.390625 548.640625 94.929688 C 547.34375 95.464844 546.023438 95.9375 544.679688 96.347656 C 543.335938 96.753906 541.976562 97.09375 540.601562 97.367188 C 539.226562 97.640625 537.839844 97.847656 536.441406 97.984375 C 535.046875 98.121094 533.644531 98.191406 532.242188 98.191406 C 530.839844 98.191406 529.441406 98.121094 528.042969 97.984375 C 526.648438 97.847656 525.261719 97.640625 523.882812 97.367188 C 522.507812 97.09375 521.148438 96.753906 519.804688 96.347656 C 518.460938 95.9375 517.144531 95.464844 515.847656 94.929688 C 514.550781 94.390625 513.28125 93.792969 512.046875 93.132812 C 510.808594 92.46875 509.605469 91.75 508.4375 90.96875 C 507.273438 90.191406 506.144531 89.355469 505.0625 88.464844 C 503.976562 87.574219 502.9375 86.632812 501.945312 85.640625 C 500.953125 84.648438 500.011719 83.609375 499.121094 82.523438 C 498.230469 81.4375 497.398438 80.3125 496.617188 79.144531 C 495.835938 77.980469 495.117188 76.777344 494.457031 75.539062 C 493.792969 74.300781 493.195312 73.035156 492.65625 71.738281 C 492.121094 70.441406 491.648438 69.121094 491.242188 67.777344 C 490.835938 66.433594 490.492188 65.074219 490.21875 63.699219 C 489.945312 62.320312 489.742188 60.933594 489.601562 59.539062 C 489.464844 58.140625 489.398438 56.742188 489.398438 55.335938 C 489.398438 53.933594 489.464844 52.535156 489.601562 51.136719 C 489.742188 49.742188 489.945312 48.355469 490.21875 46.976562 C 490.492188 45.601562 490.835938 44.242188 491.242188 42.898438 C 491.648438 41.554688 492.121094 40.234375 492.65625 38.9375 C 493.195312 37.640625 493.792969 36.375 494.457031 35.136719 C 495.117188 33.898438 495.835938 32.695312 496.617188 31.527344 C 497.398438 30.363281 498.230469 29.234375 499.121094 28.152344 C 500.011719 27.066406 500.953125 26.027344 501.945312 25.035156 C 502.9375 24.042969 503.976562 23.101562 505.0625 22.210938 C 506.144531 21.320312 507.273438 20.484375 508.4375 19.707031 C 509.605469 18.925781 510.808594 18.207031 512.046875 17.542969 C 513.28125 16.882812 514.550781 16.28125 515.847656 15.746094 C 517.144531 15.207031 518.460938 14.734375 519.804688 14.328125 C 521.148438 13.921875 522.507812 13.582031 523.882812 13.308594 C 525.261719 13.03125 526.648438 12.828125 528.042969 12.691406 C 529.441406 12.550781 530.839844 12.484375 532.242188 12.484375 C 533.644531 12.484375 535.046875 12.550781 536.441406 12.691406 C 537.839844 12.828125 539.226562 13.03125 540.601562 13.308594 C 541.976562 13.582031 543.335938 13.921875 544.679688 14.328125 C 546.023438 14.734375 547.34375 15.207031 548.640625 15.746094 C 549.9375 16.28125 551.203125 16.882812 552.441406 17.542969 C 553.679688 18.207031 554.878906 18.925781 556.046875 19.707031 C 557.214844 20.484375 558.339844 21.320312 559.425781 22.210938 C 560.507812 23.101562 561.546875 24.042969 562.539062 25.035156 C 563.53125 26.027344 564.472656 27.066406 565.363281 28.152344 C 566.253906 29.234375 567.089844 30.363281 567.867188 31.527344 C 568.648438 32.695312 569.367188 33.898438 570.03125 35.136719 C 570.691406 36.375 571.289062 37.640625 571.828125 38.9375 C 572.363281 40.234375 572.835938 41.554688 573.246094 42.898438 C 573.652344 44.242188 573.992188 45.601562 574.265625 46.976562 C 574.539062 48.355469 574.746094 49.742188 574.882812 51.136719 C 575.019531 52.535156 575.089844 53.933594 575.089844 55.335938 Z M 575.089844 55.335938 " fill-opacity="1" fill-rule="nonzero"/><path fill="#d7d4fc" d="M 531.082031 66.472656 C 531.773438 66.472656 532.429688 66.410156 533.089844 66.253906 C 533.71875 66.097656 534.28125 65.878906 534.753906 65.597656 C 535.222656 65.3125 535.597656 64.9375 535.882812 64.464844 C 536.164062 64.027344 536.289062 63.460938 536.289062 62.867188 C 536.289062 62.113281 536.101562 61.453125 535.691406 60.890625 C 535.285156 60.324219 534.753906 59.855469 534.09375 59.414062 C 533.433594 58.976562 532.683594 58.601562 531.835938 58.253906 C 530.988281 57.910156 530.109375 57.535156 529.230469 57.125 C 528.351562 56.75 527.476562 56.308594 526.628906 55.839844 C 525.78125 55.367188 525.027344 54.804688 524.371094 54.144531 C 523.710938 53.488281 523.179688 52.734375 522.769531 51.855469 C 522.363281 50.976562 522.175781 49.941406 522.175781 48.71875 C 522.175781 47.527344 522.363281 46.460938 522.738281 45.457031 C 523.117188 44.453125 523.679688 43.605469 524.371094 42.820312 C 525.089844 42.066406 525.9375 41.410156 526.941406 40.90625 C 527.945312 40.371094 529.074219 39.996094 530.328125 39.746094 L 530.328125 31.871094 L 535.347656 31.871094 L 535.347656 39.433594 C 535.789062 39.433594 536.289062 39.464844 536.824219 39.527344 C 537.386719 39.589844 537.953125 39.652344 538.578125 39.777344 C 539.207031 39.902344 539.832031 39.996094 540.460938 40.121094 C 541.089844 40.246094 541.714844 40.40625 542.3125 40.59375 L 541.183594 45.675781 L 540.804688 45.863281 C 540.117188 45.550781 539.457031 45.296875 538.765625 45.078125 C 538.078125 44.859375 537.449219 44.703125 536.824219 44.546875 C 536.195312 44.421875 535.597656 44.324219 535.066406 44.261719 C 534.53125 44.199219 534.0625 44.167969 533.6875 44.167969 C 533.058594 44.167969 532.460938 44.230469 531.929688 44.386719 C 531.394531 44.546875 530.925781 44.734375 530.519531 45.015625 C 530.140625 45.296875 529.828125 45.644531 529.609375 46.019531 C 529.386719 46.429688 529.261719 46.898438 529.261719 47.398438 C 529.261719 48.152344 529.453125 48.8125 529.859375 49.34375 C 530.265625 49.878906 530.800781 50.378906 531.457031 50.789062 C 532.117188 51.226562 532.902344 51.605469 533.75 51.949219 C 534.59375 52.292969 535.472656 52.671875 536.351562 53.078125 C 537.230469 53.457031 538.109375 53.894531 538.957031 54.363281 C 539.800781 54.835938 540.554688 55.398438 541.246094 56.058594 C 541.902344 56.71875 542.46875 57.472656 542.84375 58.347656 C 543.253906 59.226562 543.441406 60.261719 543.441406 61.453125 C 543.441406 62.585938 543.253906 63.652344 542.875 64.65625 C 542.5 65.660156 541.964844 66.539062 541.277344 67.320312 C 540.554688 68.105469 539.707031 68.796875 538.703125 69.359375 C 537.699219 69.925781 536.539062 70.363281 535.285156 70.679688 L 535.285156 78.710938 L 530.265625 78.710938 L 530.265625 71.117188 C 529.640625 71.117188 528.949219 71.085938 528.164062 70.960938 C 527.414062 70.867188 526.628906 70.742188 525.8125 70.554688 C 524.996094 70.363281 524.183594 70.175781 523.367188 69.925781 C 522.550781 69.675781 521.734375 69.390625 520.980469 69.046875 L 522.082031 63.933594 L 522.519531 63.714844 C 524.152344 64.5 525.625 65.125 527.003906 65.628906 C 528.449219 66.222656 529.765625 66.472656 531.082031 66.472656 Z M 531.082031 66.472656 " fill-opacity="1" fill-rule="nonzero"/><path fill="#ef5e7a" d="M 493.472656 29.457031 L 491.214844 28.136719 C 491.371094 27.855469 508.089844 0.152344 538.828125 6.492188 L 538.296875 9.0625 C 509.410156 3.101562 493.632812 29.203125 493.472656 29.457031 Z M 493.472656 29.457031 " fill-opacity="1" fill-rule="nonzero"/><path fill="#1a2b47" d="M 370.203125 606.164062 C 370.203125 637.789062 385.605469 665.960938 409.320312 683.433594 C 414.117188 686.980469 419.292969 690.085938 424.71875 692.691406 C 431.304688 695.859375 438.332031 698.304688 445.640625 699.90625 C 447.207031 700.25 448.777344 700.53125 450.410156 700.816406 C 455.488281 701.660156 460.757812 702.101562 466.089844 702.101562 C 518.976562 702.101562 562.007812 659.058594 562.007812 606.195312 C 562.007812 581.195312 552.410156 558.417969 536.695312 541.320312 C 534.847656 539.3125 532.902344 537.398438 530.957031 535.546875 C 513.863281 519.863281 491.058594 510.261719 466.089844 510.261719 C 460.757812 510.261719 455.519531 510.699219 450.410156 511.546875 C 448.777344 511.800781 447.207031 512.113281 445.640625 512.457031 C 402.574219 521.839844 370.203125 560.300781 370.203125 606.164062 Z M 370.203125 606.164062 " fill-opacity="1" fill-rule="nonzero"/><path fill="#d7d4fc" d="M 555.296875 607.546875 C 555.296875 608.828125 555.265625 610.113281 555.203125 611.394531 C 555.140625 612.675781 555.046875 613.953125 554.917969 615.230469 C 554.792969 616.507812 554.636719 617.78125 554.449219 619.050781 C 554.261719 620.320312 554.042969 621.582031 553.792969 622.839844 C 553.539062 624.097656 553.261719 625.351562 552.949219 626.59375 C 552.636719 627.839844 552.292969 629.074219 551.921875 630.304688 C 551.550781 631.53125 551.148438 632.75 550.714844 633.957031 C 550.28125 635.164062 549.820312 636.363281 549.332031 637.546875 C 548.839844 638.734375 548.320312 639.90625 547.769531 641.066406 C 547.222656 642.226562 546.644531 643.371094 546.042969 644.503906 C 545.4375 645.632812 544.804688 646.75 544.144531 647.851562 C 543.484375 648.953125 542.800781 650.035156 542.085938 651.101562 C 541.375 652.167969 540.636719 653.21875 539.871094 654.246094 C 539.109375 655.277344 538.320312 656.289062 537.503906 657.28125 C 536.691406 658.273438 535.851562 659.246094 534.992188 660.195312 C 534.128906 661.144531 533.246094 662.074219 532.339844 662.980469 C 531.433594 663.890625 530.503906 664.773438 529.550781 665.636719 C 528.601562 666.496094 527.632812 667.335938 526.640625 668.148438 C 525.648438 668.960938 524.636719 669.75 523.605469 670.515625 C 522.574219 671.28125 521.527344 672.019531 520.460938 672.730469 C 519.394531 673.445312 518.3125 674.132812 517.210938 674.789062 C 516.109375 675.449219 514.996094 676.082031 513.863281 676.6875 C 512.730469 677.292969 511.585938 677.867188 510.425781 678.417969 C 509.265625 678.964844 508.09375 679.484375 506.910156 679.976562 C 505.722656 680.46875 504.527344 680.929688 503.320312 681.363281 C 502.113281 681.792969 500.894531 682.195312 499.667969 682.570312 C 498.4375 682.941406 497.203125 683.28125 495.957031 683.59375 C 494.714844 683.90625 493.464844 684.1875 492.203125 684.4375 C 490.945312 684.6875 489.683594 684.90625 488.414062 685.097656 C 487.144531 685.285156 485.871094 685.441406 484.597656 685.566406 C 483.320312 685.691406 482.039062 685.789062 480.757812 685.851562 C 479.476562 685.914062 478.195312 685.945312 476.914062 685.945312 C 475.628906 685.945312 474.347656 685.914062 473.066406 685.851562 C 471.785156 685.789062 470.507812 685.691406 469.230469 685.566406 C 467.953125 685.441406 466.679688 685.285156 465.410156 685.097656 C 464.140625 684.90625 462.878906 684.6875 461.621094 684.4375 C 460.363281 684.1875 459.113281 683.90625 457.867188 683.59375 C 456.621094 683.28125 455.386719 682.941406 454.160156 682.570312 C 452.929688 682.195312 451.714844 681.792969 450.503906 681.363281 C 449.296875 680.929688 448.101562 680.46875 446.917969 679.976562 C 445.730469 679.484375 444.558594 678.964844 443.398438 678.417969 C 442.238281 677.867188 441.09375 677.292969 439.960938 676.6875 C 438.832031 676.082031 437.714844 675.449219 436.613281 674.789062 C 435.515625 674.132812 434.429688 673.445312 433.363281 672.730469 C 432.296875 672.019531 431.25 671.28125 430.21875 670.515625 C 429.1875 669.75 428.179688 668.960938 427.1875 668.148438 C 426.195312 667.335938 425.222656 666.496094 424.273438 665.636719 C 423.324219 664.773438 422.394531 663.890625 421.488281 662.980469 C 420.578125 662.074219 419.695312 661.144531 418.832031 660.195312 C 417.972656 659.246094 417.132812 658.273438 416.320312 657.28125 C 415.507812 656.289062 414.71875 655.277344 413.953125 654.246094 C 413.191406 653.21875 412.453125 652.167969 411.738281 651.101562 C 411.027344 650.035156 410.339844 648.953125 409.679688 647.851562 C 409.019531 646.75 408.386719 645.632812 407.785156 644.503906 C 407.179688 643.371094 406.601562 642.226562 406.054688 641.066406 C 405.503906 639.90625 404.984375 638.734375 404.496094 637.546875 C 404.003906 636.363281 403.542969 635.164062 403.109375 633.957031 C 402.679688 632.75 402.277344 631.53125 401.902344 630.304688 C 401.53125 629.074219 401.1875 627.839844 400.878906 626.59375 C 400.566406 625.351562 400.285156 624.097656 400.035156 622.839844 C 399.785156 621.582031 399.566406 620.320312 399.375 619.050781 C 399.1875 617.78125 399.03125 616.507812 398.90625 615.230469 C 398.78125 613.953125 398.6875 612.675781 398.621094 611.394531 C 398.558594 610.113281 398.527344 608.828125 398.527344 607.546875 C 398.527344 606.261719 398.558594 604.980469 398.621094 603.699219 C 398.6875 602.417969 398.78125 601.136719 398.90625 599.863281 C 399.03125 598.585938 399.1875 597.3125 399.375 596.042969 C 399.566406 594.773438 399.785156 593.507812 400.035156 592.25 C 400.285156 590.992188 400.566406 589.742188 400.878906 588.496094 C 401.1875 587.253906 401.53125 586.015625 401.902344 584.789062 C 402.277344 583.558594 402.679688 582.34375 403.109375 581.132812 C 403.542969 579.925781 404.003906 578.730469 404.496094 577.542969 C 404.984375 576.359375 405.503906 575.1875 406.054688 574.027344 C 406.601562 572.867188 407.179688 571.722656 407.785156 570.589844 C 408.386719 569.457031 409.019531 568.339844 409.679688 567.242188 C 410.339844 566.140625 411.027344 565.058594 411.738281 563.988281 C 412.453125 562.921875 413.191406 561.875 413.953125 560.84375 C 414.71875 559.8125 415.507812 558.800781 416.320312 557.8125 C 417.132812 556.820312 417.972656 555.847656 418.832031 554.898438 C 419.695312 553.945312 420.578125 553.015625 421.488281 552.109375 C 422.394531 551.203125 423.324219 550.316406 424.273438 549.457031 C 425.222656 548.59375 426.195312 547.757812 427.1875 546.941406 C 428.179688 546.128906 429.1875 545.339844 430.21875 544.574219 C 431.25 543.8125 432.296875 543.074219 433.363281 542.359375 C 434.429688 541.648438 435.515625 540.960938 436.613281 540.300781 C 437.714844 539.640625 438.832031 539.007812 439.960938 538.40625 C 441.09375 537.800781 442.238281 537.222656 443.398438 536.675781 C 444.558594 536.125 445.730469 535.605469 446.917969 535.117188 C 448.101562 534.625 449.296875 534.164062 450.503906 533.730469 C 451.714844 533.296875 452.929688 532.894531 454.160156 532.523438 C 455.386719 532.152344 456.621094 531.808594 457.867188 531.496094 C 459.113281 531.183594 460.363281 530.90625 461.621094 530.652344 C 462.878906 530.402344 464.140625 530.183594 465.410156 529.996094 C 466.679688 529.808594 467.953125 529.652344 469.230469 529.523438 C 470.507812 529.398438 471.785156 529.304688 473.066406 529.242188 C 474.347656 529.179688 475.628906 529.148438 476.914062 529.148438 C 478.195312 529.148438 479.476562 529.179688 480.757812 529.242188 C 482.039062 529.304688 483.320312 529.398438 484.597656 529.523438 C 485.871094 529.652344 487.144531 529.808594 488.414062 529.996094 C 489.683594 530.183594 490.945312 530.402344 492.203125 530.652344 C 493.464844 530.90625 494.714844 531.183594 495.957031 531.496094 C 497.203125 531.808594 498.4375 532.152344 499.667969 532.523438 C 500.894531 532.894531 502.113281 533.296875 503.320312 533.730469 C 504.527344 534.164062 505.722656 534.625 506.910156 535.117188 C 508.09375 535.605469 509.265625 536.125 510.425781 536.675781 C 511.585938 537.222656 512.730469 537.800781 513.863281 538.40625 C 514.996094 539.007812 516.109375 539.640625 517.210938 540.300781 C 518.3125 540.960938 519.394531 541.648438 520.460938 542.359375 C 521.527344 543.074219 522.574219 543.8125 523.605469 544.574219 C 524.636719 545.339844 525.648438 546.128906 526.640625 546.941406 C 527.632812 547.757812 528.601562 548.59375 529.550781 549.457031 C 530.503906 550.316406 531.433594 551.203125 532.339844 552.109375 C 533.246094 553.015625 534.128906 553.945312 534.992188 554.898438 C 535.851562 555.847656 536.691406 556.820312 537.503906 557.8125 C 538.320312 558.800781 539.109375 559.8125 539.871094 560.84375 C 540.636719 561.875 541.375 562.921875 542.085938 563.988281 C 542.800781 565.058594 543.484375 566.140625 544.144531 567.242188 C 544.804688 568.339844 545.4375 569.457031 546.042969 570.589844 C 546.644531 571.722656 547.222656 572.867188 547.769531 574.027344 C 548.320312 575.1875 548.839844 576.359375 549.332031 577.542969 C 549.820312 578.730469 550.28125 579.925781 550.714844 581.132812 C 551.148438 582.34375 551.550781 583.558594 551.921875 584.789062 C 552.292969 586.015625 552.636719 587.253906 552.949219 588.496094 C 553.261719 589.742188 553.539062 590.992188 553.792969 592.25 C 554.042969 593.507812 554.261719 594.773438 554.449219 596.042969 C 554.636719 597.3125 554.792969 598.585938 554.917969 599.863281 C 555.046875 601.136719 555.140625 602.417969 555.203125 603.699219 C 555.265625 604.980469 555.296875 606.261719 555.296875 607.546875 Z M 555.296875 607.546875 " fill-opacity="1" fill-rule="nonzero"/><path fill="#ef5e7a" d="M 433.53125 606.636719 C 433.53125 624.457031 443.789062 639.890625 458.6875 647.386719 C 460.226562 648.171875 461.824219 648.863281 463.457031 649.460938 C 468.351562 651.246094 473.652344 652.21875 479.140625 652.21875 C 504.328125 652.21875 524.746094 631.796875 524.746094 606.636719 C 524.746094 595.5 520.761719 585.335938 514.175781 577.398438 C 512.417969 575.296875 510.476562 573.382812 508.40625 571.625 C 500.46875 565.039062 490.273438 561.054688 479.171875 561.054688 C 473.683594 561.054688 468.414062 562.027344 463.488281 563.8125 C 461.855469 564.441406 460.289062 565.132812 458.71875 565.882812 C 448.527344 570.996094 440.558594 579.8125 436.511719 590.542969 C 434.945312 594.621094 433.972656 598.980469 433.691406 603.53125 C 433.566406 604.535156 433.53125 605.570312 433.53125 606.636719 Z M 433.53125 606.636719 " fill-opacity="1" fill-rule="nonzero"/><path fill="#ef5e7a" d="M 458.6875 606.636719 C 458.6875 601.617188 460.476562 597.066406 463.457031 593.492188 C 467.21875 589.003906 472.867188 586.183594 479.140625 586.183594 C 483.3125 586.183594 487.167969 587.40625 490.398438 589.570312 C 492.691406 591.105469 494.667969 593.050781 496.171875 595.3125 C 498.304688 598.542969 499.558594 602.433594 499.558594 606.605469 C 499.558594 617.867188 490.429688 627.027344 479.140625 627.027344 C 472.867188 627.027344 467.21875 624.171875 463.457031 619.6875 C 460.476562 616.203125 458.6875 611.625 458.6875 606.636719 Z M 458.6875 606.636719 " fill-opacity="1" fill-rule="nonzero"/><path fill="#ef5e7a" d="M 433.53125 606.636719 C 433.53125 624.457031 443.789062 639.890625 458.6875 647.386719 C 460.226562 648.171875 461.824219 648.863281 463.457031 649.460938 C 468.351562 651.246094 473.652344 652.21875 479.140625 652.21875 C 504.328125 652.21875 524.746094 631.796875 524.746094 606.636719 C 524.746094 595.5 520.761719 585.335938 514.175781 577.398438 L 496.234375 595.34375 C 498.367188 598.574219 499.621094 602.464844 499.621094 606.636719 C 499.621094 617.898438 490.496094 627.058594 479.203125 627.058594 C 472.929688 627.058594 467.285156 624.203125 463.519531 619.71875 C 460.539062 616.171875 458.75 611.59375 458.75 606.605469 C 458.75 601.585938 460.539062 597.035156 463.519531 593.460938 C 467.285156 588.972656 472.929688 586.152344 479.203125 586.152344 C 483.375 586.152344 487.230469 587.375 490.460938 589.539062 L 508.40625 571.59375 C 500.46875 565.007812 490.273438 561.023438 479.171875 561.023438 C 473.683594 561.023438 468.414062 561.996094 463.488281 563.78125 C 461.855469 564.410156 460.289062 565.101562 458.71875 565.851562 C 448.527344 570.964844 440.558594 579.78125 436.511719 590.511719 C 434.945312 594.589844 433.972656 598.949219 433.691406 603.5 C 433.566406 604.535156 433.53125 605.570312 433.53125 606.636719 Z M 433.53125 606.636719 " fill-opacity="1" fill-rule="nonzero"/><path fill="#ef5e7a" d="M 433.53125 606.636719 C 433.53125 624.457031 443.789062 639.890625 458.6875 647.386719 C 460.226562 648.171875 461.824219 648.863281 463.457031 649.460938 C 468.351562 651.246094 473.652344 652.21875 479.140625 652.21875 C 504.328125 652.21875 524.746094 631.796875 524.746094 606.636719 C 524.746094 595.5 520.761719 585.335938 514.175781 577.398438 L 496.234375 595.34375 C 498.367188 598.574219 499.621094 602.464844 499.621094 606.636719 C 499.621094 617.898438 490.496094 627.058594 479.203125 627.058594 C 472.929688 627.058594 467.285156 624.203125 463.519531 619.71875 C 460.539062 616.171875 458.75 611.59375 458.75 606.605469 C 458.75 601.585938 460.539062 597.035156 463.519531 593.460938 C 467.285156 588.972656 472.929688 586.152344 479.203125 586.152344 C 483.375 586.152344 487.230469 587.375 490.460938 589.539062 L 508.40625 571.59375 C 500.46875 565.007812 490.273438 561.023438 479.171875 561.023438 C 473.683594 561.023438 468.414062 561.996094 463.488281 563.78125 C 461.855469 564.410156 460.289062 565.101562 458.71875 565.851562 C 448.527344 570.964844 440.558594 579.78125 436.511719 590.511719 C 434.945312 594.589844 433.972656 598.949219 433.691406 603.5 C 433.566406 604.535156 433.53125 605.570312 433.53125 606.636719 Z M 433.53125 606.636719 " fill-opacity="1" fill-rule="nonzero"/><path fill="#ef5e7a" d="M 433.53125 606.636719 C 433.53125 624.457031 443.789062 639.890625 458.6875 647.386719 C 460.226562 648.171875 461.824219 648.863281 463.457031 649.460938 C 468.351562 651.246094 473.652344 652.21875 479.140625 652.21875 C 504.328125 652.21875 524.746094 631.796875 524.746094 606.636719 C 524.746094 595.5 520.761719 585.335938 514.175781 577.398438 L 496.234375 595.34375 C 498.367188 598.574219 499.621094 602.464844 499.621094 606.636719 C 499.621094 617.898438 490.496094 627.058594 479.203125 627.058594 C 472.929688 627.058594 467.285156 624.203125 463.519531 619.71875 C 460.539062 616.171875 458.75 611.59375 458.75 606.605469 C 458.75 601.585938 460.539062 597.035156 463.519531 593.460938 C 467.285156 588.972656 472.929688 586.152344 479.203125 586.152344 C 483.375 586.152344 487.230469 587.375 490.460938 589.539062 L 508.40625 571.59375 C 500.46875 565.007812 490.273438 561.023438 479.171875 561.023438 C 473.683594 561.023438 468.414062 561.996094 463.488281 563.78125 C 461.855469 564.410156 460.289062 565.101562 458.71875 565.851562 C 448.527344 570.964844 440.558594 579.78125 436.511719 590.511719 C 434.945312 594.589844 433.972656 598.949219 433.691406 603.5 C 433.566406 604.535156 433.53125 605.570312 433.53125 606.636719 Z M 433.53125 606.636719 " fill-opacity="1" fill-rule="nonzero"/><path fill="#ef5e7a" d="M 433.53125 606.636719 C 433.53125 624.457031 443.789062 639.890625 458.6875 647.386719 C 460.226562 648.171875 461.824219 648.863281 463.457031 649.460938 C 468.351562 651.246094 473.652344 652.21875 479.140625 652.21875 C 504.328125 652.21875 524.746094 631.796875 524.746094 606.636719 C 524.746094 595.5 520.761719 585.335938 514.175781 577.398438 L 496.234375 595.34375 C 498.367188 598.574219 499.621094 602.464844 499.621094 606.636719 C 499.621094 617.898438 490.496094 627.058594 479.203125 627.058594 C 472.929688 627.058594 467.285156 624.203125 463.519531 619.71875 C 460.539062 616.171875 458.75 611.59375 458.75 606.605469 C 458.75 601.585938 460.539062 597.035156 463.519531 593.460938 C 467.285156 588.972656 472.929688 586.152344 479.203125 586.152344 C 483.375 586.152344 487.230469 587.375 490.460938 589.539062 L 508.40625 571.59375 C 500.46875 565.007812 490.273438 561.023438 479.171875 561.023438 C 473.683594 561.023438 468.414062 561.996094 463.488281 563.78125 C 461.855469 564.410156 460.289062 565.101562 458.71875 565.851562 C 448.527344 570.964844 440.558594 579.78125 436.511719 590.511719 C 434.945312 594.589844 433.972656 598.949219 433.691406 603.5 C 433.566406 604.535156 433.53125 605.570312 433.53125 606.636719 Z M 433.53125 606.636719 " fill-opacity="1" fill-rule="nonzero"/><path fill="#6969e2" d="M 383.222656 606.636719 C 383.222656 638.257812 398.621094 666.429688 422.335938 683.90625 C 427.132812 687.449219 432.308594 690.554688 437.738281 693.160156 C 444.324219 696.328125 451.347656 698.777344 458.65625 700.375 C 460.226562 700.71875 461.792969 701.003906 463.425781 701.285156 C 468.507812 702.132812 473.777344 702.570312 479.109375 702.570312 C 531.992188 702.570312 575.027344 659.53125 575.027344 606.667969 C 575.027344 581.664062 565.429688 558.886719 549.714844 541.789062 C 547.863281 539.78125 545.917969 537.867188 543.972656 536.019531 C 526.878906 520.332031 504.074219 510.730469 479.109375 510.730469 C 473.777344 510.730469 468.539062 511.171875 463.425781 512.019531 C 461.792969 512.269531 460.226562 512.582031 458.65625 512.929688 C 415.589844 522.277344 383.222656 560.738281 383.222656 606.636719 Z M 383.222656 606.636719 " fill-opacity="1" fill-rule="nonzero"/><path fill="#d7d4fc" d="M 407.90625 606.636719 C 407.90625 587.40625 415.527344 569.992188 427.917969 557.195312 C 430.929688 554.027344 434.285156 551.140625 437.894531 548.597656 C 444.136719 544.113281 451.160156 540.660156 458.6875 538.402344 C 460.257812 537.902344 461.824219 537.492188 463.457031 537.179688 C 468.507812 536.019531 473.746094 535.421875 479.140625 535.421875 C 497.332031 535.421875 513.925781 542.261719 526.503906 553.492188 L 508.339844 571.65625 C 500.40625 565.070312 490.210938 561.085938 479.109375 561.085938 C 473.621094 561.085938 468.351562 562.058594 463.425781 563.84375 C 461.792969 564.472656 460.226562 565.164062 458.65625 565.914062 C 448.464844 571.027344 440.496094 579.84375 436.449219 590.574219 C 434.882812 594.652344 433.910156 599.011719 433.628906 603.5625 C 433.566406 604.597656 433.5 605.664062 433.5 606.699219 C 433.5 624.519531 443.757812 639.953125 458.65625 647.453125 C 460.195312 648.234375 461.792969 648.925781 463.425781 649.523438 C 468.320312 651.308594 473.621094 652.28125 479.109375 652.28125 C 504.296875 652.28125 524.714844 631.859375 524.714844 606.699219 C 524.714844 595.5625 520.730469 585.398438 514.144531 577.460938 L 532.273438 559.296875 C 543.535156 571.84375 550.339844 588.472656 550.339844 606.667969 C 550.339844 645.976562 518.472656 677.851562 479.140625 677.851562 C 473.777344 677.851562 468.507812 677.253906 463.457031 676.09375 C 461.824219 675.75 460.257812 675.339844 458.6875 674.871094 C 445.140625 670.824219 433.25 662.824219 424.40625 652.21875 C 422.398438 649.804688 420.515625 647.230469 418.824219 644.503906 C 411.890625 633.523438 407.90625 620.535156 407.90625 606.636719 Z M 407.90625 606.636719 " fill-opacity="1" fill-rule="nonzero"/><path fill="#ef5e7a" d="M 496.171875 595.34375 C 498.304688 598.574219 499.558594 602.464844 499.558594 606.636719 C 499.558594 617.898438 490.429688 627.058594 479.140625 627.058594 C 472.867188 627.058594 467.21875 624.203125 463.457031 619.71875 C 460.476562 616.171875 458.6875 611.59375 458.6875 606.605469 C 458.6875 601.585938 460.476562 597.035156 463.457031 593.460938 C 467.21875 588.972656 472.867188 586.152344 479.140625 586.152344 C 483.3125 586.152344 487.167969 587.375 490.398438 589.539062 C 492.660156 591.105469 494.632812 593.050781 496.171875 595.34375 Z M 496.171875 595.34375 " fill-opacity="1" fill-rule="nonzero"/><path fill="#ef5e7a" d="M 433.53125 606.636719 C 433.53125 624.457031 443.789062 639.890625 458.6875 647.386719 C 460.226562 648.171875 461.824219 648.863281 463.457031 649.460938 C 468.351562 651.246094 473.652344 652.21875 479.140625 652.21875 C 504.328125 652.21875 524.746094 631.796875 524.746094 606.636719 C 524.746094 595.5 520.761719 585.335938 514.175781 577.398438 L 496.234375 595.34375 C 498.367188 598.574219 499.621094 602.464844 499.621094 606.636719 C 499.621094 617.898438 490.496094 627.058594 479.203125 627.058594 C 472.929688 627.058594 467.285156 624.203125 463.519531 619.71875 C 460.539062 616.171875 458.75 611.59375 458.75 606.605469 C 458.75 601.585938 460.539062 597.035156 463.519531 593.460938 C 467.285156 588.972656 472.929688 586.152344 479.203125 586.152344 C 483.375 586.152344 487.230469 587.375 490.460938 589.539062 L 508.40625 571.59375 C 500.46875 565.007812 490.273438 561.023438 479.171875 561.023438 C 473.683594 561.023438 468.414062 561.996094 463.488281 563.78125 C 461.855469 564.410156 460.289062 565.101562 458.71875 565.851562 C 448.527344 570.964844 440.558594 579.78125 436.511719 590.511719 C 434.945312 594.589844 433.972656 598.949219 433.691406 603.5 C 433.566406 604.535156 433.53125 605.570312 433.53125 606.636719 Z M 433.53125 606.636719 " fill-opacity="1" fill-rule="nonzero"/><path fill="#ef5e7a" d="M 433.53125 606.636719 C 433.53125 624.457031 443.789062 639.890625 458.6875 647.386719 C 460.226562 648.171875 461.824219 648.863281 463.457031 649.460938 C 468.351562 651.246094 473.652344 652.21875 479.140625 652.21875 C 504.328125 652.21875 524.746094 631.796875 524.746094 606.636719 C 524.746094 595.5 520.761719 585.335938 514.175781 577.398438 L 496.234375 595.34375 C 498.367188 598.574219 499.621094 602.464844 499.621094 606.636719 C 499.621094 617.898438 490.496094 627.058594 479.203125 627.058594 C 472.929688 627.058594 467.285156 624.203125 463.519531 619.71875 C 460.539062 616.171875 458.75 611.59375 458.75 606.605469 C 458.75 601.585938 460.539062 597.035156 463.519531 593.460938 C 467.285156 588.972656 472.929688 586.152344 479.203125 586.152344 C 483.375 586.152344 487.230469 587.375 490.460938 589.539062 L 508.40625 571.59375 C 500.46875 565.007812 490.273438 561.023438 479.171875 561.023438 C 473.683594 561.023438 468.414062 561.996094 463.488281 563.78125 C 461.855469 564.410156 460.289062 565.101562 458.71875 565.851562 C 448.527344 570.964844 440.558594 579.78125 436.511719 590.511719 C 434.945312 594.589844 433.972656 598.949219 433.691406 603.5 C 433.566406 604.535156 433.53125 605.570312 433.53125 606.636719 Z M 433.53125 606.636719 " fill-opacity="1" fill-rule="nonzero"/><path fill="#ef5e7a" d="M 433.53125 606.636719 C 433.53125 624.457031 443.789062 639.890625 458.6875 647.386719 C 460.226562 648.171875 461.824219 648.863281 463.457031 649.460938 C 468.351562 651.246094 473.652344 652.21875 479.140625 652.21875 C 504.328125 652.21875 524.746094 631.796875 524.746094 606.636719 C 524.746094 595.5 520.761719 585.335938 514.175781 577.398438 L 496.234375 595.34375 C 498.367188 598.574219 499.621094 602.464844 499.621094 606.636719 C 499.621094 617.898438 490.496094 627.058594 479.203125 627.058594 C 472.929688 627.058594 467.285156 624.203125 463.519531 619.71875 C 460.539062 616.171875 458.75 611.59375 458.75 606.605469 C 458.75 601.585938 460.539062 597.035156 463.519531 593.460938 C 467.285156 588.972656 472.929688 586.152344 479.203125 586.152344 C 483.375 586.152344 487.230469 587.375 490.460938 589.539062 L 508.40625 571.59375 C 500.46875 565.007812 490.273438 561.023438 479.171875 561.023438 C 473.683594 561.023438 468.414062 561.996094 463.488281 563.78125 C 461.855469 564.410156 460.289062 565.101562 458.71875 565.851562 C 448.527344 570.964844 440.558594 579.78125 436.511719 590.511719 C 434.945312 594.589844 433.972656 598.949219 433.691406 603.5 C 433.566406 604.535156 433.53125 605.570312 433.53125 606.636719 Z M 433.53125 606.636719 " fill-opacity="1" fill-rule="nonzero"/><path fill="#ef5e7a" d="M 433.53125 606.636719 C 433.53125 624.457031 443.789062 639.890625 458.6875 647.386719 C 460.226562 648.171875 461.824219 648.863281 463.457031 649.460938 C 468.351562 651.246094 473.652344 652.21875 479.140625 652.21875 C 504.328125 652.21875 524.746094 631.796875 524.746094 606.636719 C 524.746094 595.5 520.761719 585.335938 514.175781 577.398438 C 512.417969 575.296875 510.476562 573.382812 508.40625 571.625 C 500.46875 565.039062 490.273438 561.054688 479.171875 561.054688 C 473.683594 561.054688 468.414062 562.027344 463.488281 563.8125 C 461.855469 564.441406 460.289062 565.132812 458.71875 565.882812 C 448.527344 570.996094 440.558594 579.8125 436.511719 590.542969 C 434.945312 594.621094 433.972656 598.980469 433.691406 603.53125 C 433.566406 604.535156 433.53125 605.570312 433.53125 606.636719 Z M 433.53125 606.636719 " fill-opacity="1" fill-rule="nonzero"/><path fill="#ef5e7a" d="M 458.6875 606.636719 C 458.6875 601.617188 460.476562 597.066406 463.457031 593.492188 C 467.21875 589.003906 472.867188 586.183594 479.140625 586.183594 C 483.3125 586.183594 487.167969 587.40625 490.398438 589.570312 C 492.691406 591.105469 494.667969 593.050781 496.171875 595.3125 C 498.304688 598.542969 499.558594 602.433594 499.558594 606.605469 C 499.558594 617.867188 490.429688 627.027344 479.140625 627.027344 C 472.867188 627.027344 467.21875 624.171875 463.457031 619.6875 C 460.476562 616.203125 458.6875 611.625 458.6875 606.636719 Z M 458.6875 606.636719 " fill-opacity="1" fill-rule="nonzero"/><path fill="#ef5e7a" d="M 433.53125 606.636719 C 433.53125 624.457031 443.789062 639.890625 458.6875 647.386719 C 460.226562 648.171875 461.824219 648.863281 463.457031 649.460938 C 468.351562 651.246094 473.652344 652.21875 479.140625 652.21875 C 504.328125 652.21875 524.746094 631.796875 524.746094 606.636719 C 524.746094 595.5 520.761719 585.335938 514.175781 577.398438 C 512.417969 575.296875 510.476562 573.382812 508.40625 571.625 C 500.46875 565.039062 490.273438 561.054688 479.171875 561.054688 C 473.683594 561.054688 468.414062 562.027344 463.488281 563.8125 C 461.855469 564.441406 460.289062 565.132812 458.71875 565.882812 C 448.527344 570.996094 440.558594 579.8125 436.511719 590.542969 C 434.945312 594.621094 433.972656 598.980469 433.691406 603.53125 C 433.566406 604.535156 433.53125 605.570312 433.53125 606.636719 Z M 433.53125 606.636719 " fill-opacity="1" fill-rule="nonzero"/><path fill="#d7d4fc" d="M 458.6875 606.636719 C 458.6875 601.617188 460.476562 597.066406 463.457031 593.492188 C 467.21875 589.003906 472.867188 586.183594 479.140625 586.183594 C 483.3125 586.183594 487.167969 587.40625 490.398438 589.570312 C 492.691406 591.105469 494.667969 593.050781 496.171875 595.3125 C 498.304688 598.542969 499.558594 602.433594 499.558594 606.605469 C 499.558594 617.867188 490.429688 627.027344 479.140625 627.027344 C 472.867188 627.027344 467.21875 624.171875 463.457031 619.6875 C 460.476562 616.203125 458.6875 611.625 458.6875 606.636719 Z M 458.6875 606.636719 " fill-opacity="1" fill-rule="nonzero"/><path fill="#d7d4fc" d="M 404.363281 564.660156 C 404.113281 564.660156 403.859375 564.597656 403.640625 564.472656 C 402.949219 564.066406 402.699219 563.1875 403.109375 562.496094 C 424.875 524.378906 462.296875 518.953125 462.671875 518.890625 C 463.457031 518.796875 464.179688 519.328125 464.304688 520.113281 C 464.398438 520.898438 463.863281 521.617188 463.082031 521.742188 C 462.703125 521.808594 426.664062 527.109375 405.617188 563.9375 C 405.335938 564.410156 404.863281 564.660156 404.363281 564.660156 Z M 404.363281 564.660156 " fill-opacity="0.7" fill-rule="nonzero"/><path fill="#1a2b47" d="M 472.144531 592.175781 L 472.144531 613.601562 L 493.566406 613.601562 L 486.070312 605.414062 L 496.171875 595.34375 L 514.113281 577.398438 L 532.242188 559.234375 L 548.835938 542.667969 L 549.714844 541.757812 L 552.664062 538.808594 L 567.152344 541.695312 L 579.074219 529.773438 L 559.8125 525.917969 L 555.957031 506.652344 L 544.003906 518.574219 L 546.921875 533.039062 L 543.0625 536.898438 L 526.503906 553.460938 L 490.398438 589.570312 L 480.332031 599.640625 Z M 472.144531 592.175781 " fill-opacity="1" fill-rule="nonzero"/></svg>