<svg xmlns="http://www.w3.org/2000/svg" xmlns:xlink="http://www.w3.org/1999/xlink" width="1100" zoomAndPan="magnify" viewBox="0 0 824.88 540.000001" height="720" preserveAspectRatio="xMidYMid meet" version="1.0"><defs><clipPath id="17041ba73b"><path d="M 0.703125 0 L 824.058594 0 L 824.058594 539 L 0.703125 539 Z M 0.703125 0 " clip-rule="nonzero"/></clipPath><clipPath id="3f3a2fb628"><path d="M 2 0 L 798 0 L 798 539 L 2 539 Z M 2 0 " clip-rule="nonzero"/></clipPath><clipPath id="7ad9691923"><path d="M 104 484 L 173 484 L 173 539 L 104 539 Z M 104 484 " clip-rule="nonzero"/></clipPath><clipPath id="f3ff4c0aac"><path d="M 654 428 L 798 428 L 798 539 L 654 539 Z M 654 428 " clip-rule="nonzero"/></clipPath><clipPath id="c8b192849b"><path d="M 577 494 L 797 494 L 797 539 L 577 539 Z M 577 494 " clip-rule="nonzero"/></clipPath><clipPath id="7420569bcc"><path d="M 530 519 L 615 519 L 615 539 L 530 539 Z M 530 519 " clip-rule="nonzero"/></clipPath></defs><g clip-path="url(#17041ba73b)"><path fill="#ffffff" d="M 0.703125 0 L 824.175781 0 L 824.175781 539 L 0.703125 539 Z M 0.703125 0 " fill-opacity="1" fill-rule="nonzero"/><path fill="#ffffff" d="M 0.703125 0 L 824.175781 0 L 824.175781 539 L 0.703125 539 Z M 0.703125 0 " fill-opacity="1" fill-rule="nonzero"/></g><g clip-path="url(#3f3a2fb628)"><path fill="#d4def9" d="M 11.394531 509.605469 C 12.613281 513.78125 14.003906 517.785156 15.570312 521.960938 C 18.703125 530.136719 22.355469 538.140625 26.878906 545.796875 L 676.207031 545.796875 C 675.859375 537.792969 675.511719 529.789062 675.511719 521.960938 L 675.511719 521.613281 C 675.511719 517.609375 675.511719 513.609375 675.6875 509.605469 C 677.773438 470.808594 692.042969 436.007812 712.746094 402.601562 C 743.019531 353.710938 784.082031 307.082031 794 248.621094 C 808.265625 164.933594 775.730469 76.023438 687.691406 52.015625 C 631.839844 36.875 575.292969 57.753906 520.3125 66.976562 C 475.425781 74.457031 429.316406 65.933594 387.039062 50.621094 C 379.382812 47.839844 371.550781 44.878906 363.898438 41.921875 C 312.742188 21.914062 261.9375 -2.097656 208.175781 -9.578125 C 169.722656 -14.972656 134.230469 -7.492188 112.65625 20.871094 C 107.261719 27.828125 102.914062 36.179688 99.433594 45.925781 C 98.910156 47.664062 98.214844 49.230469 97.867188 50.96875 C 97.867188 50.96875 97.867188 50.96875 97.867188 51.144531 C 93.691406 65.0625 91.949219 79.332031 91.429688 93.945312 C 90.386719 122.828125 93.863281 152.578125 89.6875 180.765625 C 86.035156 205.125 77.160156 227.570312 66.546875 249.316406 C 48.105469 287.074219 24.269531 322.742188 13.828125 363.628906 C 10.871094 375.285156 8.261719 387.464844 6.523438 399.820312 C 0.953125 436.53125 1.128906 474.632812 11.394531 509.605469 Z M 11.394531 509.605469 " fill-opacity="1" fill-rule="nonzero"/></g><path fill="#5385ea" d="M 151.105469 419.304688 L 145.191406 418.609375 L 150.585938 421.914062 C 147.453125 437.226562 138.230469 447.839844 137.535156 448.535156 C 135.273438 450.972656 126.921875 445.40625 125.355469 444.011719 C 119.265625 438.445312 116.308594 430.441406 113.699219 422.960938 C 110.394531 413.738281 107.4375 404.515625 103.433594 395.46875 C 100.300781 388.335938 96.824219 381.375 93.515625 374.242188 L 96.476562 365.542969 L 89.167969 364.847656 C 88.472656 363.28125 87.773438 361.714844 87.078125 360.148438 C 84.121094 353.191406 81.164062 346.054688 78.554688 338.921875 C 79.945312 339.445312 114.222656 352.320312 135.101562 373.894531 L 132.316406 378.246094 L 140.320312 379.808594 C 142.929688 383.117188 145.191406 386.597656 146.933594 390.25 C 151.804688 400.6875 152.5 410.78125 151.105469 419.304688 Z M 151.105469 419.304688 " fill-opacity="1" fill-rule="nonzero"/><path fill="#5385ea" d="M 223.140625 399.472656 C 222.441406 400.339844 221.746094 401.210938 221.050781 402.082031 C 214.613281 411.128906 207.652344 419.652344 200 427.65625 L 196.171875 425.222656 C 196.171875 425.222656 197.390625 427.65625 198.257812 429.398438 C 191.648438 436.355469 184.511719 442.792969 177.207031 449.058594 C 175.117188 450.796875 172.855469 452.539062 170.246094 453.582031 L 167.113281 450.277344 C 167.113281 450.277344 167.113281 452.710938 167.113281 454.453125 C 165.898438 454.625 164.851562 454.800781 163.632812 454.625 C 162.070312 454.453125 156.5 453.234375 155.632812 451.84375 C 155.632812 451.84375 148.148438 434.964844 162.417969 420.003906 C 163.984375 418.4375 165.546875 417.042969 167.289062 415.828125 L 169.722656 418.957031 L 173.726562 412.171875 C 177.554688 410.433594 181.554688 408.867188 185.382812 407.648438 C 193.910156 404.863281 202.957031 402.777344 211.828125 401.210938 C 216.003906 400.515625 219.484375 399.992188 223.140625 399.472656 Z M 223.140625 399.472656 " fill-opacity="1" fill-rule="nonzero"/><path fill="#5385ea" d="M 118.570312 463.324219 C 108.828125 467.5 97.34375 463.847656 87.078125 457.582031 C 88.472656 454.800781 91.082031 449.230469 91.429688 448.882812 C 91.601562 448.535156 86.382812 452.710938 83.425781 455.148438 C 68.636719 445.40625 56.804688 431.660156 56.804688 431.660156 C 56.804688 431.660156 95.777344 429.222656 110.21875 436.703125 C 111.613281 437.402344 112.828125 438.269531 113.875 439.140625 L 112.65625 442.097656 L 115.960938 441.230469 C 122.921875 450.101562 118.570312 463.324219 118.570312 463.324219 Z M 118.570312 463.324219 " fill-opacity="1" fill-rule="nonzero"/><path fill="#262a41" d="M 137.363281 491.859375 L 135.621094 491.511719 C 135.796875 490.640625 148.496094 407.476562 100.128906 361.019531 L 101.347656 359.800781 C 150.410156 406.953125 137.535156 491.164062 137.363281 491.859375 Z M 137.363281 491.859375 " fill-opacity="1" fill-rule="nonzero"/><path fill="#262a41" d="M 139.277344 503.863281 L 137.535156 503.691406 C 137.535156 502.996094 142.929688 437.054688 198.085938 414.78125 L 198.78125 416.347656 C 144.667969 438.269531 139.277344 503.167969 139.277344 503.863281 Z M 139.277344 503.863281 " fill-opacity="1" fill-rule="nonzero"/><path fill="#262a41" d="M 134.925781 487.683594 C 134.753906 487.335938 112.828125 446.273438 79.945312 438.792969 L 80.292969 437.054688 C 114.046875 444.707031 136.316406 486.464844 136.492188 486.8125 Z M 134.925781 487.683594 " fill-opacity="1" fill-rule="nonzero"/><g clip-path="url(#7ad9691923)"><path fill="#262a41" d="M 172.335938 484.378906 L 155.804688 544.054688 L 121.179688 544.054688 L 104.824219 484.726562 C 104.824219 484.550781 104.824219 484.550781 104.824219 484.550781 L 104.824219 484.378906 Z M 172.335938 484.378906 " fill-opacity="1" fill-rule="nonzero"/></g><path fill="#ffffff" d="M 552.851562 106.472656 L 552.851562 400.167969 C 552.851562 406.605469 548.152344 411.652344 542.234375 411.652344 L 85.164062 411.652344 C 79.25 411.652344 74.550781 406.429688 74.550781 400.167969 L 74.550781 106.472656 C 74.550781 100.035156 79.25 94.988281 85.164062 94.988281 L 542.234375 94.988281 C 548.152344 94.988281 552.851562 100.207031 552.851562 106.472656 Z M 552.851562 106.472656 " fill-opacity="1" fill-rule="nonzero"/><path fill="#262a41" d="M 542.234375 412.695312 L 85.164062 412.695312 C 78.726562 412.695312 73.683594 407.125 73.683594 400.339844 L 73.683594 106.472656 C 73.683594 99.6875 78.902344 94.121094 85.164062 94.121094 L 542.234375 94.121094 C 548.5 94.121094 553.71875 99.6875 553.71875 106.472656 L 553.71875 400.167969 C 553.71875 407.125 548.675781 412.695312 542.234375 412.695312 Z M 85.164062 95.859375 C 79.773438 95.859375 75.421875 100.558594 75.421875 106.472656 L 75.421875 400.167969 C 75.421875 406.082031 79.773438 410.78125 85.164062 410.78125 L 542.234375 410.78125 C 547.628906 410.78125 551.980469 405.910156 551.980469 400.167969 L 551.980469 106.472656 C 551.980469 100.558594 547.628906 95.859375 542.234375 95.859375 Z M 85.164062 95.859375 " fill-opacity="1" fill-rule="nonzero"/><path fill="#262a41" d="M 552.851562 106.472656 L 552.851562 127.523438 L 74.378906 127.523438 L 74.378906 106.472656 C 74.378906 100.035156 79.074219 94.988281 84.992188 94.988281 L 542.234375 94.988281 C 548.152344 94.988281 552.851562 100.207031 552.851562 106.472656 Z M 552.851562 106.472656 " fill-opacity="1" fill-rule="nonzero"/><path fill="#ffffff" d="M 105.695312 112.386719 C 105.695312 112.730469 105.664062 113.070312 105.597656 113.40625 C 105.527344 113.742188 105.429688 114.070312 105.296875 114.386719 C 105.167969 114.703125 105.007812 115.003906 104.816406 115.289062 C 104.625 115.574219 104.410156 115.835938 104.167969 116.078125 C 103.925781 116.320312 103.660156 116.539062 103.375 116.726562 C 103.089844 116.917969 102.789062 117.078125 102.472656 117.210938 C 102.15625 117.339844 101.832031 117.441406 101.496094 117.507812 C 101.160156 117.574219 100.820312 117.609375 100.476562 117.609375 C 100.132812 117.609375 99.792969 117.574219 99.457031 117.507812 C 99.121094 117.441406 98.796875 117.339844 98.480469 117.210938 C 98.164062 117.078125 97.863281 116.917969 97.578125 116.726562 C 97.292969 116.539062 97.027344 116.320312 96.785156 116.078125 C 96.542969 115.835938 96.328125 115.574219 96.136719 115.289062 C 95.945312 115.003906 95.785156 114.703125 95.652344 114.386719 C 95.523438 114.070312 95.425781 113.742188 95.355469 113.40625 C 95.289062 113.070312 95.257812 112.730469 95.257812 112.386719 C 95.257812 112.046875 95.289062 111.707031 95.355469 111.371094 C 95.425781 111.035156 95.523438 110.707031 95.652344 110.390625 C 95.785156 110.074219 95.945312 109.773438 96.136719 109.488281 C 96.328125 109.203125 96.542969 108.941406 96.785156 108.699219 C 97.027344 108.453125 97.292969 108.238281 97.578125 108.046875 C 97.863281 107.859375 98.164062 107.695312 98.480469 107.566406 C 98.796875 107.433594 99.121094 107.335938 99.457031 107.269531 C 99.792969 107.203125 100.132812 107.167969 100.476562 107.167969 C 100.820312 107.167969 101.160156 107.203125 101.496094 107.269531 C 101.832031 107.335938 102.15625 107.433594 102.472656 107.566406 C 102.789062 107.695312 103.089844 107.859375 103.375 108.046875 C 103.660156 108.238281 103.925781 108.453125 104.167969 108.699219 C 104.410156 108.941406 104.625 109.203125 104.816406 109.488281 C 105.007812 109.773438 105.167969 110.074219 105.296875 110.390625 C 105.429688 110.707031 105.527344 111.035156 105.597656 111.371094 C 105.664062 111.707031 105.695312 112.046875 105.695312 112.386719 Z M 105.695312 112.386719 " fill-opacity="1" fill-rule="nonzero"/><path fill="#ffffff" d="M 131.621094 112.386719 C 131.621094 112.730469 131.585938 113.070312 131.519531 113.40625 C 131.453125 113.742188 131.355469 114.070312 131.222656 114.386719 C 131.09375 114.703125 130.929688 115.003906 130.742188 115.289062 C 130.550781 115.574219 130.335938 115.835938 130.089844 116.078125 C 129.847656 116.320312 129.585938 116.539062 129.300781 116.726562 C 129.015625 116.917969 128.714844 117.078125 128.398438 117.210938 C 128.082031 117.339844 127.753906 117.441406 127.417969 117.507812 C 127.082031 117.574219 126.742188 117.609375 126.402344 117.609375 C 126.058594 117.609375 125.71875 117.574219 125.382812 117.507812 C 125.046875 117.441406 124.71875 117.339844 124.402344 117.210938 C 124.085938 117.078125 123.785156 116.917969 123.5 116.726562 C 123.214844 116.539062 122.953125 116.320312 122.710938 116.078125 C 122.46875 115.835938 122.25 115.574219 122.0625 115.289062 C 121.871094 115.003906 121.710938 114.703125 121.578125 114.386719 C 121.449219 114.070312 121.347656 113.742188 121.28125 113.40625 C 121.214844 113.070312 121.179688 112.730469 121.179688 112.386719 C 121.179688 112.046875 121.214844 111.707031 121.28125 111.371094 C 121.347656 111.035156 121.449219 110.707031 121.578125 110.390625 C 121.710938 110.074219 121.871094 109.773438 122.0625 109.488281 C 122.25 109.203125 122.46875 108.941406 122.710938 108.699219 C 122.953125 108.453125 123.214844 108.238281 123.5 108.046875 C 123.785156 107.859375 124.085938 107.695312 124.402344 107.566406 C 124.71875 107.433594 125.046875 107.335938 125.382812 107.269531 C 125.71875 107.203125 126.058594 107.167969 126.402344 107.167969 C 126.742188 107.167969 127.082031 107.203125 127.417969 107.269531 C 127.753906 107.335938 128.082031 107.433594 128.398438 107.566406 C 128.714844 107.695312 129.015625 107.859375 129.300781 108.046875 C 129.585938 108.238281 129.847656 108.453125 130.089844 108.699219 C 130.335938 108.941406 130.550781 109.203125 130.742188 109.488281 C 130.929688 109.773438 131.09375 110.074219 131.222656 110.390625 C 131.355469 110.707031 131.453125 111.035156 131.519531 111.371094 C 131.585938 111.707031 131.621094 112.046875 131.621094 112.386719 Z M 131.621094 112.386719 " fill-opacity="1" fill-rule="nonzero"/><path fill="#ffffff" d="M 157.546875 112.386719 C 157.546875 112.730469 157.511719 113.070312 157.445312 113.40625 C 157.378906 113.742188 157.277344 114.070312 157.148438 114.386719 C 157.015625 114.703125 156.855469 115.003906 156.664062 115.289062 C 156.476562 115.574219 156.257812 115.835938 156.015625 116.078125 C 155.773438 116.320312 155.511719 116.539062 155.226562 116.726562 C 154.941406 116.917969 154.640625 117.078125 154.324219 117.210938 C 154.007812 117.339844 153.679688 117.441406 153.34375 117.507812 C 153.007812 117.574219 152.667969 117.609375 152.324219 117.609375 C 151.984375 117.609375 151.644531 117.574219 151.308594 117.507812 C 150.972656 117.441406 150.644531 117.339844 150.328125 117.210938 C 150.011719 117.078125 149.710938 116.917969 149.425781 116.726562 C 149.140625 116.539062 148.875 116.320312 148.632812 116.078125 C 148.390625 115.835938 148.175781 115.574219 147.984375 115.289062 C 147.792969 115.003906 147.632812 114.703125 147.503906 114.386719 C 147.371094 114.070312 147.273438 113.742188 147.207031 113.40625 C 147.140625 113.070312 147.105469 112.730469 147.105469 112.386719 C 147.105469 112.046875 147.140625 111.707031 147.207031 111.371094 C 147.273438 111.035156 147.371094 110.707031 147.503906 110.390625 C 147.632812 110.074219 147.792969 109.773438 147.984375 109.488281 C 148.175781 109.203125 148.390625 108.941406 148.632812 108.699219 C 148.875 108.453125 149.140625 108.238281 149.425781 108.046875 C 149.710938 107.859375 150.011719 107.695312 150.328125 107.566406 C 150.644531 107.433594 150.972656 107.335938 151.308594 107.269531 C 151.644531 107.203125 151.984375 107.167969 152.324219 107.167969 C 152.667969 107.167969 153.007812 107.203125 153.34375 107.269531 C 153.679688 107.335938 154.007812 107.433594 154.324219 107.566406 C 154.640625 107.695312 154.941406 107.859375 155.226562 108.046875 C 155.511719 108.238281 155.773438 108.453125 156.015625 108.699219 C 156.257812 108.941406 156.476562 109.203125 156.664062 109.488281 C 156.855469 109.773438 157.015625 110.074219 157.148438 110.390625 C 157.277344 110.707031 157.378906 111.035156 157.445312 111.371094 C 157.511719 111.707031 157.546875 112.046875 157.546875 112.386719 Z M 157.546875 112.386719 " fill-opacity="1" fill-rule="nonzero"/><path fill="#5385ea" d="M 303.871094 303.253906 L 242.277344 241.664062 L 211.65625 272.457031 L 175.464844 237.660156 L 118.050781 295.25 L 115.789062 292.988281 L 175.464844 233.3125 L 211.480469 267.933594 L 242.277344 237.140625 L 303.871094 298.558594 L 385.820312 216.609375 L 431.058594 261.84375 L 506.742188 186.160156 L 509.003906 188.421875 L 431.058594 266.367188 L 385.820312 221.132812 Z M 303.871094 303.253906 " fill-opacity="1" fill-rule="nonzero"/><path fill="#262a41" d="M 515.964844 184.769531 C 515.964844 185.226562 515.917969 185.675781 515.828125 186.125 C 515.742188 186.574219 515.609375 187.007812 515.433594 187.429688 C 515.257812 187.851562 515.042969 188.253906 514.789062 188.632812 C 514.535156 189.015625 514.25 189.367188 513.925781 189.6875 C 513.601562 190.011719 513.25 190.300781 512.871094 190.554688 C 512.492188 190.808594 512.089844 191.023438 511.667969 191.199219 C 511.246094 191.371094 510.808594 191.503906 510.363281 191.59375 C 509.914062 191.683594 509.460938 191.726562 509.003906 191.726562 C 508.546875 191.726562 508.09375 191.683594 507.644531 191.59375 C 507.199219 191.503906 506.761719 191.371094 506.339844 191.199219 C 505.917969 191.023438 505.519531 190.808594 505.136719 190.554688 C 504.757812 190.300781 504.40625 190.011719 504.082031 189.6875 C 503.761719 189.367188 503.472656 189.015625 503.21875 188.632812 C 502.964844 188.253906 502.75 187.851562 502.574219 187.429688 C 502.398438 187.007812 502.265625 186.574219 502.179688 186.125 C 502.089844 185.675781 502.042969 185.226562 502.042969 184.769531 C 502.042969 184.3125 502.089844 183.859375 502.179688 183.410156 C 502.265625 182.960938 502.398438 182.527344 502.574219 182.105469 C 502.75 181.683594 502.964844 181.28125 503.21875 180.902344 C 503.472656 180.519531 503.761719 180.167969 504.082031 179.847656 C 504.40625 179.523438 504.757812 179.234375 505.136719 178.980469 C 505.519531 178.726562 505.917969 178.511719 506.339844 178.339844 C 506.761719 178.164062 507.199219 178.03125 507.644531 177.941406 C 508.09375 177.851562 508.546875 177.808594 509.003906 177.808594 C 509.460938 177.808594 509.914062 177.851562 510.363281 177.941406 C 510.808594 178.03125 511.246094 178.164062 511.667969 178.339844 C 512.089844 178.511719 512.492188 178.726562 512.871094 178.980469 C 513.25 179.234375 513.601562 179.523438 513.925781 179.847656 C 514.25 180.167969 514.535156 180.519531 514.789062 180.902344 C 515.042969 181.28125 515.257812 181.683594 515.433594 182.105469 C 515.609375 182.527344 515.742188 182.960938 515.828125 183.410156 C 515.917969 183.859375 515.964844 184.3125 515.964844 184.769531 Z M 515.964844 184.769531 " fill-opacity="1" fill-rule="nonzero"/><path fill="#262a41" d="M 438.191406 264.105469 C 438.191406 264.5625 438.144531 265.015625 438.058594 265.464844 C 437.96875 265.914062 437.835938 266.347656 437.660156 266.769531 C 437.484375 267.191406 437.269531 267.59375 437.015625 267.972656 C 436.765625 268.355469 436.476562 268.707031 436.152344 269.027344 C 435.828125 269.351562 435.476562 269.640625 435.097656 269.894531 C 434.71875 270.148438 434.316406 270.363281 433.894531 270.535156 C 433.472656 270.710938 433.035156 270.84375 432.589844 270.933594 C 432.140625 271.023438 431.6875 271.066406 431.230469 271.066406 C 430.773438 271.066406 430.320312 271.023438 429.875 270.933594 C 429.425781 270.84375 428.988281 270.710938 428.566406 270.535156 C 428.144531 270.363281 427.746094 270.148438 427.363281 269.894531 C 426.984375 269.640625 426.632812 269.351562 426.308594 269.027344 C 425.988281 268.707031 425.699219 268.355469 425.445312 267.972656 C 425.191406 267.59375 424.976562 267.191406 424.800781 266.769531 C 424.625 266.347656 424.496094 265.914062 424.40625 265.464844 C 424.316406 265.015625 424.269531 264.5625 424.269531 264.105469 C 424.269531 263.648438 424.316406 263.199219 424.40625 262.75 C 424.492188 262.300781 424.625 261.867188 424.800781 261.445312 C 424.976562 261.023438 425.191406 260.621094 425.445312 260.242188 C 425.699219 259.859375 425.988281 259.507812 426.308594 259.1875 C 426.632812 258.863281 426.984375 258.574219 427.363281 258.320312 C 427.746094 258.066406 428.144531 257.851562 428.566406 257.675781 C 428.988281 257.503906 429.425781 257.371094 429.875 257.28125 C 430.320312 257.191406 430.773438 257.148438 431.230469 257.148438 C 431.6875 257.148438 432.140625 257.191406 432.589844 257.28125 C 433.035156 257.371094 433.472656 257.503906 433.894531 257.675781 C 434.316406 257.851562 434.71875 258.066406 435.097656 258.320312 C 435.476562 258.574219 435.828125 258.863281 436.152344 259.1875 C 436.476562 259.507812 436.765625 259.859375 437.015625 260.242188 C 437.269531 260.621094 437.484375 261.023438 437.660156 261.445312 C 437.835938 261.867188 437.96875 262.300781 438.058594 262.75 C 438.144531 263.199219 438.191406 263.648438 438.191406 264.105469 Z M 438.191406 264.105469 " fill-opacity="1" fill-rule="nonzero"/><path fill="#262a41" d="M 393.300781 220.261719 C 393.300781 220.71875 393.257812 221.171875 393.167969 221.621094 C 393.078125 222.066406 392.945312 222.503906 392.769531 222.925781 C 392.597656 223.347656 392.382812 223.75 392.128906 224.128906 C 391.875 224.507812 391.585938 224.859375 391.261719 225.183594 C 390.941406 225.507812 390.589844 225.792969 390.207031 226.046875 C 389.828125 226.300781 389.425781 226.515625 389.003906 226.691406 C 388.582031 226.867188 388.148438 227 387.699219 227.085938 C 387.25 227.175781 386.796875 227.222656 386.339844 227.222656 C 385.882812 227.222656 385.433594 227.175781 384.984375 227.085938 C 384.535156 227 384.101562 226.867188 383.679688 226.691406 C 383.257812 226.515625 382.855469 226.300781 382.476562 226.046875 C 382.09375 225.792969 381.742188 225.507812 381.421875 225.183594 C 381.097656 224.859375 380.808594 224.507812 380.554688 224.128906 C 380.300781 223.75 380.085938 223.347656 379.910156 222.925781 C 379.738281 222.503906 379.605469 222.066406 379.515625 221.621094 C 379.425781 221.171875 379.382812 220.71875 379.382812 220.261719 C 379.382812 219.804688 379.425781 219.351562 379.515625 218.902344 C 379.605469 218.457031 379.738281 218.019531 379.910156 217.597656 C 380.085938 217.175781 380.300781 216.773438 380.554688 216.394531 C 380.808594 216.015625 381.097656 215.664062 381.421875 215.339844 C 381.742188 215.015625 382.09375 214.730469 382.476562 214.476562 C 382.855469 214.222656 383.257812 214.007812 383.679688 213.832031 C 384.101562 213.65625 384.535156 213.523438 384.984375 213.4375 C 385.433594 213.347656 385.882812 213.300781 386.339844 213.300781 C 386.796875 213.300781 387.25 213.347656 387.699219 213.4375 C 388.148438 213.523438 388.582031 213.65625 389.003906 213.832031 C 389.425781 214.007812 389.828125 214.222656 390.207031 214.476562 C 390.589844 214.730469 390.941406 215.015625 391.261719 215.339844 C 391.585938 215.664062 391.875 216.015625 392.128906 216.394531 C 392.382812 216.773438 392.597656 217.175781 392.769531 217.597656 C 392.945312 218.019531 393.078125 218.457031 393.167969 218.902344 C 393.257812 219.351562 393.300781 219.804688 393.300781 220.261719 Z M 393.300781 220.261719 " fill-opacity="1" fill-rule="nonzero"/><path fill="#262a41" d="M 311.699219 300.820312 C 311.699219 301.277344 311.65625 301.730469 311.566406 302.175781 C 311.476562 302.625 311.34375 303.058594 311.171875 303.480469 C 310.996094 303.90625 310.78125 304.304688 310.527344 304.683594 C 310.273438 305.066406 309.984375 305.417969 309.660156 305.738281 C 309.339844 306.0625 308.988281 306.351562 308.605469 306.605469 C 308.226562 306.859375 307.824219 307.074219 307.402344 307.25 C 306.980469 307.421875 306.546875 307.554688 306.097656 307.644531 C 305.648438 307.734375 305.199219 307.777344 304.742188 307.777344 C 304.285156 307.777344 303.832031 307.734375 303.382812 307.644531 C 302.933594 307.554688 302.5 307.421875 302.078125 307.25 C 301.65625 307.074219 301.253906 306.859375 300.875 306.605469 C 300.492188 306.351562 300.140625 306.0625 299.820312 305.738281 C 299.496094 305.417969 299.207031 305.066406 298.953125 304.683594 C 298.699219 304.304688 298.484375 303.90625 298.308594 303.480469 C 298.136719 303.058594 298.003906 302.625 297.914062 302.175781 C 297.824219 301.730469 297.78125 301.277344 297.78125 300.820312 C 297.78125 300.363281 297.824219 299.910156 297.914062 299.460938 C 298.003906 299.011719 298.136719 298.578125 298.308594 298.15625 C 298.484375 297.734375 298.699219 297.332031 298.953125 296.953125 C 299.207031 296.574219 299.496094 296.222656 299.820312 295.898438 C 300.140625 295.574219 300.492188 295.285156 300.875 295.03125 C 301.253906 294.777344 301.65625 294.5625 302.078125 294.390625 C 302.5 294.214844 302.933594 294.082031 303.382812 293.992188 C 303.832031 293.902344 304.285156 293.859375 304.742188 293.859375 C 305.199219 293.859375 305.648438 293.902344 306.097656 293.992188 C 306.546875 294.082031 306.980469 294.214844 307.402344 294.390625 C 307.824219 294.5625 308.226562 294.777344 308.605469 295.03125 C 308.988281 295.285156 309.339844 295.574219 309.660156 295.898438 C 309.984375 296.222656 310.273438 296.574219 310.527344 296.953125 C 310.78125 297.332031 310.996094 297.734375 311.171875 298.15625 C 311.34375 298.578125 311.476562 299.011719 311.566406 299.460938 C 311.65625 299.910156 311.699219 300.363281 311.699219 300.820312 Z M 311.699219 300.820312 " fill-opacity="1" fill-rule="nonzero"/><path fill="#262a41" d="M 250.976562 240.445312 C 250.976562 240.902344 250.933594 241.355469 250.84375 241.800781 C 250.753906 242.25 250.621094 242.6875 250.449219 243.109375 C 250.273438 243.53125 250.058594 243.929688 249.804688 244.3125 C 249.550781 244.691406 249.261719 245.042969 248.9375 245.367188 C 248.617188 245.6875 248.265625 245.976562 247.882812 246.230469 C 247.503906 246.484375 247.101562 246.699219 246.679688 246.875 C 246.257812 247.050781 245.824219 247.179688 245.375 247.269531 C 244.925781 247.359375 244.476562 247.402344 244.019531 247.402344 C 243.5625 247.402344 243.109375 247.359375 242.660156 247.269531 C 242.210938 247.179688 241.777344 247.050781 241.355469 246.875 C 240.933594 246.699219 240.53125 246.484375 240.152344 246.230469 C 239.769531 245.976562 239.417969 245.6875 239.097656 245.367188 C 238.773438 245.042969 238.484375 244.691406 238.230469 244.3125 C 237.976562 243.929688 237.761719 243.53125 237.589844 243.109375 C 237.414062 242.6875 237.28125 242.25 237.191406 241.800781 C 237.101562 241.355469 237.058594 240.902344 237.058594 240.445312 C 237.058594 239.988281 237.101562 239.535156 237.191406 239.085938 C 237.28125 238.636719 237.414062 238.203125 237.589844 237.78125 C 237.761719 237.359375 237.976562 236.957031 238.230469 236.578125 C 238.484375 236.199219 238.773438 235.847656 239.097656 235.523438 C 239.417969 235.199219 239.769531 234.910156 240.152344 234.65625 C 240.53125 234.402344 240.933594 234.191406 241.355469 234.015625 C 241.777344 233.839844 242.210938 233.707031 242.660156 233.617188 C 243.109375 233.53125 243.5625 233.484375 244.019531 233.484375 C 244.476562 233.484375 244.925781 233.53125 245.375 233.617188 C 245.824219 233.707031 246.257812 233.839844 246.679688 234.015625 C 247.101562 234.191406 247.503906 234.402344 247.882812 234.65625 C 248.265625 234.910156 248.617188 235.199219 248.9375 235.523438 C 249.261719 235.847656 249.550781 236.199219 249.804688 236.578125 C 250.058594 236.957031 250.273438 237.359375 250.449219 237.78125 C 250.621094 238.203125 250.753906 238.636719 250.84375 239.085938 C 250.933594 239.535156 250.976562 239.988281 250.976562 240.445312 Z M 250.976562 240.445312 " fill-opacity="1" fill-rule="nonzero"/><path fill="#262a41" d="M 182.597656 237.140625 C 182.597656 237.597656 182.554688 238.046875 182.464844 238.496094 C 182.375 238.945312 182.246094 239.378906 182.070312 239.800781 C 181.894531 240.222656 181.679688 240.625 181.425781 241.003906 C 181.171875 241.386719 180.882812 241.738281 180.5625 242.058594 C 180.238281 242.382812 179.886719 242.671875 179.507812 242.925781 C 179.125 243.179688 178.726562 243.394531 178.304688 243.570312 C 177.882812 243.742188 177.445312 243.875 176.996094 243.964844 C 176.550781 244.054688 176.097656 244.097656 175.640625 244.097656 C 175.183594 244.097656 174.730469 244.054688 174.28125 243.964844 C 173.835938 243.875 173.398438 243.742188 172.976562 243.570312 C 172.554688 243.394531 172.152344 243.179688 171.773438 242.925781 C 171.394531 242.671875 171.042969 242.382812 170.71875 242.058594 C 170.394531 241.738281 170.105469 241.386719 169.851562 241.003906 C 169.597656 240.625 169.386719 240.222656 169.210938 239.800781 C 169.035156 239.378906 168.902344 238.945312 168.8125 238.496094 C 168.726562 238.046875 168.679688 237.597656 168.679688 237.140625 C 168.679688 236.683594 168.726562 236.230469 168.8125 235.78125 C 168.902344 235.332031 169.035156 234.898438 169.210938 234.476562 C 169.386719 234.054688 169.597656 233.652344 169.851562 233.273438 C 170.105469 232.890625 170.394531 232.539062 170.71875 232.21875 C 171.042969 231.894531 171.394531 231.605469 171.773438 231.351562 C 172.152344 231.097656 172.554688 230.882812 172.976562 230.707031 C 173.398438 230.535156 173.835938 230.402344 174.28125 230.3125 C 174.730469 230.222656 175.183594 230.179688 175.640625 230.179688 C 176.097656 230.179688 176.550781 230.222656 176.996094 230.3125 C 177.445312 230.402344 177.882812 230.535156 178.304688 230.707031 C 178.726562 230.882812 179.125 231.097656 179.507812 231.351562 C 179.886719 231.605469 180.238281 231.894531 180.5625 232.21875 C 180.882812 232.539062 181.171875 232.890625 181.425781 233.273438 C 181.679688 233.652344 181.894531 234.054688 182.070312 234.476562 C 182.246094 234.898438 182.375 235.332031 182.464844 235.78125 C 182.554688 236.230469 182.597656 236.683594 182.597656 237.140625 Z M 182.597656 237.140625 " fill-opacity="1" fill-rule="nonzero"/><path fill="#262a41" d="M 125.355469 294.035156 C 125.355469 294.492188 125.3125 294.941406 125.222656 295.390625 C 125.132812 295.839844 125.003906 296.273438 124.828125 296.695312 C 124.652344 297.117188 124.4375 297.519531 124.183594 297.898438 C 123.929688 298.28125 123.640625 298.632812 123.320312 298.953125 C 122.996094 299.277344 122.644531 299.566406 122.265625 299.820312 C 121.882812 300.074219 121.484375 300.289062 121.0625 300.464844 C 120.636719 300.636719 120.203125 300.769531 119.753906 300.859375 C 119.308594 300.949219 118.855469 300.992188 118.398438 300.992188 C 117.941406 300.992188 117.488281 300.949219 117.039062 300.859375 C 116.589844 300.769531 116.15625 300.636719 115.734375 300.464844 C 115.3125 300.289062 114.910156 300.074219 114.53125 299.820312 C 114.152344 299.566406 113.800781 299.277344 113.476562 298.953125 C 113.152344 298.632812 112.863281 298.28125 112.609375 297.898438 C 112.355469 297.519531 112.140625 297.117188 111.96875 296.695312 C 111.792969 296.273438 111.660156 295.839844 111.570312 295.390625 C 111.480469 294.941406 111.4375 294.492188 111.4375 294.035156 C 111.4375 293.578125 111.480469 293.125 111.570312 292.675781 C 111.660156 292.226562 111.792969 291.792969 111.96875 291.371094 C 112.140625 290.949219 112.355469 290.546875 112.609375 290.167969 C 112.863281 289.785156 113.152344 289.433594 113.476562 289.113281 C 113.800781 288.789062 114.152344 288.5 114.53125 288.246094 C 114.910156 287.992188 115.3125 287.777344 115.734375 287.605469 C 116.15625 287.429688 116.589844 287.296875 117.039062 287.207031 C 117.488281 287.117188 117.941406 287.074219 118.398438 287.074219 C 118.855469 287.074219 119.308594 287.117188 119.753906 287.207031 C 120.203125 287.296875 120.636719 287.429688 121.0625 287.605469 C 121.484375 287.777344 121.882812 287.992188 122.265625 288.246094 C 122.644531 288.5 122.996094 288.789062 123.320312 289.113281 C 123.640625 289.433594 123.929688 289.785156 124.183594 290.167969 C 124.4375 290.546875 124.652344 290.949219 124.828125 291.371094 C 125.003906 291.792969 125.132812 292.226562 125.222656 292.675781 C 125.3125 293.125 125.355469 293.578125 125.355469 294.035156 Z M 125.355469 294.035156 " fill-opacity="1" fill-rule="nonzero"/><path fill="#262a41" d="M 218.265625 268.804688 C 218.265625 269.261719 218.222656 269.714844 218.132812 270.164062 C 218.042969 270.609375 217.914062 271.046875 217.738281 271.46875 C 217.5625 271.890625 217.347656 272.292969 217.09375 272.671875 C 216.839844 273.050781 216.550781 273.402344 216.230469 273.726562 C 215.90625 274.050781 215.554688 274.335938 215.175781 274.589844 C 214.792969 274.84375 214.394531 275.058594 213.972656 275.234375 C 213.550781 275.410156 213.113281 275.542969 212.664062 275.628906 C 212.21875 275.71875 211.765625 275.765625 211.308594 275.765625 C 210.851562 275.765625 210.398438 275.71875 209.949219 275.628906 C 209.5 275.542969 209.066406 275.410156 208.644531 275.234375 C 208.222656 275.058594 207.820312 274.84375 207.441406 274.589844 C 207.0625 274.335938 206.710938 274.050781 206.386719 273.726562 C 206.0625 273.402344 205.773438 273.050781 205.519531 272.671875 C 205.265625 272.292969 205.054688 271.890625 204.878906 271.46875 C 204.703125 271.046875 204.570312 270.609375 204.480469 270.164062 C 204.394531 269.714844 204.347656 269.261719 204.347656 268.804688 C 204.347656 268.347656 204.394531 267.894531 204.480469 267.445312 C 204.570312 267 204.703125 266.5625 204.878906 266.140625 C 205.054688 265.71875 205.265625 265.316406 205.519531 264.9375 C 205.773438 264.558594 206.0625 264.207031 206.386719 263.882812 C 206.710938 263.5625 207.0625 263.273438 207.441406 263.019531 C 207.820312 262.765625 208.222656 262.550781 208.644531 262.375 C 209.066406 262.199219 209.5 262.066406 209.949219 261.980469 C 210.398438 261.890625 210.851562 261.84375 211.308594 261.84375 C 211.765625 261.84375 212.21875 261.890625 212.664062 261.980469 C 213.113281 262.066406 213.550781 262.199219 213.972656 262.375 C 214.394531 262.550781 214.792969 262.765625 215.175781 263.019531 C 215.554688 263.273438 215.90625 263.5625 216.230469 263.882812 C 216.550781 264.207031 216.839844 264.558594 217.09375 264.9375 C 217.347656 265.316406 217.5625 265.71875 217.738281 266.140625 C 217.914062 266.5625 218.042969 267 218.132812 267.445312 C 218.222656 267.894531 218.265625 268.347656 218.265625 268.804688 Z M 218.265625 268.804688 " fill-opacity="1" fill-rule="nonzero"/><path fill="#d4def9" d="M 177.554688 358.582031 L 204.347656 358.582031 L 204.347656 379.460938 L 177.554688 379.460938 Z M 177.554688 358.582031 " fill-opacity="1" fill-rule="nonzero"/><path fill="#d4def9" d="M 218.441406 349.535156 L 245.234375 349.535156 L 245.234375 379.460938 L 218.441406 379.460938 Z M 218.441406 349.535156 " fill-opacity="1" fill-rule="nonzero"/><path fill="#d4def9" d="M 95.777344 358.582031 L 122.574219 358.582031 L 122.574219 379.460938 L 95.777344 379.460938 Z M 95.777344 358.582031 " fill-opacity="1" fill-rule="nonzero"/><path fill="#d4def9" d="M 136.667969 349.535156 L 163.460938 349.535156 L 163.460938 379.460938 L 136.667969 379.460938 Z M 136.667969 349.535156 " fill-opacity="1" fill-rule="nonzero"/><path fill="#d4def9" d="M 259.328125 331.09375 L 286.125 331.09375 L 286.125 379.460938 L 259.328125 379.460938 Z M 259.328125 331.09375 " fill-opacity="1" fill-rule="nonzero"/><path fill="#d4def9" d="M 300.214844 337.183594 L 327.011719 337.183594 L 327.011719 379.289062 L 300.214844 379.289062 Z M 300.214844 337.183594 " fill-opacity="1" fill-rule="nonzero"/><path fill="#d4def9" d="M 341.105469 319.261719 L 367.898438 319.261719 L 367.898438 379.460938 L 341.105469 379.460938 Z M 341.105469 319.261719 " fill-opacity="1" fill-rule="nonzero"/><path fill="#d4def9" d="M 381.992188 307.953125 L 408.785156 307.953125 L 408.785156 379.460938 L 381.992188 379.460938 Z M 381.992188 307.953125 " fill-opacity="1" fill-rule="nonzero"/><path fill="#d4def9" d="M 423.054688 337.183594 L 449.847656 337.183594 L 449.847656 379.289062 L 423.054688 379.289062 Z M 423.054688 337.183594 " fill-opacity="1" fill-rule="nonzero"/><path fill="#d4def9" d="M 463.941406 319.261719 L 490.734375 319.261719 L 490.734375 379.460938 L 463.941406 379.460938 Z M 463.941406 319.261719 " fill-opacity="1" fill-rule="nonzero"/><path fill="#d4def9" d="M 504.828125 307.953125 L 531.621094 307.953125 L 531.621094 379.460938 L 504.828125 379.460938 Z M 504.828125 307.953125 " fill-opacity="1" fill-rule="nonzero"/><path fill="#5385ea" d="M 110.742188 160.929688 L 243.84375 160.929688 L 243.84375 166.671875 L 110.742188 166.671875 Z M 110.742188 160.929688 " fill-opacity="1" fill-rule="nonzero"/><path fill="#5385ea" d="M 110.742188 177.285156 L 174.074219 177.285156 L 174.074219 183.027344 L 110.742188 183.027344 Z M 110.742188 177.285156 " fill-opacity="1" fill-rule="nonzero"/><path fill="#ffffff" d="M 425.664062 12.867188 L 610.441406 12.867188 L 610.441406 203.734375 L 425.664062 203.734375 Z M 425.664062 12.867188 " fill-opacity="1" fill-rule="nonzero"/><path fill="#262a41" d="M 611.308594 204.429688 L 424.792969 204.429688 L 424.792969 11.996094 L 611.308594 11.996094 Z M 426.53125 202.6875 L 609.570312 202.6875 L 609.570312 13.734375 L 426.53125 13.734375 Z M 426.53125 202.6875 " fill-opacity="1" fill-rule="nonzero"/><path fill="#d4def9" d="M 518.050781 37.921875 L 518.050781 61.929688 C 501.523438 61.929688 487.953125 75.328125 487.953125 92.03125 L 463.941406 92.03125 C 463.941406 62.105469 488.125 37.921875 518.050781 37.921875 Z M 518.050781 37.921875 " fill-opacity="1" fill-rule="nonzero"/><path fill="#5385ea" d="M 556.15625 130.308594 C 546.410156 140.050781 532.839844 145.96875 518.050781 145.96875 C 488.125 145.96875 463.941406 121.785156 463.941406 91.855469 L 487.953125 91.855469 C 487.953125 108.386719 501.347656 121.957031 518.050781 121.957031 C 526.230469 121.957031 533.710938 118.652344 539.105469 113.257812 Z M 556.15625 130.308594 " fill-opacity="1" fill-rule="nonzero"/><path fill="#5385ea" d="M 572.164062 92.03125 C 572.164062 106.996094 566.074219 120.566406 556.15625 130.308594 L 539.105469 113.257812 C 544.671875 107.863281 547.976562 100.207031 547.976562 91.855469 C 547.976562 75.328125 534.582031 61.757812 517.878906 61.757812 L 517.878906 37.746094 C 547.976562 37.921875 572.164062 62.105469 572.164062 92.03125 Z M 572.164062 92.03125 " fill-opacity="1" fill-rule="nonzero"/><path fill="#d4def9" d="M 462.550781 158.496094 L 573.378906 158.496094 L 573.378906 162.324219 L 462.550781 162.324219 Z M 462.550781 158.496094 " fill-opacity="1" fill-rule="nonzero"/><path fill="#d4def9" d="M 462.550781 174.851562 L 573.378906 174.851562 L 573.378906 178.679688 L 462.550781 178.679688 Z M 462.550781 174.851562 " fill-opacity="1" fill-rule="nonzero"/><path fill="#5385ea" d="M 15.394531 202.515625 L 147.628906 202.515625 L 147.628906 303.601562 L 15.394531 303.601562 Z M 15.394531 202.515625 " fill-opacity="1" fill-rule="nonzero"/><path fill="#ffffff" d="M 75.945312 260.28125 L 87.078125 260.28125 L 87.078125 278.546875 L 75.945312 278.546875 Z M 75.945312 260.28125 " fill-opacity="1" fill-rule="nonzero"/><path fill="#262a41" d="M 96.648438 239.75 L 107.785156 239.75 L 107.785156 278.375 L 96.648438 278.375 Z M 96.648438 239.75 " fill-opacity="1" fill-rule="nonzero"/><path fill="#ffffff" d="M 34.707031 268.457031 L 45.84375 268.457031 L 45.84375 278.375 L 34.707031 278.375 Z M 34.707031 268.457031 " fill-opacity="1" fill-rule="nonzero"/><path fill="#262a41" d="M 55.238281 252.277344 L 66.375 252.277344 L 66.375 278.375 L 55.238281 278.375 Z M 55.238281 252.277344 " fill-opacity="1" fill-rule="nonzero"/><path fill="#ffffff" d="M 117.179688 227.742188 L 128.316406 227.742188 L 128.316406 278.546875 L 117.179688 278.546875 Z M 117.179688 227.742188 " fill-opacity="1" fill-rule="nonzero"/><path fill="#ffffff" d="M 375.554688 456.019531 L 281.25 456.019531 C 280.035156 456.019531 278.988281 454.972656 278.988281 453.757812 C 278.988281 452.539062 280.035156 451.496094 281.25 451.496094 L 375.726562 451.496094 C 376.945312 451.496094 377.988281 452.539062 377.988281 453.757812 C 377.988281 454.972656 376.945312 456.019531 375.554688 456.019531 Z M 375.554688 456.019531 " fill-opacity="1" fill-rule="nonzero"/><path fill="#5385ea" d="M 317.964844 456.019531 L 281.25 456.019531 C 280.035156 456.019531 278.988281 454.972656 278.988281 453.757812 C 278.988281 452.539062 280.035156 451.496094 281.25 451.496094 L 317.964844 451.496094 C 319.179688 451.496094 320.226562 452.539062 320.226562 453.757812 C 320.226562 454.972656 319.179688 456.019531 317.964844 456.019531 Z M 317.964844 456.019531 " fill-opacity="1" fill-rule="nonzero"/><path fill="#ffffff" d="M 375.554688 473.070312 L 281.25 473.070312 C 280.035156 473.070312 278.988281 472.023438 278.988281 470.808594 C 278.988281 469.589844 280.035156 468.546875 281.25 468.546875 L 375.726562 468.546875 C 376.945312 468.546875 377.988281 469.589844 377.988281 470.808594 C 377.988281 472.023438 376.945312 473.070312 375.554688 473.070312 Z M 375.554688 473.070312 " fill-opacity="1" fill-rule="nonzero"/><path fill="#5385ea" d="M 333.621094 473.070312 L 281.25 473.070312 C 280.035156 473.070312 278.988281 472.023438 278.988281 470.808594 C 278.988281 469.589844 280.035156 468.546875 281.25 468.546875 L 333.796875 468.546875 C 335.015625 468.546875 336.058594 469.589844 336.058594 470.808594 C 336.058594 472.023438 335.015625 473.070312 333.621094 473.070312 Z M 333.621094 473.070312 " fill-opacity="1" fill-rule="nonzero"/><path fill="#ffffff" d="M 375.554688 490.121094 L 281.25 490.121094 C 280.035156 490.121094 278.988281 489.074219 278.988281 487.859375 C 278.988281 486.640625 280.035156 485.597656 281.25 485.597656 L 375.726562 485.597656 C 376.945312 485.597656 377.988281 486.640625 377.988281 487.859375 C 377.988281 489.074219 376.945312 490.121094 375.554688 490.121094 Z M 375.554688 490.121094 " fill-opacity="1" fill-rule="nonzero"/><path fill="#262a41" d="M 355.894531 490.121094 L 281.078125 490.121094 C 279.859375 490.121094 278.816406 489.074219 278.816406 487.859375 C 278.816406 486.640625 279.859375 485.597656 281.078125 485.597656 L 355.894531 485.597656 C 357.109375 485.597656 358.15625 486.640625 358.15625 487.859375 C 358.328125 489.074219 357.285156 490.121094 355.894531 490.121094 Z M 355.894531 490.121094 " fill-opacity="1" fill-rule="nonzero"/><path fill="#ffffff" d="M 741.628906 161.453125 C 740.585938 164.585938 739.019531 167.542969 736.929688 170.152344 C 735.539062 172.066406 733.800781 173.632812 731.710938 175.199219 C 728.230469 177.808594 724.402344 179.375 720.402344 180.246094 L 719.183594 173.980469 C 726.839844 172.414062 733.101562 166.847656 735.363281 159.539062 Z M 741.628906 161.453125 " fill-opacity="1" fill-rule="nonzero"/><path fill="#5385ea" d="M 741.628906 161.453125 L 735.539062 159.367188 C 736.234375 157.277344 736.582031 155.015625 736.582031 152.753906 C 736.582031 141.964844 728.578125 132.917969 718.140625 131.527344 L 719.011719 125.089844 C 722.140625 125.613281 725.097656 126.480469 728.058594 128.046875 C 731.539062 129.960938 734.84375 132.570312 737.453125 136.050781 C 743.195312 143.53125 744.414062 153.101562 741.628906 161.453125 Z M 741.628906 161.453125 " fill-opacity="1" fill-rule="nonzero"/><path fill="#5385ea" d="M 720.402344 180.070312 C 710.136719 181.984375 699.347656 178.332031 692.5625 169.28125 C 683.34375 156.929688 685.953125 139.355469 698.304688 130.136719 C 704.394531 125.4375 712.050781 123.871094 719.011719 124.914062 L 718.140625 131.351562 C 717.097656 131.179688 716.050781 131.179688 715.007812 131.179688 C 703.175781 131.179688 693.605469 140.75 693.605469 152.578125 C 693.605469 164.410156 703.175781 173.980469 715.007812 173.980469 C 716.398438 173.980469 717.792969 173.804688 719.183594 173.632812 Z M 720.402344 180.070312 " fill-opacity="1" fill-rule="nonzero"/><path fill="#ffffff" d="M 718.140625 226.527344 C 717.617188 228.089844 716.746094 229.65625 715.703125 230.875 C 715.007812 231.746094 714.136719 232.613281 713.09375 233.484375 C 711.355469 234.878906 709.441406 235.574219 707.351562 236.09375 L 706.65625 232.964844 C 710.484375 232.265625 713.789062 229.308594 714.835938 225.65625 Z M 718.140625 226.527344 " fill-opacity="1" fill-rule="nonzero"/><path fill="#5385ea" d="M 718.140625 226.527344 L 715.007812 225.480469 C 715.355469 224.4375 715.53125 223.21875 715.53125 222 C 715.53125 216.433594 711.527344 211.910156 706.132812 211.214844 L 706.65625 207.910156 C 708.222656 208.082031 709.789062 208.605469 711.179688 209.472656 C 712.921875 210.34375 714.660156 211.734375 715.878906 213.476562 C 718.835938 217.476562 719.53125 222.351562 718.140625 226.527344 Z M 718.140625 226.527344 " fill-opacity="1" fill-rule="nonzero"/><path fill="#5385ea" d="M 707.351562 236.09375 C 702.132812 237.140625 696.566406 235.226562 693.257812 230.703125 C 688.5625 224.4375 689.78125 215.5625 696.21875 210.867188 C 699.347656 208.605469 703.175781 207.734375 706.832031 208.257812 L 706.308594 211.5625 C 705.785156 211.5625 705.265625 211.386719 704.742188 211.386719 C 698.652344 211.386719 693.78125 216.261719 693.78125 222.351562 C 693.78125 228.4375 698.652344 233.3125 704.742188 233.3125 C 705.4375 233.3125 706.132812 233.3125 706.832031 233.136719 Z M 707.351562 236.09375 " fill-opacity="1" fill-rule="nonzero"/><path fill="#f4a9a2" d="M 557.375 330.050781 C 520.835938 331.441406 455.589844 519.175781 480.992188 522.828125 C 515.441406 546.667969 616.703125 339.617188 557.375 330.050781 Z M 557.375 330.050781 " fill-opacity="1" fill-rule="nonzero"/><path fill="#f4a9a2" d="M 496.652344 522.308594 C 491.605469 525.09375 485.167969 524.570312 480.121094 521.613281 C 440.625 498.296875 351.371094 347.101562 364.59375 345.1875 C 372.597656 340.488281 535.277344 501.082031 496.652344 522.308594 Z M 496.652344 522.308594 " fill-opacity="1" fill-rule="nonzero"/><path fill="#f4a9a2" d="M 395.5625 364.152344 L 481.863281 455.84375 L 494.042969 429.050781 L 542.0625 463.5 C 542.0625 463.5 514.222656 522.65625 488.125 526.832031 C 462.027344 531.007812 369.8125 372.328125 369.8125 372.328125 Z M 395.5625 364.152344 " fill-opacity="1" fill-rule="nonzero"/><path fill="#f4a9a2" d="M 392.605469 367.28125 C 392.605469 367.28125 395.5625 369.023438 395.5625 369.023438 L 396.78125 361.195312 L 398.171875 347.449219 C 398.519531 343.96875 398 340.316406 396.605469 337.183594 L 387.386719 324.480469 C 387.386719 324.480469 382.6875 323.613281 385.992188 331.964844 C 386.863281 334.050781 386.167969 337.703125 385.472656 340.664062 L 381.121094 333.007812 C 381.121094 333.007812 371.03125 315.957031 371.03125 315.957031 C 369.464844 313.695312 364.941406 315.78125 363.199219 316.652344 C 359.546875 318.390625 357.109375 320.132812 356.066406 323.960938 C 355.546875 326.222656 354.847656 328.484375 354.5 330.746094 C 353.632812 337.355469 354.847656 343.96875 356.9375 350.230469 C 358.675781 355.277344 360.9375 360.148438 363.722656 364.671875 C 366.332031 369.023438 369.8125 372.503906 372.597656 376.679688 C 375.902344 374.9375 379.207031 373.546875 382.6875 371.808594 C 384.949219 370.761719 387.210938 369.71875 389.472656 368.5 C 389.996094 368.5 392.429688 367.109375 392.605469 367.28125 Z M 392.605469 367.28125 " fill-opacity="1" fill-rule="nonzero"/><path fill="#d4def9" d="M 343.019531 278.722656 C 321.445312 291.421875 294.476562 287.246094 277.773438 270.023438 C 275.335938 267.585938 273.25 264.804688 271.335938 261.84375 C 270.8125 261.148438 270.289062 260.28125 269.941406 259.582031 C 269.074219 258.019531 268.203125 256.625 267.507812 255.058594 C 264.027344 247.578125 262.460938 239.75 262.460938 232.09375 C 262.636719 214 272.03125 196.25 288.90625 186.507812 C 305.957031 176.589844 326.140625 176.9375 342.148438 185.984375 C 348.933594 189.8125 355.023438 195.035156 359.722656 201.820312 C 360.589844 203.035156 361.460938 204.253906 362.15625 205.648438 C 362.679688 206.691406 363.199219 207.5625 363.722656 208.605469 C 365.289062 211.738281 366.507812 215.042969 367.550781 218.347656 C 373.8125 240.792969 364.417969 266.019531 343.019531 278.722656 Z M 343.019531 278.722656 " fill-opacity="1" fill-rule="nonzero"/><path fill="#262a41" d="M 372.421875 199.210938 C 353.980469 167.890625 313.789062 157.453125 282.46875 175.894531 C 251.152344 194.335938 240.710938 234.527344 259.15625 265.847656 C 276.207031 294.902344 312.394531 306.039062 342.496094 292.46875 C 344.757812 291.421875 346.847656 290.378906 349.109375 289.160156 C 351.195312 287.945312 353.285156 286.550781 355.199219 284.984375 C 381.816406 265.324219 389.648438 228.4375 372.421875 199.210938 Z M 266.636719 261.496094 C 250.628906 234.179688 259.675781 199.210938 286.992188 183.203125 C 314.308594 167.195312 349.28125 176.242188 365.289062 203.558594 C 381.296875 230.875 372.25 265.847656 344.933594 281.855469 C 317.617188 297.859375 282.644531 288.8125 266.636719 261.496094 Z M 266.636719 261.496094 " fill-opacity="1" fill-rule="nonzero"/><path fill="#262a41" d="M 342.632812 291.488281 L 354.332031 284.609375 L 398.429688 359.601562 L 386.734375 366.480469 Z M 342.632812 291.488281 " fill-opacity="1" fill-rule="nonzero"/><path fill="#262a41" d="M 418.183594 392.511719 L 406.003906 399.644531 C 404.609375 400.515625 402.871094 399.992188 402 398.601562 L 361.285156 329.351562 C 360.417969 327.960938 360.9375 326.222656 362.332031 325.351562 L 374.511719 318.21875 C 375.902344 317.347656 377.640625 317.871094 378.511719 319.261719 L 419.226562 388.511719 C 419.921875 389.902344 419.574219 391.816406 418.183594 392.511719 Z M 418.183594 392.511719 " fill-opacity="1" fill-rule="nonzero"/><path fill="#ffffff" d="M 359.546875 201.644531 L 267.332031 255.058594 C 263.851562 247.578125 262.285156 239.75 262.285156 232.09375 L 341.972656 185.8125 C 348.933594 189.640625 354.847656 195.035156 359.546875 201.644531 Z M 359.546875 201.644531 " fill-opacity="0.2" fill-rule="nonzero"/><path fill="#ffffff" d="M 367.375 218 L 277.773438 270.023438 C 275.335938 267.585938 273.25 264.804688 271.335938 261.84375 L 363.722656 208.257812 C 365.289062 211.5625 366.507812 214.695312 367.375 218 Z M 367.375 218 " fill-opacity="0.2" fill-rule="nonzero"/><path fill="#5385ea" d="M 560.332031 322.742188 L 559.984375 368.847656 L 559.289062 459.84375 C 559.289062 459.84375 558.589844 461.0625 557.199219 463.152344 C 556.851562 463.671875 556.503906 464.195312 556.15625 464.890625 C 554.9375 466.804688 553.546875 469.066406 551.804688 471.851562 L 531.273438 457.933594 L 523.621094 452.886719 L 492.128906 431.484375 C 502.21875 405.5625 512.484375 380.507812 519.964844 366.933594 C 539.453125 330.570312 560.332031 322.742188 560.332031 322.742188 Z M 560.332031 322.742188 " fill-opacity="1" fill-rule="nonzero"/><path fill="#f4a9a2" d="M 652.199219 328.832031 L 622.097656 351.449219 L 600.695312 332.3125 L 600.695312 303.429688 L 643.5 270.023438 L 644.367188 275.070312 L 646.457031 290.378906 Z M 652.199219 328.832031 " fill-opacity="1" fill-rule="nonzero"/><path fill="#262a41" d="M 644.890625 280.289062 C 633.234375 303.601562 606.089844 315.085938 600.695312 316.652344 L 600.695312 310.5625 L 640.539062 275.242188 C 640.539062 275.242188 642.105469 275.070312 644.195312 275.070312 Z M 644.890625 280.289062 " fill-opacity="1" fill-rule="nonzero"/><path fill="#f4a9a2" d="M 647.152344 275.9375 C 647.152344 275.9375 639.148438 293.683594 620.707031 302.558594 C 612.007812 306.734375 602.261719 312.476562 592.171875 310.5625 C 583.296875 308.824219 578.601562 300.125 574.945312 292.816406 C 571.292969 285.683594 569.550781 277.679688 569.550781 269.675781 C 569.550781 261.148438 570.074219 252.796875 568.160156 244.273438 C 566.769531 237.660156 564.507812 229.308594 568.507812 223.046875 C 573.726562 215.042969 614.09375 204.949219 614.09375 204.949219 L 637.929688 218 L 655.851562 229.832031 Z M 647.152344 275.9375 " fill-opacity="1" fill-rule="nonzero"/><path fill="#262a41" d="M 592.867188 224.261719 C 592.867188 224.261719 594.085938 230.875 600.871094 233.660156 C 600.871094 233.660156 587.996094 235.226562 580.167969 229.308594 C 580.167969 229.308594 583.820312 234.875 586.953125 235.921875 C 586.953125 235.921875 570.769531 236.617188 565.550781 230.703125 L 567.464844 240.964844 C 567.464844 240.964844 558.070312 231.570312 558.242188 220.085938 C 558.417969 211.910156 562.070312 204.601562 564.507812 196.945312 C 566.074219 191.902344 568.507812 186.332031 573.378906 183.722656 C 586.253906 176.765625 602.089844 177.980469 615.835938 181.460938 C 626.796875 184.246094 638.105469 188.074219 646.976562 195.382812 C 670.292969 214.867188 661.417969 257.84375 645.585938 279.417969 C 645.585938 279.417969 643.671875 259.757812 643.324219 253.667969 C 642.976562 247.578125 637.582031 246.011719 637.757812 248.96875 C 637.929688 251.929688 637.410156 266.019531 634.449219 266.019531 C 631.320312 265.847656 630.273438 240.964844 622.96875 235.746094 C 615.3125 230.703125 598.78125 229.136719 592.867188 224.261719 Z M 592.867188 224.261719 " fill-opacity="1" fill-rule="nonzero"/><path fill="#5385ea" d="M 743.195312 533.792969 L 543.28125 533.792969 C 538.234375 471.503906 531.449219 374.417969 537.015625 354.234375 C 543.28125 331.09375 555.632812 321.699219 574.597656 317.523438 C 580.339844 316.304688 593.738281 314.914062 600.695312 314.390625 C 606.613281 346.230469 650.285156 315.085938 650.285156 315.085938 C 650.285156 315.085938 660.722656 316.128906 668.378906 316.652344 C 686.125 317.695312 716.574219 323.4375 722.664062 349.882812 C 725.621094 362.585938 729.101562 395.816406 732.929688 433.398438 C 735.015625 454.625 737.105469 477.246094 739.367188 498.296875 C 740.757812 510.652344 741.976562 522.828125 743.195312 533.792969 Z M 743.195312 533.792969 " fill-opacity="1" fill-rule="nonzero"/><path fill="#ffffff" d="M 600.695312 311.257812 L 609.570312 327.265625 L 600.347656 334.398438 L 593.042969 314.914062 " fill-opacity="1" fill-rule="nonzero"/><path fill="#ffffff" d="M 609.570312 327.265625 L 649.066406 306.386719 L 657.070312 316.304688 L 615.3125 338.402344 Z M 609.570312 327.265625 " fill-opacity="1" fill-rule="nonzero"/><path fill="#f4a9a2" d="M 697.433594 337.703125 C 673.078125 365.019531 762.507812 542.492188 782.863281 526.65625 C 823.925781 518.652344 745.457031 301.863281 697.433594 337.703125 Z M 697.433594 337.703125 " fill-opacity="1" fill-rule="nonzero"/><g clip-path="url(#f3ff4c0aac)"><path fill="#f4a9a2" d="M 777.46875 428.355469 C 777.46875 428.355469 806.875 502.472656 794.347656 518.828125 C 781.644531 535.355469 660.027344 544.753906 660.027344 544.753906 L 654.808594 511.347656 C 654.808594 511.347656 739.367188 490.640625 739.539062 489.25 C 739.714844 488.03125 719.011719 451.492188 719.011719 451.492188 Z M 777.46875 428.355469 " fill-opacity="1" fill-rule="nonzero"/></g><g clip-path="url(#c8b192849b)"><path fill="#f4a9a2" d="M 796.785156 510.476562 C 796.785156 516.390625 793.128906 521.613281 788.082031 524.570312 C 748.414062 547.363281 572.683594 550.320312 577.730469 537.96875 C 577.382812 528.570312 797.304688 466.457031 796.785156 510.476562 Z M 796.785156 510.476562 " fill-opacity="1" fill-rule="nonzero"/></g><path fill="#5385ea" d="M 717.617188 456.191406 C 705.089844 433.398438 689.429688 403.300781 685.253906 388.335938 C 685.253906 388.335938 657.765625 331.964844 678.296875 322.742188 C 681.078125 321.523438 686.820312 319.4375 689.605469 320.132812 C 710.484375 325.175781 732.234375 340.316406 747.023438 361.542969 C 756.765625 375.632812 769.816406 401.558594 780.601562 428.703125 Z M 717.617188 456.191406 " fill-opacity="1" fill-rule="nonzero"/><g clip-path="url(#7420569bcc)"><path fill="#f4a9a2" d="M 530.230469 552.058594 C 530.578125 551.191406 544.5 522.828125 560.332031 520.21875 C 576.164062 517.609375 597.738281 525.441406 600.695312 525.441406 C 603.65625 525.441406 610.265625 524.917969 610.265625 524.917969 L 614.964844 543.707031 C 614.964844 543.707031 602.609375 543.535156 600.871094 545.621094 C 599.132812 547.710938 598.433594 550.667969 591.824219 550.667969 C 585.210938 550.667969 578.601562 544.578125 570.421875 544.578125 C 562.417969 544.578125 556.503906 553.972656 549.371094 553.972656 C 542.234375 553.972656 530.230469 552.058594 530.230469 552.058594 Z M 530.230469 552.058594 " fill-opacity="1" fill-rule="nonzero"/></g><path fill="#262a41" d="M 536.789062 398.800781 L 538.527344 398.789062 L 539.019531 461.25 L 537.28125 461.261719 Z M 536.789062 398.800781 " fill-opacity="1" fill-rule="nonzero"/><path fill="#262a41" d="M 688.675781 403.226562 L 690.214844 402.414062 L 718.449219 455.777344 L 716.914062 456.59375 Z M 688.675781 403.226562 " fill-opacity="1" fill-rule="nonzero"/></svg>